<svg xmlns="http://www.w3.org/2000/svg" width="375" height="866" viewBox="0 0 375 866" fill="none"><rect width="375" height="866" fill="url(#paint0_linear_372_11828)"></rect><mask id="mask0_372_11828" style="mask-type:alpha" maskUnits="userSpaceOnUse" x="0" y="0" width="375" height="866"><rect width="375" height="866" fill="url(#paint1_linear_372_11828)"></rect></mask><g mask="url(#mask0_372_11828)"><path d="M387.77 798.453C380.059 787.41 367.396 780.412 354.412 780.018C341.428 779.623 328.404 785.845 320.109 796.404C315.428 802.368 312.265 809.482 308.011 815.793C294.395 835.986 268.93 846.381 245.992 841.113C232.71 838.059 220.87 830.418 208.776 823.862C195.187 816.498 180.801 810.342 165.668 808.171C150.535 806 134.512 808.063 121.345 816.24C112.126 821.964 104.713 830.356 96.4941 837.584C86.1042 846.724 74.2327 854.107 61.3466 858.416C50.2804 862.119 38.4266 863.519 26.9644 861.555C7.13249 858.162 -9.86949 845.211 -26.0527 832.636" stroke="white" stroke-opacity="0.6" stroke-width="0.25" stroke-miterlimit="10"></path><path d="M387.699 801.799C379.979 790.732 367.316 783.697 354.309 783.237C341.303 782.776 328.252 788.928 319.838 799.398C314.97 805.455 311.66 812.73 307.264 819.186C293.679 839.224 268.458 849.793 245.654 844.539C232.243 841.447 220.425 833.477 208.375 826.625C194.906 819.003 180.521 812.579 165.334 810.526C150.597 808.533 135.046 810.591 122.222 818.533C112.664 824.412 104.886 832.969 96.4541 840.526C85.9931 849.854 74.0948 857.664 60.9996 861.781C49.7732 865.315 37.9417 865.991 26.5284 863.712C7.27941 859.873 -9.37104 847.222 -24.7578 834.652" stroke="white" stroke-opacity="0.6" stroke-width="0.25" stroke-miterlimit="10"></path><path d="M387.628 805.145C379.895 794.059 367.236 786.977 354.212 786.456C341.188 785.929 328.106 792.006 319.572 802.386C314.512 808.538 311.055 815.967 306.521 822.574C292.963 842.462 267.992 853.2 245.325 847.96C231.781 844.825 219.989 836.531 207.989 829.379C194.635 821.498 180.259 814.806 165.014 812.87C150.673 811.052 135.607 813.143 123.108 820.817C113.225 826.884 105.087 835.591 96.4234 843.453C85.909 852.998 73.9662 861.212 60.6663 865.126C49.2842 868.486 37.4794 868.449 26.1061 865.85C7.44001 861.588 -8.85448 849.219 -23.4492 836.658" stroke="white" stroke-opacity="0.6" stroke-width="0.25" stroke-miterlimit="10"></path><path d="M387.556 808.486C379.81 797.377 367.155 790.257 354.109 789.67C341.062 789.078 327.949 795.079 319.295 805.375C314.049 811.62 310.431 819.196 305.764 825.963C292.188 845.662 267.515 856.607 244.977 851.386C231.304 848.209 219.552 839.553 207.583 832.142C194.372 823.961 179.977 817.039 164.68 815.229C150.735 813.58 136.144 815.69 123.979 823.11C113.763 829.346 105.264 838.209 96.3781 846.395C85.7969 856.137 73.823 864.774 60.314 868.486C48.7761 871.677 37.0025 870.93 25.6649 868.002C7.58606 863.341 -8.35691 851.235 -22.1641 838.674" stroke="white" stroke-opacity="0.6" stroke-width="0.25" stroke-miterlimit="10"></path><path d="M387.485 811.832C379.725 800.699 367.074 793.542 354.01 792.884C340.946 792.226 327.798 798.148 319.027 808.359C313.59 814.694 309.821 822.429 305.02 829.351C291.462 848.886 267.047 860.009 244.643 854.807C230.841 851.592 219.116 842.598 207.186 834.896C194.1 826.447 179.71 819.261 164.35 817.574C150.805 816.085 136.687 818.218 124.855 825.394C114.301 831.794 105.446 840.822 96.3376 849.323C85.6897 859.262 73.6846 868.317 59.9709 871.837C48.2729 874.854 36.5392 873.407 25.2328 870.145C7.74579 865.103 -7.85011 853.242 -20.8652 840.685" stroke="white" stroke-opacity="0.6" stroke-width="0.25" stroke-miterlimit="10"></path><path d="M387.414 815.178C379.64 804.022 366.994 796.827 353.908 796.103C340.822 795.38 327.633 801.216 318.756 811.348C313.127 817.772 309.212 825.666 304.273 832.739C290.737 852.114 266.58 863.416 244.305 858.228C230.369 854.971 218.68 845.648 206.79 837.654C193.829 828.937 179.439 821.484 164.025 819.924C150.881 818.594 137.23 820.746 125.736 827.682C114.848 834.252 105.628 843.434 96.3021 852.26C85.5874 862.396 73.5512 871.874 59.6284 875.192C47.7746 878.04 36.081 875.902 24.8012 872.293C7.90606 866.889 -7.34722 855.248 -19.5703 842.701" stroke="white" stroke-opacity="0.6" stroke-width="0.25" stroke-miterlimit="10"></path><path d="M387.34 818.524C379.553 807.344 366.912 800.107 353.808 799.322C340.704 798.533 327.475 804.285 318.487 814.341C312.662 820.859 308.604 828.909 303.527 836.132C290.014 855.352 266.11 866.828 243.969 861.658C229.904 858.364 218.241 848.707 206.396 840.418C193.559 831.437 179.174 823.707 163.698 822.278C150.954 821.104 137.77 823.279 126.615 829.976C115.393 836.71 105.809 846.052 96.2596 855.197C85.4782 865.526 73.4109 875.432 59.2833 878.548C47.2694 881.226 35.6158 878.402 24.3672 874.441C8.05938 868.703 -6.84238 857.26 -18.2734 844.718" stroke="white" stroke-opacity="0.6" stroke-width="0.25" stroke-miterlimit="10"></path><path d="M387.268 821.865C379.472 810.662 366.831 803.387 353.704 802.532C340.578 801.677 327.305 807.344 318.214 817.321C312.194 823.928 307.994 832.138 302.774 839.511C289.283 858.571 265.633 870.221 243.625 865.07C229.431 861.734 217.795 851.748 205.995 843.167C193.278 833.919 178.901 825.916 163.368 824.623C151.024 823.594 138.307 825.803 127.495 832.255C115.935 839.154 105.994 848.651 96.223 858.125C85.3704 868.646 73.2764 878.975 58.9442 881.898C46.7745 884.403 35.161 880.911 23.939 876.583C8.22301 870.526 -6.33168 859.262 -16.9707 846.729" stroke="white" stroke-opacity="0.6" stroke-width="0.25" stroke-miterlimit="10"></path><path d="M387.195 825.211C379.386 813.989 366.749 806.672 353.605 805.751C340.461 804.83 327.143 810.413 317.946 820.314C311.73 827.006 307.387 835.38 302.03 842.903C288.565 861.809 265.169 873.632 243.29 868.496C228.967 865.117 217.354 854.802 205.598 845.925C193.005 836.418 178.633 828.129 163.037 826.973C151.094 826.089 138.84 828.326 128.37 834.543C116.476 841.606 106.167 851.264 96.1817 861.062C85.2579 871.776 73.1371 882.533 58.5958 885.253C46.2703 887.589 34.6969 883.435 23.5017 878.731C8.36853 872.377 -5.83019 861.273 -15.6816 848.745" stroke="white" stroke-opacity="0.6" stroke-width="0.25" stroke-miterlimit="10"></path><path d="M387.125 828.557C379.303 817.311 366.67 809.957 353.504 808.97C340.337 807.983 326.975 813.472 317.676 823.303C311.264 830.084 306.778 838.622 301.283 846.292C287.845 865.042 264.698 877.039 242.958 871.922C228.501 868.505 216.918 857.861 205.207 848.688C192.735 838.918 178.371 830.338 162.713 829.327C151.175 828.585 139.379 830.855 129.252 836.837C117.02 844.064 106.35 853.876 96.147 863.999C85.152 874.906 73.0046 886.09 58.2586 888.609C45.7729 890.775 34.244 885.968 23.0755 880.878C8.52521 874.248 -5.32199 863.28 -14.377 850.761" stroke="white" stroke-opacity="0.6" stroke-width="0.25" stroke-miterlimit="10"></path><path d="M387.055 831.902C379.219 820.633 366.591 813.242 353.407 812.184C340.223 811.127 326.807 816.531 317.41 826.287C310.797 833.152 306.179 841.855 300.541 849.675C287.134 868.275 264.237 880.441 242.625 875.338C228.039 871.879 216.479 860.911 204.816 851.437C192.464 841.409 178.114 832.532 162.394 831.672C151.256 831.061 139.923 833.369 130.139 839.12C117.568 846.508 106.538 856.48 96.1168 866.931C85.0506 878.031 72.8765 889.638 57.9213 891.964C45.28 893.956 33.7866 888.515 22.6492 883.026C8.673 876.141 -4.80933 865.291 -13.0723 852.772" stroke="white" stroke-opacity="0.6" stroke-width="0.25" stroke-miterlimit="10"></path><path d="M386.979 835.244C379.13 823.951 366.506 816.517 353.3 815.399C340.093 814.28 326.629 819.586 317.133 829.276C310.321 836.226 305.564 845.098 299.784 853.063C286.404 871.508 263.756 883.844 242.278 878.759C227.563 875.258 216.029 863.966 204.407 854.196C192.175 843.909 177.834 834.731 162.051 834.022C151.319 833.543 140.444 835.888 131.002 841.404C118.089 848.952 106.698 859.083 96.0632 869.859C84.9258 881.146 72.725 893.186 57.5651 895.31C44.7636 897.133 33.3058 891.067 22.204 885.164C8.79735 878.04 -4.31566 867.288 -11.791 854.779" stroke="white" stroke-opacity="0.6" stroke-width="0.25" stroke-miterlimit="10"></path><path d="M386.906 838.59C379.044 827.274 366.425 819.802 353.2 818.618C339.976 817.434 326.458 822.645 316.865 832.264C309.852 839.295 304.962 848.336 299.04 856.456C285.691 874.751 263.287 887.255 241.942 882.19C227.094 878.651 215.587 867.03 204.014 856.959C191.897 846.414 177.574 836.926 161.729 836.376C151.401 836.019 140.985 838.411 131.885 843.698C118.635 851.405 106.879 861.696 96.0305 872.8C84.8175 884.276 72.5944 896.748 57.2299 898.67C44.2726 900.319 32.8371 893.646 21.7798 887.317C8.93819 879.972 -3.8055 869.304 -10.4844 856.799" stroke="white" stroke-opacity="0.6" stroke-width="0.25" stroke-miterlimit="10"></path><path d="M386.837 841.935C378.965 830.601 366.346 823.087 353.1 821.837C339.853 820.587 326.286 825.704 316.595 835.258C309.382 842.368 304.359 851.583 298.294 859.849C284.98 877.993 262.821 890.667 241.606 885.615C226.628 882.034 215.139 870.093 203.619 859.722C191.623 848.923 177.313 839.116 161.401 838.735C151.479 838.496 141.516 840.934 132.768 845.996C119.174 853.857 107.058 864.309 95.9964 875.742C84.7077 887.406 72.4624 900.305 56.8887 902.035C43.7713 903.515 32.358 896.24 21.3497 889.473C9.05982 881.922 -3.29675 871.325 -9.18359 858.825" stroke="white" stroke-opacity="0.6" stroke-width="0.25" stroke-miterlimit="10"></path><path d="M386.765 845.281C378.88 833.923 366.265 826.371 353.001 825.051C339.737 823.735 326.112 828.754 316.327 838.242C308.91 845.436 303.757 854.821 297.545 863.233C284.263 881.231 262.349 894.065 241.267 889.032C226.16 885.408 214.694 873.148 203.218 862.471C191.338 851.419 177.041 841.282 161.071 841.075C151.553 840.953 142.049 843.439 133.644 848.275C119.708 856.287 107.231 866.903 95.9511 878.67C84.5868 890.521 72.3192 903.853 56.5409 905.38C43.2677 906.692 31.8633 898.834 20.9084 891.612C9.16139 883.862 -2.79918 873.322 -7.89844 860.831" stroke="white" stroke-opacity="0.6" stroke-width="0.25" stroke-miterlimit="10"></path><path d="M386.693 848.623C378.795 837.241 366.185 829.647 352.899 828.265C339.612 826.884 325.934 831.804 316.056 841.226C308.434 848.496 303.152 858.059 296.798 866.616C283.551 884.464 261.882 897.467 240.929 892.453C225.689 888.792 214.244 876.207 202.822 865.23C191.057 853.923 176.778 843.449 160.742 843.425C151.629 843.411 142.579 845.953 134.52 850.559C120.242 858.721 107.405 869.506 95.9112 881.602C84.4712 893.642 72.1814 907.406 56.1939 908.731C42.765 909.868 31.3561 901.447 20.4724 893.754C9.25936 885.827 -2.29629 875.329 -6.60352 862.843" stroke="white" stroke-opacity="0.6" stroke-width="0.25" stroke-miterlimit="10"></path><path d="M386.623 851.968C378.712 840.563 366.106 832.932 352.802 831.484C339.497 830.037 325.761 834.854 315.785 844.219C307.958 851.569 302.548 861.306 296.051 870.009C282.84 887.711 261.411 900.879 240.596 895.879C225.227 892.175 213.8 879.271 202.431 867.988C190.782 856.428 176.521 845.606 160.418 845.779C151.706 845.873 143.114 848.472 135.402 852.852C120.777 861.165 107.583 872.114 95.8765 884.539C84.3609 896.762 72.0488 910.963 55.8567 912.091C42.2675 913.059 30.8454 904.083 20.0462 895.907C9.35375 887.81 -1.78808 877.34 -5.29883 864.859" stroke="white" stroke-opacity="0.6" stroke-width="0.25" stroke-miterlimit="10"></path><path d="M386.546 855.314C378.621 843.886 366.02 836.216 352.694 834.698C339.367 833.185 325.573 837.899 315.508 847.203C307.477 854.628 301.937 864.544 295.298 873.392C282.123 890.949 260.934 904.281 240.252 899.295C224.754 895.55 213.345 882.326 202.03 870.737C190.492 858.923 176.249 847.739 160.088 848.12C151.78 848.312 143.642 850.972 136.278 855.131C121.305 863.585 107.751 874.708 95.8351 887.467C84.2439 899.878 71.9095 914.506 55.5083 915.437C41.7634 916.231 30.3057 906.72 19.6088 898.045C9.42362 889.783 -1.2866 879.342 -4.00977 866.865" stroke="white" stroke-opacity="0.6" stroke-width="0.25" stroke-miterlimit="10"></path><path d="M386.477 858.66C378.538 847.208 365.942 839.501 352.597 837.917C339.253 836.339 325.401 840.949 315.243 850.197C307.006 857.697 301.355 867.805 294.552 876.785C281.448 894.22 260.468 907.688 239.915 902.725C224.284 898.942 212.897 885.399 201.631 873.505C190.204 861.442 175.979 849.882 159.755 850.479C151.853 850.77 144.168 853.491 137.156 857.429C121.836 866.024 107.904 877.297 95.7966 890.408C84.1074 902.984 71.7731 918.068 55.1672 918.797C41.2621 919.422 29.7599 909.384 19.1787 900.197C9.49186 891.781 -0.777852 881.353 -2.70898 868.886" stroke="white" stroke-opacity="0.6" stroke-width="0.25" stroke-miterlimit="10"></path><path d="M386.405 862.001C378.453 850.531 365.861 842.777 352.494 841.132C339.128 839.483 325.218 843.994 314.971 853.181C306.525 860.756 300.75 871.043 293.804 880.169C280.731 897.453 259.996 911.09 239.576 906.142C223.816 902.317 212.425 888.477 201.234 876.254C189.901 863.956 175.711 851.987 159.43 852.819C151.928 853.204 144.702 855.991 138.036 859.704C122.365 868.43 108.081 879.892 95.7605 893.332C84.0002 906.1 71.6392 921.612 54.8285 922.143C40.7677 922.599 29.1943 912.049 18.751 902.335C9.54479 893.769 -0.266605 883.355 -1.41016 870.893" stroke="white" stroke-opacity="0.6" stroke-width="0.25" stroke-miterlimit="10"></path><path d="M386.333 865.347C378.373 853.853 365.78 846.061 352.396 844.351C339.012 842.636 325.026 847.025 314.703 856.17C306.04 863.801 300.144 874.281 293.06 883.562C280.014 900.691 259.533 914.502 239.242 909.572C223.353 905.709 211.984 891.541 200.842 879.022C189.629 866.466 175.444 854.097 159.105 855.183C152.003 855.653 145.226 858.505 138.917 862.006C122.872 870.831 108.263 882.514 95.7245 896.278C83.8929 909.239 71.5052 925.174 54.4854 925.508C40.2689 925.789 28.602 914.746 18.319 904.492C9.57993 895.775 0.235742 885.376 -0.111328 872.918" stroke="white" stroke-opacity="0.6" stroke-width="0.25" stroke-miterlimit="10"></path><path d="M386.261 868.693C378.287 857.175 365.699 849.346 352.292 847.565C338.886 845.784 324.856 850.084 314.431 859.158C305.567 866.874 299.538 877.523 292.307 886.95C279.287 903.928 259.055 917.904 238.898 912.993C222.875 909.088 211.533 894.591 200.436 881.776C189.339 868.961 175.162 856.17 158.77 857.528C152.069 858.082 145.755 861.019 139.788 864.29C123.404 873.27 108.431 885.117 95.6786 899.21C83.7759 912.359 71.3614 928.726 54.137 928.858C39.7603 928.971 27.9821 917.439 17.8815 906.635C9.59189 897.768 0.737159 887.377 1.18212 874.929" stroke="white" stroke-opacity="0.6" stroke-width="0.25" stroke-miterlimit="10"></path><path d="M1.01953 873.369C1.88721 880.742 7.734 888.205 13.9368 895.836C16.6065 899.121 19.4409 902.345 22.3376 905.202C30.6584 913.412 39.6244 922.406 50.2946 925.348C52.8264 926.048 55.4383 926.419 58.1437 926.377C75.0522 926.133 87.3554 910.338 99.1602 897.58C111.806 883.909 126.552 872.335 142.651 863.524C148.56 860.291 154.798 857.387 161.419 856.757C177.611 855.22 191.726 867.232 202.894 879.436C207.962 884.967 213.079 890.86 218.632 896.043C225.325 902.298 232.64 907.509 241.25 909.756C242.189 910 243.128 910.207 244.066 910.371C253.086 911.974 262.012 910.037 270.275 905.874C279.285 901.353 287.504 894.173 294.044 886.236C296.785 882.909 299.362 879.403 301.987 875.944C306.361 870.169 310.851 864.501 316.395 859.91C326.829 851.268 340.699 847.123 353.963 848.712C367.227 850.3 379.7 857.593 387.758 868.345" stroke="white" stroke-opacity="0.6" stroke-width="0.25" stroke-miterlimit="10"></path><path d="M0.853516 871.804C2.90479 877.833 10.349 885.056 17.3349 893.44C20.3517 897.058 23.4754 900.709 26.7903 903.764C35.1956 911.508 43.9347 920.23 54.4358 922.961C56.9231 923.609 59.4905 923.947 62.1425 923.891C78.7351 923.534 90.9271 908.318 102.634 895.949C115.173 882.697 129.692 871.4 145.506 862.758C151.353 859.567 157.524 856.687 164.061 855.986C180.053 854.266 194.1 865.498 205.344 877.091C210.457 882.345 215.61 887.984 221.176 892.998C227.868 899.046 235.135 904.163 243.593 906.522C244.514 906.781 245.44 907.002 246.361 907.185C255.211 908.952 263.924 907.411 272.071 903.679C280.961 899.638 289.162 892.97 295.778 885.521C298.546 882.396 301.167 879.097 303.823 875.831C308.26 870.38 312.807 865.014 318.356 860.653C328.799 852.448 342.508 848.453 355.626 849.849C368.743 851.245 381.104 858.002 389.247 867.988" stroke="white" stroke-opacity="0.6" stroke-width="0.25" stroke-miterlimit="10"></path><path d="M0.689453 870.244C3.91987 874.934 12.9659 881.908 20.7394 891.043C24.1033 894.995 27.5028 899.074 31.2494 902.326C39.6859 909.652 48.2558 918.055 58.5878 920.578C61.0307 921.18 63.5492 921.48 66.1522 921.405C82.4289 920.94 94.5051 906.297 106.119 894.314C118.546 881.48 132.843 870.46 148.368 861.987C154.152 858.834 160.253 855.986 166.705 855.211C182.496 853.312 196.477 863.764 207.797 874.746C212.949 879.722 218.147 885.103 223.722 889.948C230.414 895.785 237.631 900.813 245.943 903.28C246.851 903.548 247.754 903.783 248.658 903.985C257.334 905.916 265.833 904.751 273.865 901.471C282.63 897.895 290.818 891.757 297.514 884.798C300.313 881.879 302.97 878.783 305.666 875.709C310.16 870.582 314.765 865.521 320.323 861.391C330.775 853.623 344.324 849.779 357.299 850.982C370.274 852.185 382.52 858.407 390.743 867.631" stroke="white" stroke-opacity="0.6" stroke-width="0.25" stroke-miterlimit="10"></path><path d="M0.525391 868.684C4.93496 872.03 15.5829 878.764 24.1395 888.646C27.8505 892.932 31.5214 897.439 35.704 900.888C44.1361 907.833 52.5725 915.883 62.731 918.195C65.1338 918.745 67.6033 919.008 70.1485 918.919C86.1093 918.341 98.0743 904.276 109.59 892.683C121.911 880.267 135.981 869.52 151.22 861.221C156.947 858.106 162.976 855.286 169.344 854.44C184.935 852.363 198.849 862.03 210.245 872.406C215.442 877.105 220.675 882.232 226.263 886.908C232.955 892.533 240.128 897.472 248.284 900.051C249.174 900.333 250.064 900.582 250.95 900.803C259.457 902.899 267.743 902.124 275.654 899.285C284.3 896.184 292.469 890.564 299.241 884.093C302.067 881.376 304.768 878.486 307.5 875.606C312.056 870.803 316.719 866.043 322.281 862.147C332.742 854.816 346.127 851.123 358.964 852.133C371.797 853.143 383.926 858.829 392.234 867.288" stroke="white" stroke-opacity="0.6" stroke-width="0.25" stroke-miterlimit="10"></path><path d="M0.359375 867.124C5.94809 869.126 18.1979 875.615 27.5376 886.254C31.5957 890.874 35.5291 895.817 40.1567 899.455C48.5576 906.052 56.8873 913.712 66.8767 915.813C69.235 916.316 71.66 916.541 74.1518 916.438C89.7966 915.752 101.65 902.255 113.068 891.052C125.282 879.055 139.125 868.585 154.08 860.455C159.745 857.382 165.707 854.586 171.99 853.67C187.381 851.409 201.211 860.324 212.699 870.061C217.932 874.497 223.209 879.356 228.811 883.858C235.508 889.276 242.628 894.121 250.632 896.809C251.505 897.105 252.377 897.368 253.249 897.603C261.587 899.859 269.659 899.478 277.45 897.077C285.98 894.455 294.127 889.347 300.98 883.369C303.836 880.86 306.573 878.172 309.345 875.484C313.964 871.005 318.685 866.546 324.247 862.88C334.721 855.982 347.941 852.443 360.631 853.261C373.322 854.078 385.34 859.229 393.728 866.926" stroke="white" stroke-opacity="0.6" stroke-width="0.25" stroke-miterlimit="10"></path><path d="M0.201172 865.559C6.96904 866.217 20.8207 872.462 30.9436 883.853C35.3487 888.806 39.5358 894.196 44.6172 898.012C52.9692 904.281 61.2098 911.532 71.0257 913.426C73.3439 913.877 75.72 914.07 78.1584 913.947C93.4873 913.149 105.23 900.23 116.55 889.417C128.653 877.843 142.268 867.645 156.939 859.685C162.541 856.649 168.432 853.886 174.635 852.894C189.826 850.455 203.589 858.595 215.153 867.716C220.426 871.875 225.748 876.48 231.359 880.813C238.055 886.02 245.13 890.775 252.979 893.571C253.838 893.877 254.692 894.159 255.542 894.412C263.707 896.833 271.57 896.842 279.245 894.882C287.655 892.735 295.794 888.162 302.713 882.655C305.6 880.357 308.377 877.862 311.18 875.371C315.861 871.217 320.636 867.063 326.207 863.627C336.69 857.166 349.75 853.778 362.297 854.403C374.845 855.028 386.748 859.642 395.22 866.574" stroke="white" stroke-opacity="0.6" stroke-width="0.25" stroke-miterlimit="10"></path><path d="M0.0351562 863.999C7.98662 863.317 23.4357 869.318 34.3417 881.456C39.0939 886.743 43.5301 892.584 49.0699 896.574C57.3506 902.537 65.5246 909.361 75.1713 911.043C77.4451 911.447 79.7723 911.602 82.1617 911.461C97.1747 910.554 108.806 898.209 120.028 887.782C132.024 876.626 145.413 866.705 159.799 858.914C165.343 855.916 171.163 853.181 177.277 852.119C192.267 849.501 205.963 856.86 217.603 865.371C222.921 869.257 228.278 873.604 233.902 877.767C240.599 882.767 247.625 887.424 255.323 890.338C256.164 890.658 257.005 890.954 257.837 891.221C265.833 893.806 273.486 894.206 281.037 892.683C289.331 891.015 297.447 886.959 304.442 881.94C307.361 879.845 310.173 877.556 313.017 875.263C317.755 871.433 322.592 867.579 328.168 864.379C338.66 858.355 351.559 855.117 363.965 855.549C376.37 855.982 388.157 860.061 396.714 866.226" stroke="white" stroke-opacity="0.6" stroke-width="0.25" stroke-miterlimit="10"></path><path d="M-0.128906 862.438C9.0017 860.413 26.0526 866.17 37.7418 879.065C42.8455 884.685 47.5176 890.987 53.5245 895.141C61.7296 900.818 69.8413 907.19 79.3145 908.665C81.5438 909.018 83.8264 909.14 86.1625 908.98C100.86 907.96 112.38 896.189 123.499 886.156C135.384 875.418 148.551 865.775 162.647 858.153C168.129 855.197 173.882 852.49 179.911 851.348C194.702 848.552 208.331 855.136 220.047 863.031C225.404 866.64 230.811 870.719 236.439 874.722C243.145 879.497 250.113 884.079 257.664 887.1C258.487 887.429 259.31 887.739 260.129 888.031C267.951 890.78 275.4 891.569 282.827 890.488C291.005 889.3 299.099 885.756 306.174 881.226C309.124 879.337 311.976 877.251 314.855 875.15C319.656 871.644 324.551 868.092 330.126 865.122C340.627 859.534 353.362 856.447 365.625 856.687C377.888 856.926 389.559 860.469 398.201 865.874" stroke="white" stroke-opacity="0.6" stroke-width="0.25" stroke-miterlimit="10"></path><path d="M-0.292969 860.874C10.0168 857.504 28.6696 863.021 41.1418 876.663C46.5926 882.617 51.5005 889.384 57.9792 893.698C66.0953 899.098 74.158 905.009 83.4621 906.273C85.6513 906.579 87.8851 906.663 90.1677 906.49C104.549 905.362 115.953 894.163 126.979 884.516C138.757 874.196 151.697 864.83 165.509 857.377C170.928 854.459 176.61 851.781 182.559 850.568C197.15 847.589 210.712 853.397 222.504 860.676C227.906 864.013 233.352 867.829 238.989 871.668C245.7 876.231 252.619 880.723 260.014 883.853C260.824 884.196 261.629 884.52 262.43 884.826C270.083 887.735 277.318 888.919 284.629 888.275C292.687 887.566 300.763 884.539 307.914 880.498C310.891 878.816 313.783 876.931 316.702 875.023C321.565 871.842 326.513 868.595 332.098 865.855C342.608 860.7 355.182 857.767 367.303 857.814C379.424 857.861 390.979 860.869 399.705 865.507" stroke="white" stroke-opacity="0.6" stroke-width="0.25" stroke-miterlimit="10"></path><path d="M-0.458984 859.313C11.0299 854.6 31.2846 859.873 44.54 874.267C50.3378 880.554 55.4771 887.805 62.4319 892.26C70.4545 897.396 78.4727 902.838 87.6078 903.891C89.7525 904.145 91.9417 904.196 94.171 904.004C108.236 902.763 119.529 892.143 130.458 882.885C142.124 872.984 154.841 863.895 168.368 856.611C173.73 853.731 179.341 851.08 185.206 849.797C199.596 846.639 213.091 851.668 224.958 858.336C230.4 861.395 235.887 864.957 241.538 868.623C248.248 872.974 255.118 877.378 262.362 880.62C263.154 880.977 263.942 881.316 264.725 881.64C272.209 884.713 279.235 886.292 286.421 886.085C294.368 885.855 302.417 883.346 309.648 879.788C312.656 878.308 315.588 876.626 318.543 874.915C323.468 872.063 328.474 869.111 334.063 866.607C344.582 861.889 356.996 859.107 368.975 858.961C380.953 858.815 392.393 861.287 401.199 865.159" stroke="white" stroke-opacity="0.6" stroke-width="0.25" stroke-miterlimit="10"></path><path d="M-0.619141 857.753C12.0489 851.701 33.9054 856.729 47.9439 871.875C54.0889 878.496 59.4507 886.24 66.8904 890.827C74.8107 895.709 82.7933 900.667 91.7548 901.513C93.8595 901.72 95.9953 901.734 98.1757 901.522C111.925 900.169 123.107 890.127 133.937 881.254C145.497 871.776 157.987 862.96 171.225 855.85C176.524 853.012 182.064 850.39 187.849 849.031C202.039 845.695 215.472 849.943 227.41 856C232.897 858.782 238.419 862.091 244.083 865.587C250.793 869.732 257.614 874.041 264.707 877.392C265.481 877.758 266.255 878.115 267.021 878.458C274.331 881.696 281.153 883.67 288.214 883.895C296.046 884.149 304.068 882.147 311.379 879.083C314.414 877.81 317.386 876.33 320.376 874.812C325.364 872.284 330.428 869.638 336.021 867.359C346.549 863.078 358.803 860.446 370.639 860.108C382.475 859.769 393.799 861.705 402.689 864.816" stroke="white" stroke-opacity="0.6" stroke-width="0.25" stroke-miterlimit="10"></path><path d="M-0.783203 856.193C13.0684 848.796 36.5224 853.58 51.344 869.478C57.836 876.433 63.4158 884.68 71.345 889.389C79.163 894.032 87.11 898.491 95.9025 899.126C97.9626 899.281 100.054 899.262 102.181 899.032C115.614 897.57 126.685 888.097 137.417 879.619C148.866 870.559 161.134 862.02 174.087 855.079C179.328 852.279 184.797 849.685 190.492 848.256C204.482 844.736 217.849 848.204 229.863 853.651C235.393 856.16 240.955 859.205 246.629 862.532C253.339 866.466 260.115 870.686 267.057 874.144C267.818 874.525 268.574 874.896 269.322 875.253C276.463 878.656 283.076 881.024 290.017 881.682C297.733 882.415 305.733 880.93 313.119 878.35C316.185 877.279 319.197 876.005 322.223 874.685C327.269 872.481 332.391 870.136 337.988 868.092C348.529 864.248 360.619 861.766 372.308 861.235C384.002 860.704 395.215 862.105 404.185 864.45" stroke="white" stroke-opacity="0.6" stroke-width="0.25" stroke-miterlimit="10"></path><path d="M-0.947266 854.628C14.0835 845.888 39.1349 850.432 54.7486 867.077C61.5876 874.365 67.3766 883.134 75.8041 887.946C83.5198 892.354 91.4267 896.311 100.05 896.739C102.07 896.847 104.113 896.79 106.182 896.546C119.299 894.972 130.259 886.076 140.893 877.984C152.235 869.342 164.276 861.08 176.944 854.309C182.123 851.546 187.525 848.984 193.136 847.481C206.925 843.782 220.23 846.47 232.315 851.306C237.89 853.538 243.488 856.329 249.174 859.487C255.884 863.209 262.612 867.335 269.402 870.911C270.145 871.306 270.884 871.687 271.618 872.067C278.591 875.634 284.994 878.397 291.811 879.492C299.411 880.714 307.384 879.732 314.855 877.645C317.948 876.781 321 875.709 324.066 874.581C329.174 872.702 334.353 870.658 339.955 868.848C350.506 865.437 362.43 863.11 373.982 862.387C385.533 861.663 396.63 862.528 405.685 864.107" stroke="white" stroke-opacity="0.6" stroke-width="0.25" stroke-miterlimit="10"></path><path d="M-1.11133 853.068C15.0986 842.983 41.7518 847.283 58.1486 864.685C65.3348 872.307 71.3328 881.607 80.2588 886.513C87.8676 890.691 95.7434 894.145 104.198 894.361C106.173 894.417 108.171 894.328 110.187 894.065C122.984 892.382 133.832 884.06 144.373 876.358C155.604 868.134 167.422 860.15 179.801 853.547C184.918 850.822 190.249 848.289 195.78 846.715C209.369 842.838 222.611 844.741 234.767 848.97C240.387 850.925 246.02 853.463 251.725 856.452C258.435 859.967 265.114 863.999 271.752 867.683C272.482 868.087 273.203 868.486 273.915 868.881C280.714 872.608 286.912 875.775 293.604 877.298C301.089 879.003 309.04 878.529 316.587 876.931C319.71 876.268 322.803 875.399 325.904 874.469C331.075 872.913 336.312 871.174 341.918 869.591C352.477 866.616 364.242 864.44 375.651 863.524C387.055 862.608 398.041 862.937 407.181 863.754" stroke="white" stroke-opacity="0.6" stroke-width="0.25" stroke-miterlimit="10"></path><path d="M-1.27734 851.508C16.1117 840.084 44.3668 844.139 61.5468 862.288C69.08 870.244 75.2738 880.098 84.7115 885.075C92.2135 889.032 100.058 891.969 108.339 891.973C110.27 891.978 112.219 891.856 114.186 891.574C126.667 889.779 137.404 882.03 147.847 874.718C158.971 866.917 170.562 859.205 182.656 852.772C187.716 850.089 192.975 847.579 198.421 845.934C211.81 841.879 224.99 842.997 237.218 846.616C242.877 848.294 248.551 850.577 254.268 853.392C260.978 856.701 267.613 860.639 274.096 864.431C274.808 864.849 275.511 865.263 276.21 865.676C282.839 869.567 288.829 873.129 295.401 875.089C302.769 877.283 310.698 877.312 318.321 876.207C321.471 875.751 324.604 875.084 327.74 874.346C332.973 873.115 338.264 871.677 343.879 870.328C354.447 867.791 366.052 865.765 377.314 864.656C388.576 863.547 399.446 863.341 408.67 863.392" stroke="white" stroke-opacity="0.6" stroke-width="0.25" stroke-miterlimit="10"></path><path d="M-1.44336 849.948C17.1293 837.18 46.9818 840.991 64.9449 859.896C72.8251 868.186 79.2148 878.609 89.1641 883.642C96.5549 887.382 104.373 889.798 112.485 889.596C114.376 889.553 116.276 889.394 118.189 889.093C130.354 887.19 140.98 880.014 151.325 873.092C162.342 865.709 173.702 858.275 185.512 852.011C190.509 849.365 195.701 846.889 201.063 845.169C214.252 840.93 227.365 841.268 239.668 844.28C245.372 845.676 251.077 847.725 256.812 850.357C263.518 853.468 270.108 857.302 276.439 861.207C277.134 861.635 277.823 862.067 278.504 862.495C284.965 866.55 290.741 870.517 297.192 872.899C304.441 875.582 312.348 876.113 320.055 875.498C323.236 875.244 326.409 874.783 329.581 874.238C334.876 873.331 340.225 872.194 345.84 871.08C356.417 868.98 367.861 867.105 378.981 865.803C390.1 864.501 400.855 863.759 410.159 863.049" stroke="white" stroke-opacity="0.6" stroke-width="0.25" stroke-miterlimit="10"></path><path d="M-1.60352 848.383C18.1483 834.271 49.6026 837.842 68.3489 857.495C76.5762 866.118 83.1527 877.128 93.6227 882.199C100.911 885.728 108.694 887.622 116.632 887.208C118.478 887.114 120.334 886.922 122.194 886.607C134.043 884.591 144.557 877.993 154.805 871.456C165.711 864.492 176.848 857.335 188.373 851.24C193.307 848.632 198.429 846.184 203.706 844.393C216.695 839.976 229.745 839.529 242.12 841.935C247.869 843.054 253.613 844.844 259.357 847.307C266.063 850.211 272.608 853.951 278.789 857.965C279.47 858.406 280.137 858.848 280.8 859.299C287.087 863.519 292.654 867.885 298.986 870.7C306.118 873.872 314.003 874.887 321.786 874.783C324.994 874.727 328.206 874.478 331.419 874.125C336.772 873.543 342.183 872.711 347.802 871.823C358.388 870.155 369.668 868.435 380.649 866.94C391.627 865.446 402.266 864.168 411.654 862.692" stroke="white" stroke-opacity="0.6" stroke-width="0.25" stroke-miterlimit="10"></path><path d="M-1.76758 846.823C19.1634 831.367 52.2196 834.694 71.7489 855.098C80.3234 864.055 87.0823 875.672 98.0773 880.761C105.259 884.083 113.01 885.446 120.779 884.821C122.586 884.68 124.388 884.45 126.199 884.116C137.732 881.992 148.135 875.968 158.281 869.821C169.08 863.275 179.99 856.395 191.23 850.469C196.107 847.904 201.157 845.483 206.35 843.618C219.138 839.022 232.126 837.763 244.572 839.591C250.365 840.418 256.145 841.968 261.903 844.262C268.613 846.954 275.105 850.606 281.134 854.727C281.797 855.183 282.452 855.639 283.097 856.104C289.215 860.484 294.568 865.253 300.779 868.496C307.792 872.157 315.659 873.674 323.521 874.06C326.761 874.205 330.013 874.163 333.262 874.008C338.677 873.75 344.141 873.219 349.77 872.565C360.364 871.334 371.484 869.765 382.319 868.078C393.153 866.391 403.681 864.577 413.15 862.335" stroke="white" stroke-opacity="0.6" stroke-width="0.25" stroke-miterlimit="10"></path><path d="M-1.93164 845.263C20.1785 828.467 54.8365 831.55 75.149 852.706C84.0705 861.997 91.003 874.243 102.532 879.328C109.611 882.453 117.327 883.275 124.927 882.443C126.689 882.251 128.447 881.987 130.204 881.635C141.422 879.398 151.709 873.947 161.761 868.19C172.449 862.063 183.137 855.46 194.087 849.703C198.902 847.175 203.885 844.783 208.993 842.847C221.581 838.073 234.508 836.028 247.024 837.246C252.862 837.795 258.678 839.092 264.449 841.212C271.159 843.693 277.602 847.255 283.48 851.489C284.125 851.954 284.766 852.429 285.393 852.913C291.342 857.457 296.482 862.631 302.578 866.297C309.47 870.446 317.319 872.471 325.257 873.345C328.523 873.698 331.816 873.853 335.1 873.895C340.577 873.961 346.099 873.736 351.728 873.313C362.336 872.518 373.291 871.099 383.983 869.22C394.676 867.34 405.088 864.99 414.641 861.987" stroke="white" stroke-opacity="0.6" stroke-width="0.25" stroke-miterlimit="10"></path><path d="M-2.0957 843.698C21.1936 825.559 57.4535 828.397 78.5491 850.305C87.8177 859.929 94.9237 872.824 106.987 877.885C113.964 880.813 121.644 881.099 129.07 880.056C130.788 879.816 132.501 879.511 134.205 879.149C145.106 876.8 155.283 871.926 165.237 866.56C175.818 860.855 186.279 854.525 196.944 848.937C201.697 846.447 206.609 844.083 211.637 842.077C224.025 837.119 236.884 834.299 249.477 834.905C255.355 835.178 261.215 836.221 266.995 838.171C273.705 840.446 280.103 843.909 285.826 848.256C286.457 848.735 287.076 849.224 287.69 849.722C293.466 854.431 298.391 860.014 304.372 864.102C311.135 868.75 318.975 871.268 326.989 872.631C330.286 873.186 333.619 873.548 336.938 873.783C342.478 874.173 348.058 874.248 353.691 874.055C364.308 873.693 375.103 872.429 385.653 870.357C396.203 868.284 406.499 865.399 416.137 861.63" stroke="white" stroke-opacity="0.6" stroke-width="0.25" stroke-miterlimit="10"></path><path d="M-2.26172 842.137C22.2112 822.654 60.0685 825.248 81.9472 847.908C91.5673 857.866 98.8335 871.437 111.439 876.447C118.323 879.182 125.958 878.923 133.216 877.673C157.075 873.557 178.126 859.483 199.8 848.167C221.474 836.851 246.325 827.983 269.539 835.121C276.992 837.415 283.991 841.32 289.985 846.527C295.591 851.4 300.303 857.373 306.163 861.898C315.543 869.14 327.246 872.189 338.779 873.665C365.477 877.081 393.029 872.749 417.631 861.273" stroke="white" stroke-opacity="0.6" stroke-width="0.25" stroke-miterlimit="10"></path></g><defs><linearGradient id="paint0_linear_372_11828" x1="187.5" y1="0" x2="187.5" y2="866" gradientUnits="userSpaceOnUse"><stop stop-color="#1D6531"></stop><stop offset="1" stop-color="#439D55"></stop></linearGradient><linearGradient id="paint1_linear_372_11828" x1="187.5" y1="0" x2="187.5" y2="866" gradientUnits="userSpaceOnUse"><stop stop-color="#1D6531"></stop><stop offset="1" stop-color="#439D55"></stop></linearGradient></defs></svg>