<svg xmlns="http://www.w3.org/2000/svg" width="375" height="1306" viewBox="0 0 375 1306" fill="none"><rect width="375" height="1306" fill="url(#paint0_linear_372_11470)"></rect><mask id="mask0_372_11470" style="mask-type:alpha" maskUnits="userSpaceOnUse" x="0" y="0" width="375" height="1306"><rect width="375" height="1306" fill="url(#paint1_linear_372_11470)"></rect></mask><g mask="url(#mask0_372_11470)"><path d="M387.77 1238.45C380.059 1227.41 367.396 1220.41 354.412 1220.02C341.428 1219.62 328.404 1225.84 320.109 1236.4C315.428 1242.37 312.265 1249.48 308.011 1255.79C294.395 1275.99 268.93 1286.38 245.992 1281.11C232.71 1278.06 220.87 1270.42 208.776 1263.86C195.187 1256.5 180.801 1250.34 165.668 1248.17C150.535 1246 134.512 1248.06 121.345 1256.24C112.126 1261.96 104.713 1270.36 96.4941 1277.58C86.1042 1286.72 74.2327 1294.11 61.3466 1298.42C50.2804 1302.12 38.4266 1303.52 26.9644 1301.55C7.13249 1298.16 -9.86949 1285.21 -26.0527 1272.64" stroke="white" stroke-opacity="0.6" stroke-width="0.25" stroke-miterlimit="10"></path><path d="M387.699 1241.8C379.979 1230.73 367.316 1223.7 354.309 1223.24C341.303 1222.78 328.252 1228.93 319.838 1239.4C314.97 1245.46 311.66 1252.73 307.264 1259.19C293.679 1279.22 268.458 1289.79 245.654 1284.54C232.243 1281.45 220.425 1273.48 208.375 1266.63C194.906 1259 180.521 1252.58 165.334 1250.53C150.597 1248.53 135.046 1250.59 122.222 1258.53C112.664 1264.41 104.886 1272.97 96.4541 1280.53C85.9931 1289.85 74.0948 1297.66 60.9996 1301.78C49.7732 1305.31 37.9417 1305.99 26.5284 1303.71C7.27941 1299.87 -9.37104 1287.22 -24.7578 1274.65" stroke="white" stroke-opacity="0.6" stroke-width="0.25" stroke-miterlimit="10"></path><path d="M387.628 1245.14C379.895 1234.06 367.236 1226.98 354.212 1226.46C341.188 1225.93 328.106 1232.01 319.572 1242.39C314.512 1248.54 311.055 1255.97 306.521 1262.57C292.963 1282.46 267.992 1293.2 245.325 1287.96C231.781 1284.83 219.989 1276.53 207.989 1269.38C194.635 1261.5 180.259 1254.81 165.014 1252.87C150.673 1251.05 135.607 1253.14 123.108 1260.82C113.225 1266.88 105.087 1275.59 96.4234 1283.45C85.909 1293 73.9662 1301.21 60.6663 1305.13C49.2842 1308.49 37.4794 1308.45 26.1061 1305.85C7.44001 1301.59 -8.85448 1289.22 -23.4492 1276.66" stroke="white" stroke-opacity="0.6" stroke-width="0.25" stroke-miterlimit="10"></path><path d="M387.555 1248.49C379.809 1237.38 367.154 1230.26 354.108 1229.67C341.061 1229.08 327.948 1235.08 319.294 1245.37C314.048 1251.62 310.43 1259.2 305.763 1265.96C292.187 1285.66 267.514 1296.61 244.976 1291.39C231.303 1288.21 219.551 1279.55 207.582 1272.14C194.371 1263.96 179.977 1257.04 164.679 1255.23C150.734 1253.58 136.143 1255.69 123.978 1263.11C113.762 1269.35 105.263 1278.21 96.3772 1286.4C85.796 1296.14 73.8221 1304.77 60.313 1308.49C48.7752 1311.68 37.0015 1310.93 25.6639 1308C7.58509 1303.34 -8.35788 1291.24 -22.165 1278.67" stroke="white" stroke-opacity="0.6" stroke-width="0.25" stroke-miterlimit="10"></path><path d="M387.486 1251.83C379.726 1240.7 367.075 1233.54 354.011 1232.88C340.947 1232.23 327.799 1238.15 319.028 1248.36C313.591 1254.69 309.822 1262.43 305.021 1269.35C291.463 1288.89 267.048 1300.01 244.644 1294.81C230.842 1291.59 219.117 1282.6 207.187 1274.9C194.101 1266.45 179.711 1259.26 164.351 1257.57C150.806 1256.08 136.688 1258.22 124.856 1265.39C114.302 1271.79 105.447 1280.82 96.3386 1289.32C85.6907 1299.26 73.6856 1308.32 59.9719 1311.84C48.2738 1314.85 36.5402 1313.41 25.2337 1310.15C7.74677 1305.1 -7.84914 1293.24 -20.8643 1280.69" stroke="white" stroke-opacity="0.6" stroke-width="0.25" stroke-miterlimit="10"></path><path d="M387.415 1255.18C379.641 1244.02 366.995 1236.83 353.909 1236.1C340.823 1235.38 327.634 1241.22 318.757 1251.35C313.128 1257.77 309.213 1265.67 304.274 1272.74C290.738 1292.11 266.581 1303.42 244.306 1298.23C230.37 1294.97 218.681 1285.65 206.791 1277.65C193.83 1268.94 179.44 1261.48 164.026 1259.92C150.882 1258.59 137.231 1260.75 125.737 1267.68C114.849 1274.25 105.629 1283.43 96.3031 1292.26C85.5884 1302.4 73.5522 1311.87 59.6294 1315.19C47.7756 1318.04 36.082 1315.9 24.8022 1312.29C7.90703 1306.89 -7.34625 1295.25 -19.5693 1282.7" stroke="white" stroke-opacity="0.6" stroke-width="0.25" stroke-miterlimit="10"></path><path d="M387.339 1258.52C379.552 1247.34 366.911 1240.11 353.807 1239.32C340.703 1238.53 327.474 1244.28 318.486 1254.34C312.661 1260.86 308.603 1268.91 303.526 1276.13C290.013 1295.35 266.109 1306.83 243.968 1301.66C229.903 1298.36 218.24 1288.71 206.396 1280.42C193.558 1271.44 179.173 1263.71 163.697 1262.28C150.953 1261.1 137.769 1263.28 126.614 1269.98C115.392 1276.71 105.808 1286.05 96.2587 1295.2C85.4773 1305.53 73.4099 1315.43 59.2824 1318.55C47.2684 1321.23 35.6149 1318.4 24.3662 1314.44C8.0584 1308.7 -6.84335 1297.26 -18.2744 1284.72" stroke="white" stroke-opacity="0.6" stroke-width="0.25" stroke-miterlimit="10"></path><path d="M387.268 1261.86C379.472 1250.66 366.831 1243.39 353.704 1242.53C340.578 1241.68 327.305 1247.34 318.214 1257.32C312.194 1263.93 307.994 1272.14 302.774 1279.51C289.283 1298.57 265.633 1310.22 243.625 1305.07C229.431 1301.73 217.795 1291.75 205.995 1283.17C193.278 1273.92 178.901 1265.92 163.368 1264.62C151.024 1263.59 138.307 1265.8 127.495 1272.25C115.935 1279.15 105.994 1288.65 96.223 1298.12C85.3704 1308.65 73.2764 1318.98 58.9442 1321.9C46.7745 1324.4 35.161 1320.91 23.939 1316.58C8.22301 1310.53 -6.33168 1299.26 -16.9707 1286.73" stroke="white" stroke-opacity="0.6" stroke-width="0.25" stroke-miterlimit="10"></path><path d="M387.195 1265.21C379.386 1253.99 366.749 1246.67 353.605 1245.75C340.461 1244.83 327.143 1250.41 317.946 1260.31C311.73 1267.01 307.387 1275.38 302.03 1282.9C288.565 1301.81 265.169 1313.63 243.29 1308.5C228.967 1305.12 217.354 1294.8 205.598 1285.93C193.005 1276.42 178.633 1268.13 163.037 1266.97C151.094 1266.09 138.84 1268.33 128.37 1274.54C116.476 1281.61 106.167 1291.26 96.1817 1301.06C85.2579 1311.78 73.1371 1322.53 58.5958 1325.25C46.2703 1327.59 34.6969 1323.43 23.5017 1318.73C8.36853 1312.38 -5.83019 1301.27 -15.6816 1288.74" stroke="white" stroke-opacity="0.6" stroke-width="0.25" stroke-miterlimit="10"></path><path d="M387.125 1268.56C379.303 1257.31 366.67 1249.96 353.504 1248.97C340.337 1247.98 326.975 1253.47 317.676 1263.3C311.264 1270.08 306.778 1278.62 301.283 1286.29C287.845 1305.04 264.698 1317.04 242.958 1311.92C228.501 1308.51 216.918 1297.86 205.207 1288.69C192.735 1278.92 178.371 1270.34 162.713 1269.33C151.175 1268.58 139.379 1270.85 129.252 1276.84C117.02 1284.06 106.35 1293.88 96.147 1304C85.152 1314.91 73.0046 1326.09 58.2586 1328.61C45.7729 1330.78 34.244 1325.97 23.0755 1320.88C8.52521 1314.25 -5.32199 1303.28 -14.377 1290.76" stroke="white" stroke-opacity="0.6" stroke-width="0.25" stroke-miterlimit="10"></path><path d="M387.055 1271.9C379.219 1260.63 366.591 1253.24 353.407 1252.18C340.223 1251.13 326.807 1256.53 317.41 1266.29C310.797 1273.15 306.179 1281.86 300.541 1289.68C287.134 1308.27 264.237 1320.44 242.625 1315.34C228.039 1311.88 216.479 1300.91 204.816 1291.44C192.464 1281.41 178.114 1272.53 162.394 1271.67C151.256 1271.06 139.923 1273.37 130.139 1279.12C117.568 1286.51 106.538 1296.48 96.1168 1306.93C85.0506 1318.03 72.8765 1329.64 57.9213 1331.96C45.28 1333.96 33.7866 1328.51 22.6492 1323.03C8.673 1316.14 -4.80933 1305.29 -13.0723 1292.77" stroke="white" stroke-opacity="0.6" stroke-width="0.25" stroke-miterlimit="10"></path><path d="M386.979 1275.24C379.13 1263.95 366.506 1256.52 353.3 1255.4C340.093 1254.28 326.629 1259.59 317.133 1269.28C310.321 1276.23 305.564 1285.1 299.784 1293.06C286.404 1311.51 263.756 1323.84 242.278 1318.76C227.563 1315.26 216.029 1303.97 204.407 1294.2C192.175 1283.91 177.834 1274.73 162.051 1274.02C151.319 1273.54 140.444 1275.89 131.002 1281.4C118.089 1288.95 106.698 1299.08 96.0632 1309.86C84.9258 1321.15 72.725 1333.19 57.5651 1335.31C44.7636 1337.13 33.3058 1331.07 22.204 1325.16C8.79735 1318.04 -4.31566 1307.29 -11.791 1294.78" stroke="white" stroke-opacity="0.6" stroke-width="0.25" stroke-miterlimit="10"></path><path d="M386.906 1278.59C379.044 1267.27 366.425 1259.8 353.2 1258.62C339.976 1257.43 326.458 1262.65 316.865 1272.26C309.852 1279.29 304.962 1288.34 299.04 1296.46C285.691 1314.75 263.287 1327.26 241.942 1322.19C227.094 1318.65 215.587 1307.03 204.014 1296.96C191.897 1286.41 177.574 1276.93 161.729 1276.38C151.401 1276.02 140.985 1278.41 131.885 1283.7C118.635 1291.4 106.879 1301.7 96.0305 1312.8C84.8175 1324.28 72.5944 1336.75 57.2299 1338.67C44.2726 1340.32 32.8371 1333.65 21.7798 1327.32C8.93819 1319.97 -3.8055 1309.3 -10.4844 1296.8" stroke="white" stroke-opacity="0.6" stroke-width="0.25" stroke-miterlimit="10"></path><path d="M386.836 1281.94C378.964 1270.6 366.345 1263.09 353.099 1261.84C339.852 1260.59 326.285 1265.7 316.594 1275.26C309.381 1282.37 304.358 1291.58 298.293 1299.85C284.979 1317.99 262.82 1330.67 241.605 1325.62C226.627 1322.03 215.138 1310.09 203.618 1299.72C191.622 1288.92 177.312 1279.12 161.4 1278.74C151.478 1278.5 141.515 1280.93 132.767 1286C119.173 1293.86 107.057 1304.31 95.9954 1315.74C84.7067 1327.41 72.4614 1340.31 56.8878 1342.03C43.7703 1343.52 32.357 1336.24 21.3487 1329.47C9.05885 1321.92 -3.29773 1311.32 -9.18457 1298.82" stroke="white" stroke-opacity="0.6" stroke-width="0.25" stroke-miterlimit="10"></path><path d="M386.765 1285.28C378.88 1273.92 366.265 1266.37 353.001 1265.05C339.737 1263.74 326.112 1268.75 316.327 1278.24C308.91 1285.44 303.757 1294.82 297.545 1303.23C284.263 1321.23 262.349 1334.06 241.267 1329.03C226.16 1325.41 214.694 1313.15 203.218 1302.47C191.338 1291.42 177.041 1281.28 161.071 1281.08C151.553 1280.95 142.049 1283.44 133.644 1288.27C119.708 1296.29 107.231 1306.9 95.9511 1318.67C84.5868 1330.52 72.3192 1343.85 56.5409 1345.38C43.2677 1346.69 31.8633 1338.83 20.9084 1331.61C9.16139 1323.86 -2.79918 1313.32 -7.89844 1300.83" stroke="white" stroke-opacity="0.6" stroke-width="0.25" stroke-miterlimit="10"></path><path d="M386.694 1288.62C378.796 1277.24 366.186 1269.65 352.9 1268.27C339.613 1266.88 325.935 1271.8 316.057 1281.23C308.435 1288.5 303.153 1298.06 296.799 1306.62C283.552 1324.46 261.883 1337.47 240.93 1332.45C225.69 1328.79 214.245 1316.21 202.823 1305.23C191.058 1293.92 176.779 1283.45 160.743 1283.43C151.63 1283.41 142.58 1285.95 134.521 1290.56C120.243 1298.72 107.405 1309.51 95.9121 1321.6C84.4722 1333.64 72.1823 1347.41 56.1949 1348.73C42.7659 1349.87 31.3571 1341.45 20.4734 1333.75C9.26034 1325.83 -2.29531 1315.33 -6.60254 1302.84" stroke="white" stroke-opacity="0.6" stroke-width="0.25" stroke-miterlimit="10"></path><path d="M386.622 1291.97C378.711 1280.56 366.105 1272.93 352.801 1271.48C339.496 1270.04 325.76 1274.85 315.784 1284.22C307.957 1291.57 302.547 1301.31 296.05 1310.01C282.839 1327.71 261.41 1340.88 240.595 1335.88C225.226 1332.18 213.799 1319.27 202.43 1307.99C190.781 1296.43 176.52 1285.61 160.417 1285.78C151.705 1285.87 143.113 1288.47 135.401 1292.85C120.776 1301.16 107.582 1312.11 95.8755 1324.54C84.3599 1336.76 72.0478 1350.96 55.8557 1352.09C42.2666 1353.06 30.8444 1344.08 20.0452 1335.91C9.35277 1327.81 -1.78906 1317.34 -5.2998 1304.86" stroke="white" stroke-opacity="0.6" stroke-width="0.25" stroke-miterlimit="10"></path><path d="M386.546 1295.31C378.621 1283.89 366.02 1276.22 352.694 1274.7C339.367 1273.19 325.573 1277.9 315.508 1287.2C307.477 1294.63 301.937 1304.54 295.298 1313.39C282.123 1330.95 260.934 1344.28 240.252 1339.3C224.754 1335.55 213.345 1322.33 202.03 1310.74C190.492 1298.92 176.249 1287.74 160.088 1288.12C151.78 1288.31 143.642 1290.97 136.278 1295.13C121.305 1303.59 107.751 1314.71 95.8351 1327.47C84.2439 1339.88 71.9095 1354.51 55.5083 1355.44C41.7634 1356.23 30.3057 1346.72 19.6088 1338.05C9.42362 1329.78 -1.2866 1319.34 -4.00977 1306.87" stroke="white" stroke-opacity="0.6" stroke-width="0.25" stroke-miterlimit="10"></path><path d="M386.477 1298.66C378.538 1287.21 365.942 1279.5 352.597 1277.92C339.253 1276.34 325.401 1280.95 315.243 1290.2C307.006 1297.7 301.355 1307.81 294.552 1316.79C281.448 1334.22 260.468 1347.69 239.915 1342.73C224.284 1338.94 212.897 1325.4 201.631 1313.51C190.204 1301.44 175.979 1289.88 159.755 1290.48C151.853 1290.77 144.168 1293.49 137.156 1297.43C121.836 1306.02 107.904 1317.3 95.7966 1330.41C84.1074 1342.98 71.7731 1358.07 55.1672 1358.8C41.2621 1359.42 29.7599 1349.38 19.1787 1340.2C9.49186 1331.78 -0.777852 1321.35 -2.70898 1308.89" stroke="white" stroke-opacity="0.6" stroke-width="0.25" stroke-miterlimit="10"></path><path d="M386.404 1302C378.452 1290.53 365.86 1282.78 352.493 1281.13C339.127 1279.48 325.217 1283.99 314.97 1293.18C306.524 1300.76 300.749 1311.04 293.803 1320.17C280.73 1337.45 259.995 1351.09 239.576 1346.14C223.815 1342.32 212.424 1328.48 201.233 1316.25C189.9 1303.96 175.71 1291.99 159.429 1292.82C151.927 1293.2 144.701 1295.99 138.035 1299.7C122.364 1308.43 108.081 1319.89 95.7595 1333.33C83.9992 1346.1 71.6382 1361.61 54.8275 1362.14C40.7668 1362.6 29.1933 1352.05 18.7501 1342.34C9.54382 1333.77 -0.267582 1323.36 -1.41113 1310.89" stroke="white" stroke-opacity="0.6" stroke-width="0.25" stroke-miterlimit="10"></path><path d="M386.334 1305.35C378.374 1293.85 365.781 1286.06 352.397 1284.35C339.013 1282.64 325.027 1287.02 314.704 1296.17C306.041 1303.8 300.145 1314.28 293.061 1323.56C280.015 1340.69 259.534 1354.5 239.243 1349.57C223.354 1345.71 211.985 1331.54 200.843 1319.02C189.63 1306.47 175.445 1294.1 159.106 1295.18C152.004 1295.65 145.227 1298.51 138.918 1302.01C122.873 1310.83 108.264 1322.51 95.7254 1336.28C83.8939 1349.24 71.5062 1365.17 54.4864 1365.51C40.2699 1365.79 28.603 1354.75 18.32 1344.49C9.58091 1335.78 0.236718 1325.38 -0.110352 1312.92" stroke="white" stroke-opacity="0.6" stroke-width="0.25" stroke-miterlimit="10"></path><path d="M386.261 1308.69C378.287 1297.18 365.699 1289.35 352.292 1287.57C338.886 1285.78 324.856 1290.08 314.431 1299.16C305.567 1306.87 299.538 1317.52 292.307 1326.95C279.287 1343.93 259.055 1357.9 238.898 1352.99C222.875 1349.09 211.533 1334.59 200.436 1321.78C189.339 1308.96 175.162 1296.17 158.77 1297.53C152.069 1298.08 145.755 1301.02 139.788 1304.29C123.404 1313.27 108.431 1325.12 95.6786 1339.21C83.7759 1352.36 71.3614 1368.73 54.137 1368.86C39.7603 1368.97 27.9821 1357.44 17.8815 1346.64C9.59189 1337.77 0.737159 1327.38 1.18212 1314.93" stroke="white" stroke-opacity="0.6" stroke-width="0.25" stroke-miterlimit="10"></path><path d="M1.01855 1313.37C1.88623 1320.74 7.73302 1328.2 13.9358 1335.84C16.6056 1339.12 19.44 1342.34 22.3367 1345.2C30.6574 1353.41 39.6234 1362.41 50.2936 1365.35C52.8254 1366.05 55.4373 1366.42 58.1427 1366.38C75.0512 1366.13 87.3544 1350.34 99.1593 1337.58C111.805 1323.91 126.551 1312.34 142.65 1303.52C148.559 1300.29 154.797 1297.39 161.418 1296.76C177.61 1295.22 191.725 1307.23 202.893 1319.44C207.961 1324.97 213.078 1330.86 218.631 1336.04C225.324 1342.3 232.639 1347.51 241.249 1349.76C242.188 1350 243.127 1350.21 244.065 1350.37C253.085 1351.97 262.011 1350.04 270.274 1345.87C279.284 1341.35 287.503 1334.17 294.043 1326.24C296.784 1322.91 299.361 1319.4 301.986 1315.94C306.36 1310.17 310.85 1304.5 316.394 1299.91C326.828 1291.27 340.698 1287.12 353.962 1288.71C367.226 1290.3 379.699 1297.59 387.757 1308.35" stroke="white" stroke-opacity="0.6" stroke-width="0.25" stroke-miterlimit="10"></path><path d="M0.853516 1311.8C2.90479 1317.83 10.349 1325.06 17.3349 1333.44C20.3517 1337.06 23.4754 1340.71 26.7903 1343.76C35.1956 1351.51 43.9347 1360.23 54.4358 1362.96C56.9231 1363.61 59.4905 1363.95 62.1425 1363.89C78.7351 1363.53 90.9271 1348.32 102.634 1335.95C115.173 1322.7 129.692 1311.4 145.506 1302.76C151.353 1299.57 157.524 1296.69 164.061 1295.99C180.053 1294.27 194.1 1305.5 205.344 1317.09C210.457 1322.34 215.61 1327.98 221.176 1333C227.868 1339.05 235.135 1344.16 243.593 1346.52C244.514 1346.78 245.44 1347 246.361 1347.19C255.211 1348.95 263.924 1347.41 272.071 1343.68C280.961 1339.64 289.162 1332.97 295.778 1325.52C298.546 1322.4 301.167 1319.1 303.823 1315.83C308.26 1310.38 312.807 1305.01 318.356 1300.65C328.799 1292.45 342.508 1288.45 355.626 1289.85C368.743 1291.24 381.104 1298 389.247 1307.99" stroke="white" stroke-opacity="0.6" stroke-width="0.25" stroke-miterlimit="10"></path><path d="M0.69043 1310.24C3.92085 1314.93 12.9669 1321.91 20.7404 1331.04C24.1043 1335 27.5038 1339.07 31.2504 1342.33C39.6869 1349.65 48.2568 1358.05 58.5888 1360.58C61.0316 1361.18 63.5501 1361.48 66.1532 1361.41C82.4298 1360.94 94.5061 1346.3 106.12 1334.31C118.547 1321.48 132.844 1310.46 148.369 1301.99C154.153 1298.83 160.254 1295.99 166.706 1295.21C182.497 1293.31 196.478 1303.76 207.798 1314.75C212.95 1319.72 218.148 1325.1 223.723 1329.95C230.415 1335.78 237.632 1340.81 245.944 1343.28C246.852 1343.55 247.755 1343.78 248.659 1343.98C257.335 1345.92 265.834 1344.75 273.866 1341.47C282.631 1337.89 290.819 1331.76 297.515 1324.8C300.314 1321.88 302.971 1318.78 305.667 1315.71C310.161 1310.58 314.766 1305.52 320.324 1301.39C330.776 1293.62 344.325 1289.78 357.3 1290.98C370.275 1292.18 382.521 1298.41 390.744 1307.63" stroke="white" stroke-opacity="0.6" stroke-width="0.25" stroke-miterlimit="10"></path><path d="M0.525391 1308.68C4.93496 1312.03 15.5829 1318.76 24.1395 1328.65C27.8505 1332.93 31.5214 1337.44 35.704 1340.89C44.1361 1347.83 52.5725 1355.88 62.731 1358.2C65.1338 1358.75 67.6033 1359.01 70.1485 1358.92C86.1093 1358.34 98.0743 1344.28 109.59 1332.68C121.911 1320.27 135.981 1309.52 151.22 1301.22C156.947 1298.11 162.976 1295.29 169.344 1294.44C184.935 1292.36 198.849 1302.03 210.245 1312.41C215.442 1317.1 220.675 1322.23 226.263 1326.91C232.955 1332.53 240.128 1337.47 248.284 1340.05C249.174 1340.33 250.064 1340.58 250.95 1340.8C259.457 1342.9 267.743 1342.12 275.654 1339.29C284.3 1336.18 292.469 1330.56 299.241 1324.09C302.067 1321.38 304.768 1318.49 307.5 1315.61C312.056 1310.8 316.719 1306.04 322.281 1302.15C332.742 1294.82 346.127 1291.12 358.964 1292.13C371.797 1293.14 383.926 1298.83 392.234 1307.29" stroke="white" stroke-opacity="0.6" stroke-width="0.25" stroke-miterlimit="10"></path><path d="M0.359375 1307.12C5.94809 1309.13 18.1979 1315.62 27.5376 1326.25C31.5957 1330.87 35.5291 1335.82 40.1567 1339.45C48.5576 1346.05 56.8873 1353.71 66.8767 1355.81C69.235 1356.32 71.66 1356.54 74.1518 1356.44C89.7966 1355.75 101.65 1342.26 113.068 1331.05C125.282 1319.06 139.125 1308.59 154.08 1300.46C159.745 1297.38 165.707 1294.59 171.99 1293.67C187.381 1291.41 201.211 1300.32 212.699 1310.06C217.932 1314.5 223.209 1319.36 228.811 1323.86C235.508 1329.28 242.628 1334.12 250.632 1336.81C251.505 1337.11 252.377 1337.37 253.249 1337.6C261.587 1339.86 269.659 1339.48 277.45 1337.08C285.98 1334.45 294.127 1329.35 300.98 1323.37C303.836 1320.86 306.573 1318.17 309.345 1315.48C313.964 1311.01 318.685 1306.55 324.247 1302.88C334.721 1295.98 347.941 1292.44 360.631 1293.26C373.322 1294.08 385.34 1299.23 393.728 1306.93" stroke="white" stroke-opacity="0.6" stroke-width="0.25" stroke-miterlimit="10"></path><path d="M0.200195 1305.56C6.96806 1306.22 20.8197 1312.46 30.9426 1323.85C35.3477 1328.81 39.5348 1334.2 44.6162 1338.01C52.9682 1344.28 61.2089 1351.53 71.0247 1353.43C73.343 1353.88 75.7191 1354.07 78.1574 1353.95C93.4864 1353.15 105.229 1340.23 116.549 1329.42C128.652 1317.84 142.267 1307.65 156.938 1299.68C162.54 1296.65 168.431 1293.89 174.634 1292.89C189.825 1290.46 203.588 1298.59 215.152 1307.72C220.425 1311.87 225.747 1316.48 231.358 1320.81C238.054 1326.02 245.129 1330.78 252.978 1333.57C253.837 1333.88 254.691 1334.16 255.541 1334.41C263.706 1336.83 271.569 1336.84 279.244 1334.88C287.654 1332.73 295.793 1328.16 302.712 1322.65C305.599 1320.36 308.376 1317.86 311.179 1315.37C315.86 1311.22 320.635 1307.06 326.206 1303.63C336.689 1297.17 349.749 1293.78 362.296 1294.4C374.844 1295.03 386.747 1299.64 395.219 1306.57" stroke="white" stroke-opacity="0.6" stroke-width="0.25" stroke-miterlimit="10"></path><path d="M0.0351562 1304C7.98662 1303.32 23.4357 1309.32 34.3417 1321.46C39.0939 1326.74 43.5301 1332.58 49.0699 1336.57C57.3506 1342.54 65.5246 1349.36 75.1713 1351.04C77.4451 1351.45 79.7723 1351.6 82.1617 1351.46C97.1747 1350.55 108.806 1338.21 120.028 1327.78C132.024 1316.63 145.413 1306.71 159.799 1298.91C165.343 1295.92 171.163 1293.18 177.277 1292.12C192.267 1289.5 205.963 1296.86 217.603 1305.37C222.921 1309.26 228.278 1313.6 233.902 1317.77C240.599 1322.77 247.625 1327.42 255.323 1330.34C256.164 1330.66 257.005 1330.95 257.837 1331.22C265.833 1333.81 273.486 1334.21 281.037 1332.68C289.331 1331.01 297.447 1326.96 304.442 1321.94C307.361 1319.84 310.173 1317.56 313.017 1315.26C317.755 1311.43 322.592 1307.58 328.168 1304.38C338.66 1298.35 351.559 1295.12 363.965 1295.55C376.37 1295.98 388.157 1300.06 396.714 1306.23" stroke="white" stroke-opacity="0.6" stroke-width="0.25" stroke-miterlimit="10"></path><path d="M-0.128906 1302.44C9.0017 1300.41 26.0526 1306.17 37.7418 1319.06C42.8455 1324.68 47.5176 1330.99 53.5245 1335.14C61.7296 1340.82 69.8413 1347.19 79.3145 1348.67C81.5438 1349.02 83.8264 1349.14 86.1625 1348.98C100.86 1347.96 112.38 1336.19 123.499 1326.16C135.384 1315.42 148.551 1305.77 162.647 1298.15C168.129 1295.2 173.882 1292.49 179.911 1291.35C194.702 1288.55 208.331 1295.14 220.047 1303.03C225.404 1306.64 230.811 1310.72 236.439 1314.72C243.145 1319.5 250.113 1324.08 257.664 1327.1C258.487 1327.43 259.31 1327.74 260.129 1328.03C267.951 1330.78 275.4 1331.57 282.827 1330.49C291.005 1329.3 299.099 1325.76 306.174 1321.23C309.124 1319.34 311.976 1317.25 314.855 1315.15C319.656 1311.64 324.551 1308.09 330.126 1305.12C340.627 1299.53 353.362 1296.45 365.625 1296.69C377.888 1296.93 389.559 1300.47 398.201 1305.87" stroke="white" stroke-opacity="0.6" stroke-width="0.25" stroke-miterlimit="10"></path><path d="M-0.293945 1300.87C10.0158 1297.5 28.6686 1303.02 41.1409 1316.66C46.5916 1322.62 51.4996 1329.38 57.9782 1333.7C66.0943 1339.1 74.157 1345.01 83.4612 1346.27C85.6504 1346.58 87.8841 1346.66 90.1667 1346.49C104.548 1345.36 115.952 1334.16 126.978 1324.52C138.757 1314.2 151.696 1304.83 165.508 1297.38C170.927 1294.46 176.609 1291.78 182.559 1290.57C197.149 1287.59 210.711 1293.4 222.503 1300.68C227.905 1304.01 233.351 1307.83 238.989 1311.67C245.699 1316.23 252.618 1320.72 260.013 1323.85C260.823 1324.2 261.628 1324.52 262.429 1324.83C270.082 1327.73 277.317 1328.92 284.628 1328.28C292.686 1327.57 300.763 1324.54 307.913 1320.5C310.89 1318.82 313.782 1316.93 316.701 1315.02C321.564 1311.84 326.512 1308.59 332.097 1305.85C342.607 1300.7 355.181 1297.77 367.302 1297.81C379.423 1297.86 390.978 1300.87 399.704 1305.51" stroke="white" stroke-opacity="0.6" stroke-width="0.25" stroke-miterlimit="10"></path><path d="M-0.458984 1299.31C11.0299 1294.6 31.2846 1299.87 44.54 1314.27C50.3378 1320.55 55.4771 1327.81 62.4319 1332.26C70.4545 1337.4 78.4727 1342.84 87.6078 1343.89C89.7525 1344.14 91.9417 1344.2 94.171 1344C108.236 1342.76 119.529 1332.14 130.458 1322.89C142.124 1312.98 154.841 1303.9 168.368 1296.61C173.73 1293.73 179.341 1291.08 185.206 1289.8C199.596 1286.64 213.091 1291.67 224.958 1298.34C230.4 1301.4 235.887 1304.96 241.538 1308.62C248.248 1312.97 255.118 1317.38 262.362 1320.62C263.154 1320.98 263.942 1321.32 264.725 1321.64C272.209 1324.71 279.235 1326.29 286.421 1326.09C294.368 1325.86 302.417 1323.35 309.648 1319.79C312.656 1318.31 315.588 1316.63 318.543 1314.92C323.468 1312.06 328.474 1309.11 334.063 1306.61C344.582 1301.89 356.996 1299.11 368.975 1298.96C380.953 1298.82 392.393 1301.29 401.199 1305.16" stroke="white" stroke-opacity="0.6" stroke-width="0.25" stroke-miterlimit="10"></path><path d="M-0.618164 1297.75C12.0499 1291.7 33.9064 1296.73 47.9449 1311.87C54.0898 1318.5 59.4516 1326.24 66.8914 1330.83C74.8117 1335.71 82.7943 1340.67 91.7558 1341.51C93.8605 1341.72 95.9963 1341.73 98.1766 1341.52C111.926 1340.17 123.108 1330.13 133.938 1321.25C145.498 1311.78 157.988 1302.96 171.226 1295.85C176.525 1293.01 182.065 1290.39 187.85 1289.03C202.04 1285.69 215.473 1289.94 227.411 1296C232.898 1298.78 238.42 1302.09 244.084 1305.59C250.794 1309.73 257.615 1314.04 264.708 1317.39C265.482 1317.76 266.256 1318.12 267.022 1318.46C274.332 1321.7 281.154 1323.67 288.215 1323.9C296.047 1324.15 304.069 1322.15 311.38 1319.08C314.415 1317.81 317.387 1316.33 320.377 1314.81C325.365 1312.28 330.429 1309.64 336.022 1307.36C346.55 1303.08 358.804 1300.45 370.64 1300.11C382.476 1299.77 393.8 1301.71 402.69 1304.82" stroke="white" stroke-opacity="0.6" stroke-width="0.25" stroke-miterlimit="10"></path><path d="M-0.783203 1296.19C13.0684 1288.8 36.5224 1293.58 51.344 1309.48C57.836 1316.43 63.4158 1324.68 71.345 1329.39C79.163 1334.03 87.11 1338.49 95.9025 1339.13C97.9626 1339.28 100.054 1339.26 102.181 1339.03C115.614 1337.57 126.685 1328.1 137.417 1319.62C148.866 1310.56 161.134 1302.02 174.087 1295.08C179.328 1292.28 184.797 1289.68 190.492 1288.26C204.482 1284.74 217.849 1288.2 229.863 1293.65C235.393 1296.16 240.955 1299.21 246.629 1302.53C253.339 1306.47 260.115 1310.69 267.057 1314.14C267.818 1314.53 268.574 1314.9 269.322 1315.25C276.463 1318.66 283.076 1321.02 290.017 1321.68C297.733 1322.42 305.733 1320.93 313.119 1318.35C316.185 1317.28 319.197 1316.01 322.223 1314.68C327.269 1312.48 332.391 1310.14 337.988 1308.09C348.529 1304.25 360.619 1301.77 372.308 1301.24C384.002 1300.7 395.215 1302.1 404.185 1304.45" stroke="white" stroke-opacity="0.6" stroke-width="0.25" stroke-miterlimit="10"></path><path d="M-0.947266 1294.63C14.0835 1285.89 39.1349 1290.43 54.7486 1307.08C61.5876 1314.37 67.3766 1323.13 75.8041 1327.95C83.5198 1332.35 91.4267 1336.31 100.05 1336.74C102.07 1336.85 104.113 1336.79 106.182 1336.55C119.299 1334.97 130.259 1326.08 140.893 1317.98C152.235 1309.34 164.276 1301.08 176.944 1294.31C182.123 1291.55 187.525 1288.98 193.136 1287.48C206.925 1283.78 220.23 1286.47 232.315 1291.31C237.89 1293.54 243.488 1296.33 249.174 1299.49C255.884 1303.21 262.612 1307.34 269.402 1310.91C270.145 1311.31 270.884 1311.69 271.618 1312.07C278.591 1315.63 284.994 1318.4 291.811 1319.49C299.411 1320.71 307.384 1319.73 314.855 1317.65C317.948 1316.78 321 1315.71 324.066 1314.58C329.174 1312.7 334.353 1310.66 339.955 1308.85C350.506 1305.44 362.43 1303.11 373.982 1302.39C385.533 1301.66 396.63 1302.53 405.685 1304.11" stroke="white" stroke-opacity="0.6" stroke-width="0.25" stroke-miterlimit="10"></path><path d="M-1.1123 1293.07C15.0976 1282.98 41.7508 1287.28 58.1477 1304.68C65.3338 1312.31 71.3319 1321.61 80.2578 1326.51C87.8666 1330.69 95.7425 1334.14 104.197 1334.36C106.172 1334.42 108.17 1334.33 110.186 1334.06C122.983 1332.38 133.831 1324.06 144.372 1316.36C155.603 1308.13 167.421 1300.15 179.8 1293.55C184.917 1290.82 190.248 1288.29 195.779 1286.71C209.368 1282.84 222.61 1284.74 234.766 1288.97C240.386 1290.93 246.019 1293.46 251.724 1296.45C258.434 1299.97 265.113 1304 271.751 1307.68C272.481 1308.09 273.202 1308.49 273.914 1308.88C280.713 1312.61 286.911 1315.78 293.603 1317.3C301.088 1319 309.039 1318.53 316.586 1316.93C319.709 1316.27 322.802 1315.4 325.903 1314.47C331.074 1312.91 336.311 1311.17 341.917 1309.59C352.476 1306.62 364.241 1304.44 375.65 1303.52C387.054 1302.61 398.04 1302.94 407.18 1303.75" stroke="white" stroke-opacity="0.6" stroke-width="0.25" stroke-miterlimit="10"></path><path d="M-1.27734 1291.51C16.1117 1280.08 44.3668 1284.14 61.5468 1302.29C69.08 1310.24 75.2738 1320.1 84.7115 1325.07C92.2135 1329.03 100.058 1331.97 108.339 1331.97C110.27 1331.98 112.219 1331.86 114.186 1331.57C126.667 1329.78 137.404 1322.03 147.847 1314.72C158.971 1306.92 170.562 1299.21 182.656 1292.77C187.716 1290.09 192.975 1287.58 198.421 1285.93C211.81 1281.88 224.99 1283 237.218 1286.62C242.877 1288.29 248.551 1290.58 254.268 1293.39C260.978 1296.7 267.613 1300.64 274.096 1304.43C274.808 1304.85 275.511 1305.26 276.21 1305.68C282.839 1309.57 288.829 1313.13 295.401 1315.09C302.769 1317.28 310.698 1317.31 318.321 1316.21C321.471 1315.75 324.604 1315.08 327.74 1314.35C332.973 1313.12 338.264 1311.68 343.879 1310.33C354.447 1307.79 366.052 1305.77 377.314 1304.66C388.576 1303.55 399.446 1303.34 408.67 1303.39" stroke="white" stroke-opacity="0.6" stroke-width="0.25" stroke-miterlimit="10"></path><path d="M-1.44238 1289.95C17.1303 1277.18 46.9828 1280.99 64.9459 1299.9C72.8261 1308.19 79.2158 1318.61 89.1651 1323.64C96.5559 1327.38 104.374 1329.8 112.486 1329.6C114.377 1329.55 116.277 1329.39 118.19 1329.09C130.355 1327.19 140.981 1320.01 151.326 1313.09C162.343 1305.71 173.703 1298.27 185.513 1292.01C190.51 1289.37 195.702 1286.89 201.064 1285.17C214.253 1280.93 227.366 1281.27 239.669 1284.28C245.373 1285.68 251.078 1287.72 256.813 1290.36C263.519 1293.47 270.109 1297.3 276.44 1301.21C277.135 1301.63 277.824 1302.07 278.505 1302.49C284.966 1306.55 290.742 1310.52 297.193 1312.9C304.442 1315.58 312.349 1316.11 320.056 1315.5C323.237 1315.24 326.41 1314.78 329.582 1314.24C334.877 1313.33 340.226 1312.19 345.841 1311.08C356.418 1308.98 367.862 1307.1 378.982 1305.8C390.101 1304.5 400.856 1303.76 410.16 1303.05" stroke="white" stroke-opacity="0.6" stroke-width="0.25" stroke-miterlimit="10"></path><path d="M-1.60254 1288.38C18.1493 1274.27 49.6036 1277.84 68.3498 1297.49C76.5772 1306.12 83.1537 1317.13 93.6236 1322.2C100.912 1325.73 108.694 1327.62 116.633 1327.21C118.479 1327.11 120.335 1326.92 122.195 1326.61C134.044 1324.59 144.558 1317.99 154.806 1311.46C165.712 1304.49 176.849 1297.34 188.374 1291.24C193.308 1288.63 198.43 1286.18 203.707 1284.39C216.696 1279.98 229.746 1279.53 242.121 1281.94C247.87 1283.05 253.614 1284.84 259.358 1287.31C266.064 1290.21 272.609 1293.95 278.79 1297.96C279.471 1298.41 280.138 1298.85 280.801 1299.3C287.088 1303.52 292.655 1307.89 298.987 1310.7C306.119 1313.87 314.004 1314.89 321.786 1314.78C324.995 1314.73 328.207 1314.48 331.42 1314.13C336.773 1313.54 342.184 1312.71 347.803 1311.82C358.389 1310.15 369.669 1308.43 380.65 1306.94C391.628 1305.45 402.267 1304.17 411.655 1302.69" stroke="white" stroke-opacity="0.6" stroke-width="0.25" stroke-miterlimit="10"></path><path d="M-1.76758 1286.82C19.1634 1271.37 52.2196 1274.69 71.7489 1295.1C80.3234 1304.06 87.0823 1315.67 98.0773 1320.76C105.259 1324.08 113.01 1325.45 120.779 1324.82C122.586 1324.68 124.388 1324.45 126.199 1324.12C137.732 1321.99 148.135 1315.97 158.281 1309.82C169.08 1303.27 179.99 1296.4 191.23 1290.47C196.107 1287.9 201.157 1285.48 206.35 1283.62C219.138 1279.02 232.126 1277.76 244.572 1279.59C250.365 1280.42 256.145 1281.97 261.903 1284.26C268.613 1286.95 275.105 1290.61 281.134 1294.73C281.797 1295.18 282.452 1295.64 283.097 1296.1C289.215 1300.48 294.568 1305.25 300.779 1308.5C307.792 1312.16 315.659 1313.67 323.521 1314.06C326.761 1314.21 330.013 1314.16 333.262 1314.01C338.677 1313.75 344.141 1313.22 349.77 1312.57C360.364 1311.33 371.484 1309.76 382.319 1308.08C393.153 1306.39 403.681 1304.58 413.15 1302.34" stroke="white" stroke-opacity="0.6" stroke-width="0.25" stroke-miterlimit="10"></path><path d="M-1.93066 1285.26C20.1795 1268.47 54.8375 1271.55 75.15 1292.71C84.0715 1302 91.004 1314.24 102.533 1319.33C109.612 1322.45 117.328 1323.28 124.928 1322.44C126.69 1322.25 128.447 1321.99 130.205 1321.64C141.423 1319.4 151.71 1313.95 161.762 1308.19C172.45 1302.06 183.138 1295.46 194.088 1289.7C198.903 1287.18 203.886 1284.78 208.994 1282.85C221.582 1278.07 234.509 1276.03 247.025 1277.25C252.863 1277.8 258.679 1279.09 264.45 1281.21C271.16 1283.69 277.603 1287.26 283.481 1291.49C284.126 1291.95 284.767 1292.43 285.394 1292.91C291.343 1297.46 296.483 1302.63 302.579 1306.3C309.471 1310.45 317.32 1312.47 325.258 1313.35C328.524 1313.7 331.817 1313.85 335.101 1313.9C340.578 1313.96 346.1 1313.74 351.729 1313.31C362.337 1312.52 373.292 1311.1 383.984 1309.22C394.677 1307.34 405.089 1304.99 414.642 1301.99" stroke="white" stroke-opacity="0.6" stroke-width="0.25" stroke-miterlimit="10"></path><path d="M-2.0957 1283.7C21.1936 1265.56 57.4535 1268.4 78.5491 1290.3C87.8177 1299.93 94.9237 1312.82 106.987 1317.89C113.964 1320.81 121.644 1321.1 129.07 1320.06C130.788 1319.82 132.501 1319.51 134.205 1319.15C145.106 1316.8 155.283 1311.93 165.237 1306.56C175.818 1300.85 186.279 1294.52 196.944 1288.94C201.697 1286.45 206.609 1284.08 211.637 1282.08C224.025 1277.12 236.884 1274.3 249.477 1274.91C255.355 1275.18 261.215 1276.22 266.995 1278.17C273.705 1280.45 280.103 1283.91 285.826 1288.26C286.457 1288.74 287.076 1289.22 287.69 1289.72C293.466 1294.43 298.391 1300.01 304.372 1304.1C311.135 1308.75 318.975 1311.27 326.989 1312.63C330.286 1313.19 333.619 1313.55 336.938 1313.78C342.478 1314.17 348.058 1314.25 353.691 1314.06C364.308 1313.69 375.103 1312.43 385.653 1310.36C396.203 1308.28 406.499 1305.4 416.137 1301.63" stroke="white" stroke-opacity="0.6" stroke-width="0.25" stroke-miterlimit="10"></path><path d="M-2.26074 1282.14C22.2121 1262.65 60.0695 1265.25 81.9482 1287.91C91.5683 1297.87 98.8345 1311.44 111.44 1316.45C118.324 1319.18 125.959 1318.92 133.217 1317.67C157.076 1313.56 178.127 1299.48 199.801 1288.17C221.475 1276.85 246.326 1267.98 269.54 1275.12C276.993 1277.41 283.992 1281.32 289.986 1286.53C295.592 1291.4 300.304 1297.37 306.164 1301.9C315.544 1309.14 327.247 1312.19 338.78 1313.67C365.478 1317.08 393.03 1312.75 417.632 1301.27" stroke="white" stroke-opacity="0.6" stroke-width="0.25" stroke-miterlimit="10"></path></g><defs><linearGradient id="paint0_linear_372_11470" x1="187.5" y1="0" x2="187.5" y2="1306" gradientUnits="userSpaceOnUse"><stop stop-color="#1D6531"></stop><stop offset="1" stop-color="#439D55"></stop></linearGradient><linearGradient id="paint1_linear_372_11470" x1="187.5" y1="0" x2="187.5" y2="1306" gradientUnits="userSpaceOnUse"><stop stop-color="#1D6531"></stop><stop offset="1" stop-color="#439D55"></stop></linearGradient></defs></svg>