<svg xmlns="http://www.w3.org/2000/svg" width="375" height="879" viewBox="0 0 375 879" fill="none"><rect width="375" height="879" fill="url(#paint0_linear_372_11009)"></rect><mask id="mask0_372_11009" style="mask-type:alpha" maskUnits="userSpaceOnUse" x="0" y="0" width="375" height="879"><rect width="375" height="879" fill="url(#paint1_linear_372_11009)"></rect></mask><g mask="url(#mask0_372_11009)"><path d="M387.77 811.453C380.059 800.41 367.396 793.412 354.412 793.018C341.428 792.623 328.404 798.845 320.109 809.404C315.428 815.368 312.265 822.482 308.011 828.793C294.395 848.986 268.93 859.381 245.992 854.113C232.71 851.059 220.87 843.418 208.776 836.862C195.187 829.498 180.801 823.342 165.668 821.171C150.535 819 134.512 821.063 121.345 829.24C112.126 834.964 104.713 843.356 96.4941 850.584C86.1042 859.724 74.2327 867.107 61.3466 871.416C50.2804 875.119 38.4266 876.519 26.9644 874.555C7.13249 871.162 -9.86949 858.211 -26.0527 845.636" stroke="white" stroke-opacity="0.6" stroke-width="0.25" stroke-miterlimit="10"></path><path d="M387.7 814.799C379.98 803.732 367.316 796.697 354.31 796.237C341.304 795.776 328.253 801.928 319.839 812.398C314.971 818.455 311.66 825.73 307.264 832.186C293.679 852.224 268.459 862.793 245.655 857.539C232.244 854.447 220.425 846.477 208.376 839.625C194.907 832.003 180.521 825.579 165.335 823.526C150.598 821.533 135.046 823.591 122.222 831.533C112.665 837.412 104.887 845.969 96.4546 853.526C85.9936 862.854 74.0953 870.664 61.0001 874.781C49.7737 878.315 37.9422 878.991 26.5289 876.712C7.2799 872.873 -9.37056 860.222 -24.7573 847.652" stroke="white" stroke-opacity="0.6" stroke-width="0.25" stroke-miterlimit="10"></path><path d="M387.628 818.145C379.895 807.059 367.236 799.977 354.212 799.456C341.188 798.929 328.106 805.006 319.572 815.386C314.512 821.538 311.055 828.967 306.521 835.574C292.963 855.462 267.992 866.2 245.325 860.96C231.781 857.825 219.989 849.531 207.989 842.379C194.635 834.498 180.259 827.806 165.014 825.87C150.673 824.052 135.607 826.143 123.108 833.817C113.225 839.884 105.087 848.591 96.4234 856.453C85.909 865.998 73.9662 874.212 60.6663 878.126C49.2842 881.486 37.4794 881.449 26.1061 878.85C7.44001 874.588 -8.85448 862.219 -23.4492 849.658" stroke="white" stroke-opacity="0.6" stroke-width="0.25" stroke-miterlimit="10"></path><path d="M387.556 821.486C379.809 810.377 367.155 803.257 354.108 802.67C341.062 802.078 327.949 808.079 319.294 818.375C314.048 824.62 310.431 832.196 305.763 838.963C292.187 858.662 267.514 869.607 244.977 864.386C231.303 861.209 219.552 852.553 207.582 845.142C194.372 836.961 179.977 830.039 164.679 828.229C150.734 826.58 136.144 828.69 123.979 836.11C113.762 842.346 105.264 851.209 96.3776 859.395C85.7965 869.137 73.8225 877.774 60.3135 881.486C48.7757 884.677 37.002 883.93 25.6644 881.002C7.58558 876.341 -8.3574 864.235 -22.1646 851.674" stroke="white" stroke-opacity="0.6" stroke-width="0.25" stroke-miterlimit="10"></path><path d="M387.485 824.832C379.725 813.699 367.075 806.542 354.011 805.884C340.947 805.226 327.798 811.148 319.028 821.359C313.591 827.694 309.822 835.429 305.021 842.351C291.463 861.886 267.048 873.009 244.644 867.807C230.841 864.592 219.116 855.598 207.187 847.896C194.101 839.447 179.711 832.261 164.35 830.574C150.806 829.085 136.687 831.218 124.856 838.394C114.301 844.794 105.446 853.822 96.3381 862.323C85.6902 872.262 73.6851 881.317 59.9714 884.837C48.2734 887.854 36.5397 886.407 25.2333 883.145C7.74628 878.103 -7.84962 866.242 -20.8647 853.685" stroke="white" stroke-opacity="0.6" stroke-width="0.25" stroke-miterlimit="10"></path><path d="M387.415 828.178C379.641 817.022 366.995 809.827 353.909 809.103C340.823 808.38 327.634 814.216 318.757 824.348C313.128 830.772 309.213 838.666 304.274 845.739C290.738 865.114 266.581 876.416 244.306 871.228C230.37 867.971 218.681 858.648 206.791 850.654C193.83 841.937 179.44 834.484 164.026 832.924C150.882 831.594 137.231 833.746 125.737 840.682C114.849 847.252 105.629 856.434 96.3031 865.26C85.5884 875.396 73.5522 884.874 59.6294 888.192C47.7756 891.04 36.082 888.902 24.8022 885.293C7.90703 879.889 -7.34625 868.248 -19.5693 855.701" stroke="white" stroke-opacity="0.6" stroke-width="0.25" stroke-miterlimit="10"></path><path d="M387.339 831.524C379.552 820.344 366.911 813.107 353.807 812.322C340.703 811.533 327.474 817.285 318.486 827.341C312.661 833.859 308.603 841.909 303.526 849.132C290.013 868.352 266.109 879.828 243.968 874.658C229.903 871.364 218.24 861.707 206.396 853.418C193.558 844.437 179.173 836.707 163.697 835.278C150.953 834.104 137.769 836.279 126.614 842.976C115.392 849.71 105.808 859.052 96.2587 868.197C85.4773 878.526 73.4099 888.432 59.2824 891.548C47.2684 894.226 35.6149 891.402 24.3662 887.441C8.0584 881.703 -6.84335 870.26 -18.2744 857.718" stroke="white" stroke-opacity="0.6" stroke-width="0.25" stroke-miterlimit="10"></path><path d="M387.268 834.865C379.472 823.662 366.831 816.387 353.704 815.532C340.578 814.677 327.305 820.344 318.214 830.321C312.194 836.928 307.994 845.138 302.774 852.511C289.283 871.571 265.633 883.221 243.625 878.07C229.431 874.734 217.795 864.748 205.995 856.167C193.278 846.919 178.901 838.916 163.368 837.623C151.024 836.594 138.307 838.803 127.495 845.255C115.935 852.154 105.994 861.651 96.223 871.125C85.3704 881.646 73.2764 891.975 58.9442 894.898C46.7745 897.403 35.161 893.911 23.939 889.583C8.22301 883.526 -6.33168 872.262 -16.9707 859.729" stroke="white" stroke-opacity="0.6" stroke-width="0.25" stroke-miterlimit="10"></path><path d="M387.195 838.211C379.386 826.989 366.749 819.672 353.605 818.751C340.461 817.83 327.143 823.413 317.946 833.314C311.73 840.006 307.387 848.38 302.03 855.903C288.565 874.809 265.169 886.632 243.29 881.496C228.967 878.117 217.354 867.802 205.598 858.925C193.005 849.418 178.633 841.129 163.037 839.973C151.094 839.089 138.84 841.326 128.37 847.543C116.476 854.606 106.167 864.264 96.1817 874.062C85.2579 884.776 73.1371 895.533 58.5958 898.253C46.2703 900.589 34.6969 896.435 23.5017 891.731C8.36853 885.377 -5.83019 874.273 -15.6816 861.745" stroke="white" stroke-opacity="0.6" stroke-width="0.25" stroke-miterlimit="10"></path><path d="M387.125 841.557C379.302 830.311 366.67 822.957 353.503 821.97C340.337 820.983 326.975 826.472 317.675 836.303C311.263 843.084 306.778 851.622 301.283 859.292C287.845 878.042 264.698 890.039 242.957 884.922C228.5 881.505 216.918 870.861 205.207 861.688C192.734 851.918 178.371 843.338 162.713 842.327C151.175 841.585 139.379 843.855 129.252 849.837C117.02 857.064 106.35 866.876 96.1465 876.999C85.1515 887.906 73.0041 899.09 58.2581 901.609C45.7724 903.775 34.2435 898.968 23.075 893.878C8.52473 887.248 -5.32248 876.28 -14.3774 863.761" stroke="white" stroke-opacity="0.6" stroke-width="0.25" stroke-miterlimit="10"></path><path d="M387.055 844.902C379.219 833.633 366.591 826.242 353.407 825.184C340.223 824.127 326.807 829.531 317.41 839.287C310.797 846.152 306.179 854.855 300.541 862.675C287.134 881.275 264.237 893.441 242.625 888.338C228.039 884.879 216.479 873.911 204.816 864.437C192.464 854.409 178.114 845.532 162.394 844.672C151.256 844.061 139.923 846.369 130.139 852.12C117.568 859.508 106.538 869.48 96.1168 879.931C85.0506 891.031 72.8765 902.638 57.9213 904.964C45.28 906.956 33.7866 901.515 22.6492 896.026C8.673 889.141 -4.80933 878.291 -13.0723 865.772" stroke="white" stroke-opacity="0.6" stroke-width="0.25" stroke-miterlimit="10"></path><path d="M386.979 848.244C379.13 836.951 366.506 829.517 353.3 828.399C340.093 827.28 326.629 832.586 317.133 842.276C310.321 849.226 305.564 858.098 299.784 866.063C286.404 884.508 263.756 896.844 242.278 891.759C227.563 888.258 216.029 876.966 204.407 867.196C192.175 856.909 177.834 847.731 162.051 847.022C151.319 846.543 140.444 848.888 131.002 854.404C118.089 861.952 106.698 872.083 96.0632 882.859C84.9258 894.146 72.725 906.186 57.5651 908.31C44.7636 910.133 33.3058 904.067 22.204 898.164C8.79735 891.04 -4.31566 880.288 -11.791 867.779" stroke="white" stroke-opacity="0.6" stroke-width="0.25" stroke-miterlimit="10"></path><path d="M386.906 851.59C379.044 840.274 366.425 832.802 353.2 831.618C339.976 830.434 326.458 835.645 316.865 845.264C309.852 852.295 304.962 861.336 299.04 869.456C285.691 887.751 263.287 900.255 241.942 895.19C227.094 891.651 215.587 880.03 204.014 869.959C191.897 859.414 177.574 849.926 161.729 849.376C151.401 849.019 140.985 851.411 131.885 856.698C118.635 864.405 106.879 874.696 96.0305 885.8C84.8175 897.276 72.5944 909.748 57.2299 911.67C44.2726 913.319 32.8371 906.646 21.7798 900.317C8.93819 892.972 -3.8055 882.304 -10.4844 869.799" stroke="white" stroke-opacity="0.6" stroke-width="0.25" stroke-miterlimit="10"></path><path d="M386.836 854.935C378.964 843.601 366.345 836.087 353.099 834.837C339.852 833.587 326.285 838.704 316.594 848.258C309.381 855.368 304.358 864.583 298.293 872.849C284.979 890.993 262.82 903.667 241.605 898.615C226.627 895.034 215.138 883.093 203.618 872.722C191.622 861.923 177.312 852.116 161.4 851.735C151.478 851.496 141.515 853.934 132.767 858.996C119.173 866.857 107.057 877.309 95.9954 888.742C84.7067 900.406 72.4614 913.305 56.8878 915.035C43.7703 916.515 32.357 909.24 21.3487 902.473C9.05885 894.922 -3.29773 884.325 -9.18457 871.825" stroke="white" stroke-opacity="0.6" stroke-width="0.25" stroke-miterlimit="10"></path><path d="M386.765 858.281C378.88 846.923 366.266 839.371 353.001 838.051C339.737 836.735 326.112 841.754 316.328 851.242C308.91 858.436 303.757 867.821 297.546 876.233C284.264 894.231 262.349 907.065 241.267 902.032C226.161 898.408 214.694 886.148 203.218 875.471C191.338 864.419 177.041 854.282 161.072 854.075C151.554 853.953 142.05 856.439 133.644 861.275C119.708 869.287 107.231 879.903 95.9516 891.67C84.5873 903.521 72.3197 916.853 56.5414 918.38C43.2682 919.692 31.8638 911.834 20.9089 904.612C9.16187 896.862 -2.79869 886.322 -7.89795 873.831" stroke="white" stroke-opacity="0.6" stroke-width="0.25" stroke-miterlimit="10"></path><path d="M386.694 861.623C378.796 850.241 366.186 842.647 352.899 841.265C339.613 839.884 325.934 844.804 316.056 854.226C308.434 861.496 303.152 871.059 296.798 879.616C283.552 897.464 261.882 910.467 240.929 905.453C225.689 901.792 214.245 889.207 202.823 878.23C191.058 866.923 176.779 856.449 160.743 856.425C151.63 856.411 142.579 858.953 134.521 863.559C120.242 871.721 107.405 882.506 95.9116 894.602C84.4717 906.642 72.1819 920.406 56.1944 921.731C42.7654 922.868 31.3566 914.447 20.4729 906.754C9.25985 898.827 -2.2958 888.329 -6.60303 875.843" stroke="white" stroke-opacity="0.6" stroke-width="0.25" stroke-miterlimit="10"></path><path d="M386.622 864.968C378.711 853.563 366.105 845.932 352.801 844.484C339.496 843.037 325.76 847.854 315.784 857.219C307.957 864.569 302.547 874.306 296.05 883.009C282.839 900.711 261.41 913.879 240.595 908.879C225.226 905.175 213.799 892.271 202.43 880.988C190.781 869.428 176.52 858.606 160.417 858.779C151.705 858.873 143.113 861.472 135.401 865.852C120.776 874.165 107.582 885.114 95.8755 897.539C84.3599 909.762 72.0478 923.963 55.8557 925.091C42.2666 926.059 30.8444 917.083 20.0452 908.907C9.35277 900.81 -1.78906 890.34 -5.2998 877.859" stroke="white" stroke-opacity="0.6" stroke-width="0.25" stroke-miterlimit="10"></path><path d="M386.547 868.314C378.622 856.886 366.021 849.216 352.694 847.698C339.367 846.185 325.574 850.899 315.509 860.203C307.477 867.628 301.937 877.544 295.298 886.392C282.123 903.949 260.934 917.281 240.252 912.295C224.754 908.55 213.345 895.326 202.03 883.737C190.492 871.923 176.249 860.739 160.088 861.12C151.781 861.312 143.642 863.972 136.278 868.131C121.305 876.585 107.752 887.708 95.8356 900.467C84.2444 912.878 71.91 927.506 55.5088 928.437C41.7639 929.231 30.3061 919.72 19.6093 911.045C9.42411 902.783 -1.28611 892.342 -4.00928 879.865" stroke="white" stroke-opacity="0.6" stroke-width="0.25" stroke-miterlimit="10"></path><path d="M386.476 871.66C378.538 860.208 365.941 852.501 352.597 850.917C339.252 849.339 325.401 853.949 315.242 863.197C307.006 870.697 301.355 880.805 294.551 889.785C281.447 907.22 260.467 920.688 239.915 915.725C224.283 911.942 212.897 898.399 201.63 886.505C190.204 874.442 175.978 862.882 159.755 863.479C151.852 863.77 144.168 866.491 137.155 870.429C121.835 879.024 107.903 890.297 95.7961 903.408C84.107 915.984 71.7726 931.068 55.1667 931.797C41.2616 932.422 29.7594 922.384 19.1782 913.197C9.49137 904.781 -0.77834 894.353 -2.70947 881.886" stroke="white" stroke-opacity="0.6" stroke-width="0.25" stroke-miterlimit="10"></path><path d="M386.404 875.001C378.453 863.531 365.861 855.777 352.494 854.132C339.127 852.483 325.218 856.994 314.97 866.181C306.525 873.756 300.749 884.043 293.803 893.169C280.73 910.453 259.995 924.09 239.576 919.142C223.815 915.317 212.424 901.477 201.234 889.254C189.901 876.956 175.711 864.987 159.43 865.819C151.928 866.204 144.701 868.991 138.036 872.704C122.364 881.43 108.081 892.892 95.76 906.332C83.9997 919.1 71.6387 934.612 54.828 935.143C40.7672 935.599 29.1938 925.049 18.7506 915.335C9.54431 906.769 -0.267094 896.355 -1.41064 883.893" stroke="white" stroke-opacity="0.6" stroke-width="0.25" stroke-miterlimit="10"></path><path d="M386.334 878.347C378.373 866.853 365.781 859.061 352.397 857.351C339.012 855.636 325.027 860.025 314.704 869.17C306.04 876.801 300.145 887.281 293.061 896.562C280.015 913.691 259.533 927.502 239.243 922.572C223.353 918.709 211.984 904.541 200.843 892.022C189.63 879.466 175.444 867.097 159.105 868.183C152.004 868.653 145.227 871.505 138.917 875.006C122.872 883.831 108.264 895.514 95.725 909.278C83.8934 922.239 71.5057 938.174 54.4859 938.508C40.2694 938.789 28.6025 927.746 18.3195 917.492C9.58042 908.775 0.23623 898.376 -0.11084 885.918" stroke="white" stroke-opacity="0.6" stroke-width="0.25" stroke-miterlimit="10"></path><path d="M386.261 881.693C378.287 870.175 365.699 862.346 352.293 860.565C338.886 858.784 324.856 863.084 314.431 872.158C305.567 879.874 299.538 890.523 292.308 899.95C279.288 916.928 259.056 930.904 238.899 925.993C222.876 922.088 211.534 907.591 200.436 894.776C189.339 881.961 175.163 869.17 158.77 870.528C152.069 871.082 145.755 874.019 139.788 877.29C123.405 886.27 108.432 898.117 95.6791 912.21C83.7764 925.359 71.3619 941.726 54.1375 941.858C39.7608 941.971 27.9826 930.439 17.882 919.635C9.59238 910.768 0.737648 900.377 1.18261 887.929" stroke="white" stroke-opacity="0.6" stroke-width="0.25" stroke-miterlimit="10"></path><path d="M1.01855 886.369C1.88623 893.742 7.73302 901.205 13.9358 908.836C16.6056 912.121 19.44 915.345 22.3367 918.202C30.6574 926.412 39.6234 935.406 50.2936 938.348C52.8254 939.048 55.4373 939.419 58.1427 939.377C75.0512 939.133 87.3544 923.338 99.1593 910.58C111.805 896.909 126.551 885.335 142.65 876.524C148.559 873.291 154.797 870.387 161.418 869.757C177.61 868.22 191.725 880.232 202.893 892.436C207.961 897.967 213.078 903.86 218.631 909.043C225.324 915.298 232.639 920.509 241.249 922.756C242.188 923 243.127 923.207 244.065 923.371C253.085 924.974 262.011 923.037 270.274 918.874C279.284 914.353 287.503 907.173 294.043 899.236C296.784 895.909 299.361 892.403 301.986 888.944C306.36 883.169 310.85 877.501 316.394 872.91C326.828 864.268 340.698 860.123 353.962 861.712C367.226 863.3 379.699 870.593 387.757 881.345" stroke="white" stroke-opacity="0.6" stroke-width="0.25" stroke-miterlimit="10"></path><path d="M0.853516 884.804C2.90479 890.833 10.349 898.056 17.3349 906.44C20.3517 910.058 23.4754 913.709 26.7903 916.764C35.1956 924.508 43.9347 933.23 54.4358 935.961C56.9231 936.609 59.4905 936.947 62.1425 936.891C78.7351 936.534 90.9271 921.318 102.634 908.949C115.173 895.697 129.692 884.4 145.506 875.758C151.353 872.567 157.524 869.687 164.061 868.986C180.053 867.266 194.1 878.498 205.344 890.091C210.457 895.345 215.61 900.984 221.176 905.998C227.868 912.046 235.135 917.163 243.593 919.522C244.514 919.781 245.44 920.002 246.361 920.185C255.211 921.952 263.924 920.411 272.071 916.679C280.961 912.638 289.162 905.97 295.778 898.521C298.546 895.396 301.167 892.097 303.823 888.831C308.26 883.38 312.807 878.014 318.356 873.653C328.799 865.448 342.508 861.453 355.626 862.849C368.743 864.245 381.104 871.002 389.247 880.988" stroke="white" stroke-opacity="0.6" stroke-width="0.25" stroke-miterlimit="10"></path><path d="M0.69043 883.244C3.92085 887.934 12.9669 894.908 20.7404 904.043C24.1043 907.995 27.5038 912.074 31.2504 915.326C39.6869 922.652 48.2568 931.055 58.5888 933.578C61.0316 934.18 63.5501 934.48 66.1532 934.405C82.4298 933.94 94.5061 919.297 106.12 907.314C118.547 894.48 132.844 883.46 148.369 874.987C154.153 871.834 160.254 868.986 166.706 868.211C182.497 866.312 196.478 876.764 207.798 887.746C212.95 892.722 218.148 898.103 223.723 902.948C230.415 908.785 237.632 913.813 245.944 916.28C246.852 916.548 247.755 916.783 248.659 916.985C257.335 918.916 265.834 917.751 273.866 914.471C282.631 910.895 290.819 904.757 297.515 897.798C300.314 894.879 302.971 891.783 305.667 888.709C310.161 883.582 314.766 878.521 320.324 874.391C330.776 866.623 344.325 862.779 357.3 863.982C370.275 865.185 382.521 871.407 390.744 880.631" stroke="white" stroke-opacity="0.6" stroke-width="0.25" stroke-miterlimit="10"></path><path d="M0.525391 881.684C4.93496 885.03 15.5829 891.764 24.1395 901.646C27.8505 905.932 31.5214 910.439 35.704 913.888C44.1361 920.833 52.5725 928.883 62.731 931.195C65.1338 931.745 67.6033 932.008 70.1485 931.919C86.1093 931.341 98.0743 917.276 109.59 905.683C121.911 893.267 135.981 882.52 151.22 874.221C156.947 871.106 162.976 868.286 169.344 867.44C184.935 865.363 198.849 875.03 210.245 885.406C215.442 890.105 220.675 895.232 226.263 899.908C232.955 905.533 240.128 910.472 248.284 913.051C249.174 913.333 250.064 913.582 250.95 913.803C259.457 915.899 267.743 915.124 275.654 912.285C284.3 909.184 292.469 903.564 299.241 897.093C302.067 894.376 304.768 891.486 307.5 888.606C312.056 883.803 316.719 879.043 322.281 875.147C332.742 867.816 346.127 864.123 358.964 865.133C371.797 866.143 383.926 871.829 392.234 880.288" stroke="white" stroke-opacity="0.6" stroke-width="0.25" stroke-miterlimit="10"></path><path d="M0.359863 880.124C5.94858 882.126 18.1984 888.615 27.5381 899.254C31.5962 903.874 35.5296 908.817 40.1572 912.455C48.5581 919.052 56.8878 926.712 66.8771 928.813C69.2354 929.316 71.6605 929.541 74.1523 929.438C89.7971 928.752 101.651 915.255 113.069 904.052C125.283 892.055 139.126 881.585 154.081 873.455C159.745 870.382 165.708 867.586 171.99 866.67C187.382 864.409 201.211 873.324 212.7 883.061C217.933 887.497 223.21 892.356 228.812 896.858C235.509 902.276 242.628 907.121 250.633 909.809C251.505 910.105 252.377 910.368 253.249 910.603C261.588 912.859 269.659 912.478 277.451 910.077C285.981 907.455 294.128 902.347 300.98 896.369C303.837 893.86 306.573 891.172 309.346 888.484C313.964 884.005 318.685 879.546 324.247 875.88C334.722 868.982 347.941 865.443 360.632 866.261C373.322 867.078 385.341 872.229 393.728 879.926" stroke="white" stroke-opacity="0.6" stroke-width="0.25" stroke-miterlimit="10"></path><path d="M0.200684 878.559C6.96855 879.217 20.8202 885.462 30.9431 896.853C35.3482 901.806 39.5353 907.196 44.6167 911.012C52.9687 917.281 61.2094 924.532 71.0252 926.426C73.3435 926.877 75.7195 927.07 78.1579 926.947C93.4869 926.149 105.229 913.23 116.549 902.417C128.652 890.843 142.268 880.645 156.938 872.685C162.54 869.649 168.432 866.886 174.634 865.894C189.825 863.455 203.588 871.595 215.153 880.716C220.425 884.875 225.747 889.48 231.358 893.813C238.055 899.02 245.13 903.775 252.979 906.571C253.838 906.877 254.692 907.159 255.542 907.412C263.707 909.833 271.569 909.842 279.245 907.882C287.655 905.735 295.793 901.162 302.712 895.655C305.6 893.357 308.377 890.862 311.18 888.371C315.861 884.217 320.635 880.063 326.206 876.627C336.689 870.166 349.749 866.778 362.297 867.403C374.845 868.028 386.748 872.642 395.22 879.574" stroke="white" stroke-opacity="0.6" stroke-width="0.25" stroke-miterlimit="10"></path><path d="M0.034668 876.999C7.98613 876.317 23.4352 882.318 34.3412 894.456C39.0934 899.743 43.5296 905.584 49.0694 909.574C57.3502 915.537 65.5241 922.361 75.1709 924.043C77.4446 924.447 79.7718 924.602 82.1612 924.461C97.1742 923.554 108.805 911.209 120.027 900.782C132.024 889.626 145.412 879.705 159.798 871.914C165.342 868.916 171.162 866.181 177.276 865.119C192.267 862.501 205.963 869.86 217.603 878.371C222.92 882.257 228.278 886.604 233.902 890.767C240.599 895.767 247.625 900.424 255.322 903.338C256.163 903.658 257.004 903.954 257.836 904.221C265.832 906.806 273.486 907.206 281.037 905.683C289.331 904.015 297.447 899.959 304.442 894.94C307.361 892.845 310.173 890.556 313.016 888.263C317.755 884.433 322.592 880.579 328.167 877.379C338.659 871.355 351.559 868.117 363.964 868.549C376.37 868.982 388.157 873.061 396.713 879.226" stroke="white" stroke-opacity="0.6" stroke-width="0.25" stroke-miterlimit="10"></path><path d="M-0.128418 875.438C9.00219 873.413 26.0531 879.17 37.7422 892.065C42.846 897.685 47.5181 903.987 53.525 908.141C61.7301 913.818 69.8418 920.19 79.315 921.665C81.5442 922.018 83.8269 922.14 86.1629 921.98C100.86 920.96 112.38 909.189 123.5 899.156C135.385 888.418 148.551 878.775 162.647 871.153C168.129 868.197 173.883 865.49 179.912 864.348C194.702 861.552 208.332 868.136 220.047 876.031C225.405 879.64 230.811 883.719 236.44 887.722C243.145 892.497 250.113 897.079 257.664 900.1C258.488 900.429 259.311 900.739 260.13 901.031C267.952 903.78 275.401 904.569 282.827 903.488C291.005 902.3 299.099 898.756 306.174 894.226C309.124 892.337 311.976 890.251 314.855 888.15C319.656 884.644 324.551 881.092 330.126 878.122C340.627 872.534 353.362 869.447 365.625 869.687C377.889 869.926 389.56 873.469 398.201 878.874" stroke="white" stroke-opacity="0.6" stroke-width="0.25" stroke-miterlimit="10"></path><path d="M-0.293457 873.874C10.0163 870.504 28.6691 876.021 41.1414 889.663C46.5921 895.617 51.5001 902.384 57.9787 906.698C66.0948 912.098 74.1575 918.009 83.4616 919.273C85.6509 919.579 87.8846 919.663 90.1672 919.49C104.548 918.362 115.953 907.163 126.979 897.516C138.757 887.196 151.696 877.83 165.508 870.377C170.928 867.459 176.61 864.781 182.559 863.568C197.149 860.589 210.712 866.397 222.503 873.676C227.905 877.013 233.351 880.829 238.989 884.668C245.699 889.231 252.618 893.723 260.013 896.853C260.823 897.196 261.629 897.52 262.43 897.826C270.083 900.735 277.318 901.919 284.629 901.275C292.687 900.566 300.763 897.539 307.914 893.498C310.89 891.816 313.783 889.931 316.702 888.023C321.565 884.842 326.513 881.595 332.097 878.855C342.607 873.7 355.182 870.767 367.303 870.814C379.423 870.861 390.979 873.869 399.705 878.507" stroke="white" stroke-opacity="0.6" stroke-width="0.25" stroke-miterlimit="10"></path><path d="M-0.458496 872.313C11.0304 867.6 31.2851 872.873 44.5405 887.267C50.3383 893.554 55.4776 900.805 62.4324 905.26C70.455 910.396 78.4732 915.838 87.6083 916.891C89.753 917.145 91.9422 917.196 94.1715 917.004C108.237 915.763 119.53 905.143 130.458 895.885C142.125 885.984 154.842 876.895 168.369 869.611C173.731 866.731 179.342 864.08 185.206 862.797C199.596 859.639 213.092 864.668 224.959 871.336C230.401 874.395 235.887 877.957 241.538 881.623C248.248 885.974 255.118 890.378 262.362 893.62C263.154 893.977 263.942 894.316 264.725 894.64C272.209 897.713 279.235 899.292 286.421 899.085C294.368 898.855 302.418 896.346 309.648 892.788C312.656 891.308 315.589 889.626 318.543 887.915C323.469 885.063 328.475 882.111 334.064 879.607C344.582 874.889 356.997 872.107 368.975 871.961C380.954 871.815 392.393 874.287 401.199 878.159" stroke="white" stroke-opacity="0.6" stroke-width="0.25" stroke-miterlimit="10"></path><path d="M-0.618652 870.753C12.0494 864.701 33.9059 869.729 47.9444 884.875C54.0894 891.496 59.4511 899.24 66.8909 903.827C74.8112 908.709 82.7938 913.667 91.7553 914.513C93.86 914.72 95.9958 914.734 98.1761 914.522C111.925 913.169 123.107 903.127 133.938 894.254C145.498 884.776 157.988 875.96 171.225 868.85C176.525 866.012 182.065 863.39 187.849 862.031C202.039 858.695 215.472 862.943 227.411 869C232.897 871.782 238.419 875.091 244.083 878.587C250.793 882.732 257.615 887.041 264.707 890.392C265.482 890.758 266.256 891.115 267.021 891.458C274.332 894.696 281.153 896.67 288.215 896.895C296.046 897.149 304.069 895.147 311.379 892.083C314.414 890.81 317.386 889.33 320.377 887.812C325.365 885.284 330.428 882.638 336.021 880.359C346.549 876.078 358.803 873.446 370.639 873.108C382.475 872.769 393.8 874.705 402.69 877.816" stroke="white" stroke-opacity="0.6" stroke-width="0.25" stroke-miterlimit="10"></path><path d="M-0.783691 869.193C13.068 861.796 36.5219 866.58 51.3435 882.478C57.8355 889.433 63.4153 897.68 71.3446 902.389C79.1625 907.032 87.1095 911.491 95.902 912.126C97.9621 912.281 100.053 912.262 102.18 912.032C115.614 910.57 126.684 901.097 137.417 892.619C148.866 883.559 161.133 875.02 174.086 868.079C179.328 865.279 184.796 862.685 190.492 861.256C204.481 857.736 217.848 861.204 229.862 866.651C235.393 869.16 240.955 872.205 246.628 875.532C253.338 879.466 260.115 883.686 267.056 887.144C267.817 887.525 268.574 887.896 269.321 888.253C276.463 891.656 283.075 894.024 290.016 894.682C297.732 895.415 305.732 893.93 313.119 891.35C316.185 890.279 319.197 889.005 322.223 887.685C327.269 885.481 332.39 883.136 337.988 881.092C348.529 877.248 360.618 874.766 372.308 874.235C384.001 873.704 395.214 875.105 404.185 877.45" stroke="white" stroke-opacity="0.6" stroke-width="0.25" stroke-miterlimit="10"></path><path d="M-0.946777 867.628C14.084 858.888 39.1353 863.432 54.749 880.077C61.5881 887.365 67.377 896.134 75.8046 900.946C83.5202 905.354 91.4272 909.311 100.051 909.739C102.071 909.847 104.113 909.79 106.182 909.546C119.3 907.972 130.259 899.076 140.894 890.984C152.236 882.342 164.276 874.08 176.944 867.309C182.124 864.546 187.526 861.984 193.137 860.481C206.926 856.782 220.23 859.47 232.315 864.306C237.891 866.538 243.488 869.329 249.175 872.487C255.885 876.209 262.613 880.335 269.403 883.911C270.146 884.306 270.885 884.687 271.619 885.067C278.591 888.634 284.994 891.397 291.811 892.492C299.411 893.714 307.385 892.732 314.856 890.645C317.948 889.781 321.001 888.709 324.066 887.581C329.175 885.702 334.354 883.658 339.956 881.848C350.506 878.437 362.431 876.11 373.982 875.387C385.533 874.663 396.631 875.528 405.686 877.107" stroke="white" stroke-opacity="0.6" stroke-width="0.25" stroke-miterlimit="10"></path><path d="M-1.11182 866.068C15.0981 855.983 41.7513 860.283 58.1482 877.685C65.3343 885.307 71.3324 894.607 80.2583 899.513C87.8671 903.691 95.7429 907.145 104.197 907.361C106.173 907.417 108.171 907.328 110.186 907.065C122.983 905.382 133.832 897.06 144.373 889.358C155.604 881.134 167.422 873.15 179.801 866.547C184.918 863.822 190.248 861.289 195.779 859.715C209.368 855.838 222.61 857.741 234.767 861.97C240.387 863.925 246.02 866.463 251.724 869.452C258.434 872.967 265.113 876.999 271.752 880.683C272.482 881.087 273.202 881.486 273.914 881.881C280.713 885.608 286.912 888.775 293.604 890.298C301.088 892.003 309.04 891.529 316.586 889.931C319.71 889.268 322.802 888.399 325.904 887.469C331.074 885.913 336.311 884.174 341.918 882.591C352.477 879.616 364.242 877.44 375.65 876.524C387.055 875.608 398.041 875.937 407.18 876.754" stroke="white" stroke-opacity="0.6" stroke-width="0.25" stroke-miterlimit="10"></path><path d="M-1.27783 864.508C16.1113 853.084 44.3663 857.139 61.5463 875.288C69.0795 883.244 75.2733 893.098 84.711 898.075C92.213 902.032 100.058 904.969 108.338 904.973C110.27 904.978 112.218 904.856 114.185 904.574C126.666 902.779 137.403 895.03 147.847 887.718C158.971 879.917 170.562 872.205 182.656 865.772C187.715 863.089 192.975 860.579 198.421 858.934C211.81 854.879 224.989 855.997 237.217 859.616C242.877 861.294 248.55 863.577 254.268 866.392C260.978 869.701 267.612 873.639 274.095 877.431C274.807 877.849 275.51 878.263 276.209 878.676C282.839 882.567 288.828 886.129 295.4 888.089C302.769 890.283 310.698 890.312 318.32 889.207C321.47 888.751 324.603 888.084 327.74 887.346C332.973 886.115 338.263 884.677 343.879 883.328C354.447 880.791 366.051 878.765 377.313 877.656C388.575 876.547 399.446 876.341 408.67 876.392" stroke="white" stroke-opacity="0.6" stroke-width="0.25" stroke-miterlimit="10"></path><path d="M-1.44238 862.948C17.1303 850.18 46.9828 853.991 64.9459 872.896C72.8261 881.186 79.2158 891.609 89.1651 896.642C96.5559 900.382 104.374 902.798 112.486 902.596C114.377 902.553 116.277 902.394 118.19 902.093C130.355 900.19 140.981 893.014 151.326 886.092C162.343 878.709 173.703 871.275 185.513 865.011C190.51 862.365 195.702 859.889 201.064 858.169C214.253 853.93 227.366 854.268 239.669 857.28C245.373 858.676 251.078 860.725 256.813 863.357C263.519 866.468 270.109 870.302 276.44 874.207C277.135 874.635 277.824 875.067 278.505 875.495C284.966 879.55 290.742 883.517 297.193 885.899C304.442 888.582 312.349 889.113 320.056 888.498C323.237 888.244 326.41 887.783 329.582 887.238C334.877 886.331 340.226 885.194 345.841 884.08C356.418 881.98 367.862 880.105 378.982 878.803C390.101 877.501 400.856 876.759 410.16 876.049" stroke="white" stroke-opacity="0.6" stroke-width="0.25" stroke-miterlimit="10"></path><path d="M-1.60254 861.383C18.1493 847.271 49.6036 850.842 68.3498 870.495C76.5772 879.118 83.1537 890.128 93.6236 895.199C100.912 898.728 108.694 900.622 116.633 900.208C118.479 900.114 120.335 899.922 122.195 899.607C134.044 897.591 144.558 890.993 154.806 884.456C165.712 877.492 176.849 870.335 188.374 864.24C193.308 861.632 198.43 859.184 203.707 857.393C216.696 852.976 229.746 852.529 242.121 854.935C247.87 856.054 253.614 857.844 259.358 860.307C266.064 863.211 272.609 866.951 278.79 870.965C279.471 871.406 280.138 871.848 280.801 872.299C287.088 876.519 292.655 880.885 298.987 883.7C306.119 886.872 314.004 887.887 321.786 887.783C324.995 887.727 328.207 887.478 331.42 887.125C336.773 886.543 342.184 885.711 347.803 884.823C358.389 883.155 369.669 881.435 380.65 879.94C391.628 878.446 402.267 877.168 411.655 875.692" stroke="white" stroke-opacity="0.6" stroke-width="0.25" stroke-miterlimit="10"></path><path d="M-1.76758 859.823C19.1634 844.367 52.2196 847.694 71.7489 868.098C80.3234 877.055 87.0823 888.672 98.0773 893.761C105.259 897.083 113.01 898.446 120.779 897.821C122.586 897.68 124.388 897.45 126.199 897.116C137.732 894.992 148.135 888.968 158.281 882.821C169.08 876.275 179.99 869.395 191.23 863.469C196.107 860.904 201.157 858.483 206.35 856.618C219.138 852.022 232.126 850.763 244.572 852.591C250.365 853.418 256.145 854.968 261.903 857.262C268.613 859.954 275.105 863.606 281.134 867.727C281.797 868.183 282.452 868.639 283.097 869.104C289.215 873.484 294.568 878.253 300.779 881.496C307.792 885.157 315.659 886.674 323.521 887.06C326.761 887.205 330.013 887.163 333.262 887.008C338.677 886.75 344.141 886.219 349.77 885.565C360.364 884.334 371.484 882.765 382.319 881.078C393.153 879.391 403.681 877.577 413.15 875.335" stroke="white" stroke-opacity="0.6" stroke-width="0.25" stroke-miterlimit="10"></path><path d="M-1.93066 858.263C20.1795 841.467 54.8375 844.55 75.15 865.706C84.0715 874.997 91.004 887.243 102.533 892.328C109.612 895.453 117.328 896.275 124.928 895.443C126.69 895.251 128.447 894.987 130.205 894.635C141.423 892.398 151.71 886.947 161.762 881.19C172.45 875.063 183.138 868.46 194.088 862.703C198.903 860.175 203.886 857.783 208.994 855.847C221.582 851.073 234.509 849.028 247.025 850.246C252.863 850.795 258.679 852.092 264.45 854.212C271.16 856.693 277.603 860.255 283.481 864.489C284.126 864.954 284.767 865.429 285.394 865.913C291.343 870.457 296.483 875.631 302.579 879.297C309.471 883.446 317.32 885.471 325.258 886.345C328.524 886.698 331.817 886.853 335.101 886.895C340.578 886.961 346.1 886.736 351.729 886.313C362.337 885.518 373.292 884.099 383.984 882.22C394.677 880.34 405.089 877.99 414.642 874.987" stroke="white" stroke-opacity="0.6" stroke-width="0.25" stroke-miterlimit="10"></path><path d="M-2.0957 856.698C21.1936 838.559 57.4535 841.397 78.5491 863.305C87.8177 872.929 94.9237 885.824 106.987 890.885C113.964 893.813 121.644 894.099 129.07 893.056C130.788 892.816 132.501 892.511 134.205 892.149C145.106 889.8 155.283 884.926 165.237 879.56C175.818 873.855 186.279 867.525 196.944 861.937C201.697 859.447 206.609 857.083 211.637 855.077C224.025 850.119 236.884 847.299 249.477 847.905C255.355 848.178 261.215 849.221 266.995 851.171C273.705 853.446 280.103 856.909 285.826 861.256C286.457 861.735 287.076 862.224 287.69 862.722C293.466 867.431 298.391 873.014 304.372 877.102C311.135 881.75 318.975 884.268 326.989 885.631C330.286 886.186 333.619 886.548 336.938 886.783C342.478 887.173 348.058 887.248 353.691 887.055C364.308 886.693 375.103 885.429 385.653 883.357C396.203 881.284 406.499 878.399 416.137 874.63" stroke="white" stroke-opacity="0.6" stroke-width="0.25" stroke-miterlimit="10"></path><path d="M-2.26074 855.137C22.2121 835.654 60.0695 838.248 81.9482 860.908C91.5683 870.866 98.8345 884.437 111.44 889.447C118.324 892.182 125.959 891.923 133.217 890.673C157.076 886.557 178.127 872.483 199.801 861.167C221.475 849.851 246.326 840.983 269.54 848.121C276.993 850.415 283.992 854.32 289.986 859.527C295.592 864.4 300.304 870.373 306.164 874.898C315.544 882.14 327.247 885.189 338.78 886.665C365.478 890.081 393.03 885.749 417.632 874.273" stroke="white" stroke-opacity="0.6" stroke-width="0.25" stroke-miterlimit="10"></path></g><defs><linearGradient id="paint0_linear_372_11009" x1="187.5" y1="0" x2="187.5" y2="879" gradientUnits="userSpaceOnUse"><stop stop-color="#1D6531"></stop><stop offset="1" stop-color="#439D55"></stop></linearGradient><linearGradient id="paint1_linear_372_11009" x1="187.5" y1="0" x2="187.5" y2="879" gradientUnits="userSpaceOnUse"><stop stop-color="#1D6531"></stop><stop offset="1" stop-color="#439D55"></stop></linearGradient></defs></svg>