<?xml version="1.0" encoding="UTF-8"?>
<svg xmlns="http://www.w3.org/2000/svg" width="28" height="28" viewBox="0 0 28 28" fill="none">
  <path d="M8.71505 13.5317C3.82112 13.5317 0 17.8239 0 22.8857C0 23.9206 0.95725 24.8586 2.69538 25.5271C4.30981 26.148 6.44766 26.49 8.71505 26.49C10.9825 26.49 13.1203 26.148 14.7347 25.5271C16.4729 24.8586 17.4301 23.9206 17.4301 22.8857C17.4301 17.8318 13.611 13.5317 8.71505 13.5317ZM12.8774 15.637C12.2328 16.1483 10.7229 16.6111 8.71505 16.6111C6.7072 16.6111 5.19728 16.1483 4.55273 15.637C5.76193 14.8229 7.18862 14.3521 8.71505 14.3521C10.2415 14.3521 11.6682 14.8228 12.8774 15.637ZM8.71505 25.6696C4.06257 25.6696 0.820312 24.2024 0.820312 22.8857C0.820312 22.2204 1.65812 21.5089 3.06152 20.9826C3.27365 20.9031 3.38105 20.6666 3.30154 20.4545C3.22197 20.2424 2.98555 20.1351 2.77342 20.2145C2.03361 20.492 1.43128 20.817 0.979289 21.1772C1.3633 19.1425 2.41932 17.3688 3.88484 16.1399C4.71926 16.9256 6.56376 17.4314 8.71505 17.4314C10.8664 17.4314 12.7109 16.9255 13.5453 16.1399C15.011 17.3689 16.067 19.1428 16.4509 21.1778C16.0149 20.83 15.4389 20.5149 14.7347 20.2441C13.1203 19.6232 10.9825 19.2812 8.71505 19.2812C7.30341 19.2812 5.90428 19.4178 4.66889 19.6762C4.44719 19.7226 4.305 19.9399 4.35138 20.1616C4.39775 20.3834 4.6153 20.5256 4.83684 20.4791C6.01787 20.2321 7.35891 20.1015 8.715 20.1015C13.3675 20.1015 16.6097 21.5687 16.6097 22.8855C16.6098 24.2024 13.3675 25.6696 8.71505 25.6696Z" fill="#1D6531"></path>
  <path d="M26.7967 6.11773C26.6876 5.91922 26.4381 5.84681 26.2397 5.9558C26.0411 6.06491 25.9686 6.31428 26.0777 6.51285C26.5278 7.33191 26.8454 8.22605 27.0205 9.15573C26.5845 8.80803 26.0086 8.49303 25.3046 8.22227C23.6902 7.60135 21.5523 7.25939 19.2849 7.25939C17.0175 7.25939 14.8797 7.60135 13.2653 8.22227C12.5606 8.4933 11.9842 8.80863 11.548 9.15677C11.9231 7.15406 12.9506 5.36693 14.4508 4.11431C15.2834 4.90203 17.1303 5.40953 19.285 5.40953C21.4375 5.40953 23.2828 4.90307 24.1165 4.11672C24.4528 4.39737 24.7692 4.70838 25.0619 5.04788C25.2098 5.21938 25.4688 5.23863 25.6404 5.0907C25.812 4.94277 25.8311 4.68377 25.6833 4.51216C23.9907 2.54888 21.6351 1.50977 19.285 1.50977C18.5427 1.50977 17.8053 1.61012 17.0932 1.80809C16.875 1.86873 16.7472 2.09481 16.8079 2.31312C16.8686 2.53138 17.0947 2.65924 17.313 2.59843C17.9535 2.42037 18.617 2.33013 19.285 2.33013C20.7636 2.33013 22.207 2.78486 23.4472 3.61523C22.8025 4.12645 21.2927 4.58916 19.285 4.58916C17.2741 4.58916 15.7626 4.12492 15.1197 3.61277C15.2937 3.49607 15.4728 3.38598 15.6568 3.28284C15.8543 3.17216 15.9248 2.92213 15.814 2.72454C15.7034 2.52701 15.4533 2.45652 15.2557 2.56731C12.3654 4.18727 10.5699 7.36625 10.5699 10.8637C10.5699 11.8986 11.5272 12.8366 13.2653 13.5052C14.8798 14.1261 17.0176 14.4681 19.285 14.4681C21.5524 14.4681 23.6902 14.1261 25.3047 13.5052C27.0428 12.8367 28 11.8986 28 10.8637C28 9.1915 27.5839 7.55038 26.7967 6.11773ZM19.2849 13.6478C14.6325 13.6478 11.3902 12.1806 11.3902 10.8637C11.3902 9.54697 14.6325 8.07976 19.2849 8.07976C23.9374 8.07976 27.1797 9.54697 27.1797 10.8637C27.1796 12.1806 23.9374 13.6478 19.2849 13.6478Z" fill="#1D6531"></path>
</svg>
