<svg xmlns="http://www.w3.org/2000/svg" width="235" height="68" viewBox="0 0 235 68" fill="none"><path d="M25.417 58.9133C25.7053 60.0779 24.995 61.2561 23.83 61.5445C22.6654 61.8328 21.4875 61.1225 21.1992 59.9575C20.9109 58.7929 21.6211 57.615 22.7858 57.3263C23.9508 57.038 25.1286 57.7486 25.417 58.9133Z" fill="#1D6531"></path><path d="M30.3762 53.2455C30.6264 54.2562 30.0101 55.2786 28.9991 55.5288C27.9884 55.779 26.966 55.1627 26.7158 54.1517C26.4656 53.141 27.0823 52.1186 28.093 51.8684C29.1036 51.6182 30.126 52.2349 30.3762 53.2455Z" fill="#1D6531"></path><path d="M32.7549 46.3133C32.9772 47.2104 32.4296 48.118 31.5326 48.3403C30.6351 48.5622 29.7275 48.015 29.5056 47.1179C29.2833 46.2205 29.8305 45.3128 30.7279 45.0909C31.6254 44.8686 32.5327 45.4158 32.7549 46.3133Z" fill="#1D6531"></path><path d="M40.8175 5.83776C41.1258 7.08242 40.3665 8.34104 39.1218 8.64937C37.8772 8.9577 36.6186 8.19838 36.3102 6.95372C36.0019 5.70907 36.7612 4.45008 38.0059 4.14212C39.2505 3.83379 40.5095 4.59311 40.8175 5.83776Z" fill="#1D6531"></path><path d="M35.4908 12.4698C35.7689 13.5937 35.0836 14.7304 33.9593 15.0089C32.8354 15.2871 31.6987 14.6013 31.4205 13.4774C31.1424 12.3536 31.8278 11.2168 32.9516 10.9383C34.0755 10.6602 35.2126 11.3459 35.4908 12.4698Z" fill="#1D6531"></path><path d="M32.8549 20.332C33.1063 21.3465 32.4873 22.373 31.4725 22.624C30.4577 22.8753 29.4316 22.2564 29.1806 21.2419C28.9293 20.2271 29.5482 19.2006 30.563 18.9496C31.5774 18.6983 32.6036 19.3176 32.8549 20.332Z" fill="#1D6531"></path><path d="M42.9516 8.18862L41.1665 7.18777C41.0337 7.62102 40.7956 8.01502 40.4736 8.33354L42.2991 9.35704C42.6203 9.53631 43.0301 9.42045 43.2098 9.0989C43.389 8.77774 43.2732 8.36826 42.9516 8.18862Z" fill="#231F20"></path><path d="M42.9516 8.18862L41.1665 7.18777C41.0337 7.62102 40.7956 8.01502 40.4736 8.33354L42.2991 9.35704C42.6203 9.53631 43.0301 9.42045 43.2098 9.0989C43.389 8.77774 43.2732 8.36826 42.9516 8.18862Z" fill="#1D6531"></path><path d="M38.1727 14.9205L35.8634 13.6359C35.7423 14.0733 35.5038 14.4711 35.175 14.7843L37.5202 16.089C37.8414 16.2682 38.2512 16.1524 38.4305 15.8312H38.4309C38.6101 15.5097 38.4939 15.1002 38.1727 14.9205Z" fill="#231F20"></path><path d="M38.1727 14.9205L35.8634 13.6359C35.7423 14.0733 35.5038 14.4711 35.175 14.7843L37.5202 16.089C37.8414 16.2682 38.2512 16.1524 38.4305 15.8312H38.4309C38.6101 15.5097 38.4939 15.1002 38.1727 14.9205Z" fill="#1D6531"></path><path d="M33.9604 21.755L33.2399 21.358C33.126 21.7992 32.8818 22.1977 32.5414 22.5011L33.3079 22.9235C33.6294 23.1027 34.0389 22.9869 34.2185 22.6653C34.3978 22.3441 34.2819 21.9347 33.9604 21.755Z" fill="#231F20"></path><path d="M33.9604 21.755L33.2399 21.358C33.126 21.7992 32.8818 22.1977 32.5414 22.5011L33.3079 22.9235C33.6294 23.1027 34.0389 22.9869 34.2185 22.6653C34.3978 22.3441 34.2819 21.9347 33.9604 21.755Z" fill="#1D6531"></path><path d="M21.4763 57.6302L15.3266 54.1959C15.0051 54.0162 14.5956 54.1325 14.416 54.4536C14.2363 54.7752 14.3525 55.185 14.6741 55.3643L20.8147 58.7937C20.9287 58.354 21.1593 57.9532 21.4763 57.6302Z" fill="#231F20"></path><path d="M21.4763 57.6302L15.3266 54.1959C15.0051 54.0162 14.5956 54.1325 14.416 54.4536C14.2363 54.7752 14.3525 55.185 14.6741 55.3643L20.8147 58.7937C20.9287 58.354 21.1593 57.9532 21.4763 57.6302Z" fill="#44C8F5"></path><path d="M29.8061 45.1267L23.9154 41.9154C23.5942 41.7362 23.1843 41.852 23.0051 42.1736C22.8254 42.4947 22.9417 42.9046 23.2628 43.0839L29.111 46.2717C29.2102 45.8238 29.454 45.4215 29.8061 45.1267Z" fill="#231F20"></path><path d="M29.8061 45.1267L23.9154 41.9154C23.5942 41.7362 23.1843 41.852 23.0051 42.1736C22.8254 42.4947 22.9417 42.9046 23.2628 43.0839L29.111 46.2717C29.2102 45.8238 29.454 45.4215 29.8061 45.1267Z" fill="#44C8F5"></path><path d="M26.9102 52.1035L19.6487 48.0484C19.3272 47.8688 18.9177 47.985 18.738 48.3062C18.5588 48.6277 18.6746 49.0372 18.9962 49.2168L26.2962 53.2935C26.3781 52.8432 26.5939 52.4292 26.9102 52.1035Z" fill="#231F20"></path><path d="M26.9102 52.1035L19.6487 48.0484C19.3272 47.8688 18.9177 47.985 18.738 48.3062C18.5588 48.6277 18.6746 49.0372 18.9962 49.2168L26.2962 53.2935C26.3781 52.8432 26.5939 52.4292 26.9102 52.1035Z" fill="#44C8F5"></path><path d="M35.8257 29.4249C36.3903 31.7051 34.9996 34.0114 32.7194 34.576C30.4388 35.1406 28.1329 33.7495 27.5683 31.4693C27.0037 29.189 28.3944 26.8828 30.675 26.3182C32.9553 25.7536 35.2612 27.1447 35.8257 29.4249Z" fill="#1D6531"></path><path d="M26.3709 33.1439C26.8524 35.089 25.6659 37.0568 23.7208 37.5383C21.7753 38.0199 19.808 36.8334 19.326 34.8879C18.8448 32.9428 20.0314 30.975 21.9765 30.4938C23.922 30.0119 25.8893 31.1984 26.3709 33.1439Z" fill="#1D6531"></path><path d="M5.0961 54.7245C5.43953 56.1107 4.59378 57.5127 3.2076 57.8558C1.82142 58.1988 0.419396 57.3535 0.0763421 55.9673C-0.266711 54.5811 0.578657 53.1791 1.96484 52.836C3.35101 52.493 4.75304 53.3383 5.0961 54.7245Z" fill="#1D6531"></path><path d="M5.75518 61.4155C6.06465 62.6658 5.30193 63.9301 4.05161 64.2396C2.8013 64.5494 1.53702 63.7867 1.22755 62.5364C0.918088 61.2861 1.68081 60.0218 2.93074 59.712C4.18106 59.4025 5.44572 60.1652 5.75518 61.4155Z" fill="#1D6531"></path><path d="M10.7111 64.626C10.9757 65.6952 10.3235 66.7768 9.25435 67.0413C8.18519 67.3063 7.10357 66.6541 6.83901 65.5846C6.57446 64.5154 7.2266 63.4338 8.29576 63.1692C9.36493 62.9043 10.4462 63.5568 10.7111 64.626Z" fill="#1D6531"></path><path d="M19.0272 62.7352C19.345 64.0191 18.5623 65.3173 17.2784 65.6355C15.9945 65.9529 14.6959 65.1701 14.3781 63.8862C14.0603 62.6023 14.8434 61.3041 16.1273 60.9859C17.4108 60.6682 18.7095 61.4513 19.0272 62.7352Z" fill="#1D6531"></path><path d="M33.4388 39.1163C33.6498 39.9677 33.1301 40.8293 32.2787 41.0399C31.4269 41.2509 30.5657 40.7316 30.3551 39.8798C30.1441 39.0284 30.6634 38.1668 31.5152 37.9562C32.3666 37.7453 33.2278 38.2649 33.4388 39.1163Z" fill="#1D6531"></path><path d="M53.8126 5.59218C54.1715 7.0429 53.2869 8.50984 51.8362 8.86912C50.3854 9.22802 48.9185 8.3434 48.5592 6.89269C48.2003 5.44198 49.0849 3.97504 50.5357 3.61576C51.9864 3.25685 53.4533 4.14147 53.8126 5.59218Z" fill="#1D6531"></path><path d="M46.7178 1.80045C47.0322 3.07076 46.2574 4.35542 44.9874 4.66979C43.7171 4.98416 42.4324 4.20937 42.1181 2.93943C41.8037 1.66911 42.5781 0.384453 43.8484 0.0700812C45.1188 -0.244668 46.4034 0.530128 46.7178 1.80045Z" fill="#1D6531"></path><path d="M37.3096 23.5325L36.539 23.1019C36.2174 22.9223 35.8079 23.0385 35.6283 23.3597C35.449 23.6812 35.5649 24.0907 35.8864 24.2703L36.6107 24.6753C36.7809 24.2594 37.016 23.8729 37.3096 23.5325Z" fill="#231F20"></path><path d="M37.3096 23.5325L36.539 23.1019C36.2174 22.9223 35.8079 23.0385 35.6283 23.3597C35.449 23.6812 35.5649 24.0907 35.8864 24.2703L36.6107 24.6753C36.7809 24.2594 37.016 23.8729 37.3096 23.5325Z" fill="#44C8F5"></path><path d="M43.1778 17.7194L41.0942 16.554C40.773 16.3747 40.3632 16.4906 40.1839 16.8121C40.0043 17.1333 40.1205 17.5431 40.4417 17.7224L42.5487 18.9006C42.6864 18.4715 42.8993 18.0719 43.1778 17.7194Z" fill="#231F20"></path><path d="M43.1778 17.7194L41.0942 16.554C40.773 16.3747 40.3632 16.4906 40.1839 16.8121C40.0043 17.1333 40.1205 17.5431 40.4417 17.7224L42.5487 18.9006C42.6864 18.4715 42.8993 18.0719 43.1778 17.7194Z" fill="#44C8F5"></path><path d="M47.894 10.8465L45.9206 9.75618C45.599 9.57654 45.1895 9.69277 45.0099 10.0139C44.8306 10.3355 44.9465 10.745 45.268 10.9246L47.2192 12.0024C47.3694 11.5782 47.5992 11.1861 47.894 10.8465Z" fill="#231F20"></path><path d="M47.894 10.8465L45.9206 9.75618C45.599 9.57654 45.1895 9.69277 45.0099 10.0139C44.8306 10.3355 44.9465 10.745 45.268 10.9246L47.2192 12.0024C47.3694 11.5782 47.5992 11.1861 47.894 10.8465Z" fill="#44C8F5"></path><path d="M22.6758 41.3456L18.1746 38.8491C18.0067 39.2669 17.7663 39.6522 17.4609 39.9836L22.0233 42.514C22.3448 42.6933 22.7543 42.5774 22.9339 42.2563C23.1132 41.9347 22.997 41.5252 22.6758 41.3456Z" fill="#231F20"></path><path d="M22.6758 41.3456L18.1746 38.8491C18.0067 39.2669 17.7663 39.6522 17.4609 39.9836L22.0233 42.514C22.3448 42.6933 22.7543 42.5774 22.9339 42.2563C23.1132 41.9347 22.997 41.5252 22.6758 41.3456Z" fill="#1D6531"></path><path d="M18.4469 47.4707L11.9191 43.8148C11.7545 44.2341 11.5111 44.6187 11.202 44.947L17.7944 48.6391C18.1159 48.8187 18.5254 48.7025 18.7051 48.3813C18.8843 48.0598 18.7685 47.6503 18.4469 47.4707Z" fill="#231F20"></path><path d="M18.4469 47.4707L11.9191 43.8148C11.7545 44.2341 11.5111 44.6187 11.202 44.947L17.7944 48.6391C18.1159 48.8187 18.5254 48.7025 18.7051 48.3813C18.8843 48.0598 18.7685 47.6503 18.4469 47.4707Z" fill="#1D6531"></path><path d="M14.0895 53.6277L7.38282 49.8997C7.22885 50.3235 6.98392 50.7096 6.66992 51.0342L13.437 54.7961C13.7586 54.9757 14.168 54.8595 14.3477 54.5383C14.5269 54.2168 14.4107 53.8073 14.0895 53.6277Z" fill="#231F20"></path><path d="M14.0895 53.6277L7.38282 49.8997C7.22885 50.3235 6.98392 50.7096 6.66992 51.0342L13.437 54.7961C13.7586 54.9757 14.168 54.8595 14.3477 54.5383C14.5269 54.2168 14.4107 53.8073 14.0895 53.6277Z" fill="#1D6531"></path><path d="M7.09012 48.1452C7.45997 49.6396 6.54856 51.1511 5.05407 51.521C3.55957 51.8908 2.0481 50.9794 1.67825 49.4849C1.30803 47.9904 2.21982 46.4789 3.71431 46.1091C5.2088 45.7393 6.72027 46.6507 7.09012 48.1452Z" fill="#1D6531"></path><path d="M11.67 41.7913C12.0825 43.4578 11.0658 45.1437 9.39919 45.5562C7.73261 45.9687 6.04716 44.952 5.63428 43.2854C5.22179 41.6188 6.23812 39.933 7.90508 39.5205C9.57166 39.108 11.2575 40.1243 11.67 41.7913Z" fill="#1D6531"></path><path d="M17.9445 36.6862C18.3815 38.4521 17.3044 40.2379 15.5386 40.6749C13.7731 41.112 11.9873 40.0353 11.5499 38.269C11.1129 36.5036 12.1899 34.7177 13.9558 34.2803C15.7212 33.8433 17.5071 34.9204 17.9445 36.6862Z" fill="#1D6531"></path><path d="M44.0397 25.3324C44.5337 27.3277 43.3162 29.346 41.3209 29.84C39.3257 30.334 37.3073 29.1169 36.8133 27.1212C36.3193 25.1259 37.5364 23.1076 39.5321 22.6136C41.5274 22.1196 43.5457 23.3367 44.0397 25.3324Z" fill="#1D6531"></path><path d="M49.3361 19.2337C49.7784 21.0199 48.6888 22.8269 46.9022 23.2692C45.116 23.7115 43.3091 22.622 42.8667 20.8354C42.4248 19.0488 43.5144 17.2422 45.3006 16.7999C47.0872 16.3576 48.8938 17.4475 49.3361 19.2337Z" fill="#1D6531"></path><path d="M53.671 12.4291C54.0922 14.1307 53.0544 15.8517 51.3527 16.2732C49.651 16.6944 47.9301 15.6565 47.5085 13.9549C47.0874 12.2532 48.1252 10.5319 49.8269 10.1107C51.5286 9.68953 53.2499 10.7274 53.671 12.4291Z" fill="#1D6531"></path><path d="M75.1188 11.8327H77.3584L81.063 22.8788L84.6593 11.8752H87.4377L82.1825 26.822H79.8997L76.1957 16.1579L72.4912 26.822H70.2084L64.9537 11.8752H67.8179L71.4148 22.8788L75.1188 11.8327Z" fill="black"></path><path d="M95.5256 20.1994C95.3426 18.5493 94.2933 17.2583 92.4683 17.2583C90.7799 17.2583 89.594 18.4645 89.3427 20.1994H95.5256ZM92.8336 24.7274C94.1792 24.7274 95.1378 24.262 96.0957 23.3945L97.7158 24.7274C96.5749 25.997 95.0006 26.822 92.7878 26.822C89.2977 26.822 86.605 24.4735 86.605 21.0036C86.605 17.7876 89.0464 15.1637 92.4915 15.1637C96.3237 15.1637 98.2633 17.9567 98.2633 21.1942C98.2633 21.4266 98.2402 21.6381 98.2176 21.892H89.3653C89.6854 23.7118 91.0543 24.7274 92.8336 24.7274Z" fill="black"></path><path d="M99.9288 11H102.427V26.822H99.9288V11Z" fill="black"></path><path d="M104.925 11H107.424V26.822H104.925V11Z" fill="black"></path><path d="M113.975 26.822C112.339 26.822 110.528 26.2467 109.089 25.1381L110.266 23.3905C111.51 24.307 112.862 24.7758 114.04 24.7758C115.174 24.7758 115.828 24.307 115.828 23.5614V23.5187C115.828 22.6448 114.607 22.3463 113.255 21.9413C111.554 21.4725 109.656 20.7906 109.656 18.6373V18.5952C109.656 16.4636 111.466 15.1637 113.757 15.1637C115.196 15.1637 116.766 15.6535 117.987 16.4425L116.94 18.275C115.828 17.6149 114.651 17.2098 113.691 17.2098C112.666 17.2098 112.076 17.6786 112.076 18.3394V18.3822C112.076 19.1916 113.32 19.5328 114.672 19.9589C116.352 20.4705 118.249 21.2167 118.249 23.2412V23.284C118.249 25.6497 116.374 26.822 113.975 26.822Z" fill="black"></path><path d="M125.722 17.415C123.971 17.415 122.434 18.8519 122.434 21.0608C122.434 23.2691 123.971 24.7065 125.722 24.7065C127.494 24.7065 128.947 23.3127 128.947 21.0608C128.947 18.8307 127.473 17.415 125.722 17.415ZM126.32 26.9578C124.463 26.9578 123.288 26.0144 122.498 24.9633V30.1531H119.915V15.3993H122.498V17.2867C123.331 16.1071 124.505 15.1638 126.32 15.1638C128.989 15.1638 131.573 17.2867 131.573 21.0608C131.573 24.8349 129.011 26.9578 126.32 26.9578Z" fill="black"></path><path d="M135.855 26.822H133.238V15.3846H135.855V17.9626C136.569 16.2513 137.889 15.0819 139.9 15.1681V17.9406H139.749C137.456 17.9406 135.855 19.4354 135.855 22.4679V26.822Z" fill="black"></path><path d="M141.661 15.283H143.987V26.822H141.661V15.283ZM141.566 11H144.064V13.5132H141.566V11Z" fill="black"></path><path d="M149.326 26.822H146.562V15.4012H149.326V17.1754C150.103 16.0938 151.222 15.1637 153.094 15.1637C155.812 15.1637 157.388 16.8939 157.388 19.5542V26.822H154.625V20.3329C154.625 18.5594 153.688 17.5431 152.044 17.5431C150.445 17.5431 149.326 18.6027 149.326 20.3763V26.822Z" fill="black"></path><path d="M164.862 17.3446C163.067 17.3446 161.659 18.5847 161.659 20.4661C161.659 22.3481 163.089 23.6094 164.862 23.6094C166.655 23.6094 168.171 22.3481 168.171 20.4878C168.171 18.5847 166.655 17.3446 164.862 17.3446ZM164.648 30.1531C162.79 30.1531 161.06 29.6827 159.609 28.8061L160.57 26.8601C161.765 27.6088 163.046 28.0574 164.584 28.0574C166.89 28.0574 168.149 26.8601 168.149 24.5935V23.7168C167.211 24.9353 166.036 25.7908 164.178 25.7908C161.531 25.7908 159.053 23.8448 159.053 20.4878C159.053 17.1309 161.552 15.1638 164.178 15.1638C166.079 15.1638 167.253 16.0398 168.128 17.088V15.3986H170.712V24.3798C170.712 28.378 168.534 30.1531 164.648 30.1531Z" fill="black"></path><path d="M185.618 26.822C181.371 26.822 178.206 23.3474 178.206 18.9329C178.206 14.5623 181.308 11 185.722 11C188.408 11 190.031 11.9836 191.426 13.3824L189.781 15.3706C188.616 14.2346 187.367 13.4694 185.701 13.4694C182.911 13.4694 180.892 15.8735 180.892 18.8897C180.892 21.9053 182.911 24.3525 185.701 24.3525C187.492 24.3525 188.636 23.588 189.886 22.3638L191.53 24.1125C190.011 25.773 188.345 26.822 185.618 26.822Z" fill="black"></path><path d="M193.196 11H195.694V26.822H193.196V11Z" fill="black"></path><path d="M198.32 15.283H201.42V26.822H198.32V15.283ZM198.192 11H201.523V13.5132H198.192V11Z" fill="black"></path><path d="M206.572 26.822H204.021V15.4012H206.572V17.1754C207.289 16.0938 208.322 15.1637 210.051 15.1637C212.56 15.1637 214.014 16.8939 214.014 19.5542V26.822H211.463V20.3329C211.463 18.5594 210.599 17.5431 209.081 17.5431C207.605 17.5431 206.572 18.6027 206.572 20.3763V26.822Z" fill="black"></path><path d="M216.609 15.283H218.934V26.822H216.609V15.283ZM216.512 11H219.011V13.5132H216.512V11Z" fill="black"></path><path d="M226.72 26.822C223.244 26.822 220.676 24.2196 220.676 21.0245C220.676 17.83 223.244 15.1637 226.742 15.1637C228.956 15.1637 230.328 15.9463 231.414 17.0892L229.753 18.8032C228.934 17.9776 228.071 17.4064 226.72 17.4064C224.772 17.4064 223.355 19.0147 223.355 20.9827C223.355 22.9925 224.794 24.6008 226.853 24.6008C228.114 24.6008 229.045 24.029 229.886 23.2039L231.502 24.7274C230.351 25.9545 229 26.822 226.72 26.822Z" fill="black"></path><path d="M74.9466 38.1176H67.2257V42.5786H74.1272V43.8632H67.2257V49.3062H65.7865V36.815H74.9466V38.1176Z" fill="black"></path><path d="M80.3337 41.2996C78.4306 41.2996 77.1217 42.8092 77.1217 44.709C77.1217 46.6088 78.5155 48.1361 80.3679 48.1361C82.271 48.1361 83.5964 46.6259 83.5964 44.7431C83.5964 42.8263 82.1861 41.2996 80.3337 41.2996ZM80.3337 49.3062C77.6995 49.3062 75.7793 47.2368 75.7793 44.7431C75.7793 42.2495 77.7166 40.146 80.3679 40.146C83.0015 40.146 84.9394 42.2153 84.9394 44.709C84.9394 47.2033 82.985 49.3062 80.3337 49.3062Z" fill="black"></path><path d="M88.1632 49.3062H86.605V40.3057H88.1632V42.6557C88.9322 41.1585 90.4504 40.0792 92.4342 40.1492V41.594H92.3127C90.0255 41.594 88.1632 43.0042 88.1632 45.7203V49.3062Z" fill="black"></path><path d="M99.6679 43.6849V49.3062H98.2633V36.815H99.6679V42.3644H106.852V36.815H108.256V49.3062H106.852V43.6849H99.6679Z" fill="black"></path><path d="M114.89 41.2996C112.814 41.2996 111.386 42.8092 111.386 44.709C111.386 46.6088 112.907 48.1361 114.927 48.1361C117.004 48.1361 118.449 46.6259 118.449 44.7431C118.449 42.8263 116.911 41.2996 114.89 41.2996ZM114.89 49.3062C112.016 49.3062 109.922 47.2368 109.922 44.7431C109.922 42.2495 112.035 40.146 114.927 40.146C117.8 40.146 119.915 42.2153 119.915 44.709C119.915 47.2033 117.782 49.3062 114.89 49.3062Z" fill="black"></path><path d="M121.58 35.9823H122.413V49.3062H121.58V35.9823Z" fill="black"></path><path d="M125.006 40.2741H126.462V49.3062H125.006V40.2741ZM124.911 36.815H126.576V38.3H124.911V36.815Z" fill="black"></path><path d="M132.272 49.3062C130.878 49.3062 129.334 48.8105 128.242 48.0076L128.976 47.0673C130.031 47.7853 131.198 48.195 132.347 48.195C133.514 48.195 134.361 47.6483 134.361 46.7939V46.7601C134.361 45.8713 133.213 45.5292 131.932 45.2049C130.407 44.8112 128.713 44.3327 128.713 42.7092V42.6748C128.713 41.154 130.106 40.146 132.027 40.146C133.213 40.146 134.531 40.5219 135.529 41.1196L134.87 42.111C133.967 41.5815 132.931 41.2566 131.989 41.2566C130.841 41.2566 130.106 41.8038 130.106 42.5385V42.5729C130.106 43.4101 131.311 43.735 132.611 44.0937C134.117 44.504 135.737 45.0335 135.737 46.6232V46.657C135.737 48.332 134.211 49.3062 132.272 49.3062Z" fill="black"></path><path d="M138.948 46.4487C138.948 47.6026 139.506 48.0239 140.336 48.0239C140.751 48.0239 141.103 47.9324 141.534 47.6941V48.9033C141.103 49.1594 140.64 49.3062 140.049 49.3062C138.725 49.3062 137.719 48.5551 137.719 46.6323V40.9173H136.569V39.6719H137.719V36.8151H138.948V39.6719H141.566V40.9173H138.948V46.4487Z" fill="black"></path><path d="M143.326 40.2741H144.783V49.3062H143.326V40.2741ZM143.231 36.815H144.897V38.3H143.231V36.815Z" fill="black"></path><path d="M151.198 49.3062C148.557 49.3062 146.562 47.2199 146.562 44.7434C146.562 42.2493 148.557 40.146 151.198 40.146C152.912 40.146 153.98 40.8416 154.819 41.7067L153.927 42.623C153.21 41.8933 152.405 41.3001 151.181 41.3001C149.344 41.3001 147.945 42.809 147.945 44.7093C147.945 46.6261 149.379 48.1356 151.268 48.1356C152.423 48.1356 153.315 47.5759 154.032 46.8297L154.89 47.6101C153.98 48.5941 152.895 49.3062 151.198 49.3062Z" fill="black"></path><path d="M167.399 45.8802H167.329L162.892 39.2065V49.3062H161.552V36.815H162.944L167.381 43.6317L171.818 36.815H173.21V49.3062H171.835V39.1886L167.399 45.8802Z" fill="black"></path><path d="M182.575 44.2344C182.425 42.6401 181.413 41.2489 179.483 41.2489C177.797 41.2489 176.524 42.5212 176.336 44.2344H182.575ZM179.746 48.1697C181.075 48.1697 182.013 47.6777 182.8 46.9315L183.698 47.6607C182.724 48.6447 181.544 49.3062 179.709 49.3062C177.048 49.3062 174.875 47.4576 174.875 44.7264C174.875 42.1817 176.843 40.146 179.521 40.146C182.387 40.146 184.036 42.2158 184.036 44.7941C184.036 44.9129 184.036 45.0489 184.017 45.2013H176.336C176.542 47.101 178.041 48.1697 179.746 48.1697Z" fill="black"></path><path d="M189.449 40.8555C187.693 40.8555 186.255 42.186 186.255 44.4517C186.255 46.6631 187.729 48.0654 189.449 48.0654C191.133 48.0654 192.73 46.6269 192.73 44.4517C192.73 42.294 191.133 40.8555 189.449 40.8555ZM192.678 49.1084V47.2382C191.941 48.3536 190.87 49.3062 189.203 49.3062C187.027 49.3062 184.868 47.5439 184.868 44.4692C184.868 41.4132 187.027 39.6147 189.203 39.6147C190.887 39.6147 191.976 40.5498 192.678 41.5928V35.9823H194.029V49.1084H192.678Z" fill="black"></path><path d="M196.621 40.2741H198.078V49.3062H196.621V40.2741ZM196.527 36.815H198.192V38.3H196.527V36.815Z" fill="black"></path><path d="M204.494 49.3062C201.852 49.3062 199.858 47.2199 199.858 44.7434C199.858 42.2493 201.852 40.146 204.494 40.146C206.208 40.146 207.275 40.8416 208.115 41.7067L207.223 42.623C206.506 41.8933 205.701 41.3001 204.477 41.3001C202.639 41.3001 201.24 42.809 201.24 44.7093C201.24 46.6261 202.675 48.1356 204.563 48.1356C205.718 48.1356 206.611 47.5759 207.328 46.8297L208.185 47.6101C207.275 48.5941 206.191 49.3062 204.494 49.3062Z" fill="black"></path><path d="M209.945 40.2741H211.402V49.3062H209.945V40.2741ZM209.851 36.815H211.516V38.3H209.851V36.815Z" fill="black"></path><path d="M215.291 49.3062H214.014V40.3368H215.291V41.8981C215.854 40.9267 216.75 40.146 218.226 40.146C220.299 40.146 221.509 41.6032 221.509 43.7375V49.3062H220.232V44.0667C220.232 42.4013 219.37 41.3606 217.861 41.3606C216.385 41.3606 215.291 42.488 215.291 44.1708V49.3062Z" fill="black"></path><path d="M230.174 44.2344C230.037 42.6401 229.118 41.2489 227.363 41.2489C225.831 41.2489 224.673 42.5212 224.502 44.2344H230.174ZM227.602 48.1697C228.811 48.1697 229.663 47.6777 230.378 46.9315L231.195 47.6607C230.309 48.6447 229.237 49.3062 227.568 49.3062C225.149 49.3062 223.174 47.4576 223.174 44.7264C223.174 42.1817 224.963 40.146 227.397 40.146C230.003 40.146 231.502 42.2158 231.502 44.7941C231.502 44.9129 231.502 45.0489 231.485 45.2013H224.502C224.69 47.101 226.052 48.1697 227.602 48.1697Z" fill="black"></path><path d="M65.7865 32.6514H232.335" stroke="black" stroke-width="2.196" stroke-miterlimit="10"></path><path d="M69.9046 61.1596C69.9046 60.7311 69.5689 60.4816 68.8761 60.4816H67.4835V61.852H68.9408C69.5405 61.852 69.9046 61.6164 69.9046 61.1596ZM69.6261 59.0541C69.6261 58.6469 69.3117 58.4113 68.7478 58.4113H67.4835V59.739H68.6831C69.2476 59.739 69.6261 59.5178 69.6261 59.0541ZM70.5043 58.9108C70.5043 59.5247 70.1617 59.8389 69.7902 60.0318C70.3761 60.2316 70.7828 60.5671 70.7828 61.2526C70.7828 62.1517 70.0473 62.6299 68.9333 62.6299H66.6191V57.6334H68.8616C69.8687 57.6334 70.5043 58.126 70.5043 58.9108Z" fill="#1D6531"></path><path d="M77.0634 58.4327H75.8088V60.1103H77.0708C77.6873 60.1103 78.0798 59.7817 78.0798 59.2677C78.0798 58.7185 77.7015 58.4327 77.0634 58.4327ZM78.094 62.6299L76.8881 60.8882H75.8088V62.6299H74.9467V57.6334H77.1337C78.2624 57.6334 78.9561 58.2404 78.9561 59.2181C78.9561 60.0456 78.4723 60.5457 77.7854 60.738L79.1104 62.6299H78.094Z" fill="#1D6531"></path><path d="M83.274 62.6299H82.4413V57.6334H83.274V62.6299Z" fill="#1D6531"></path><path d="M90.2069 62.6299C88.5363 62.6299 87.4377 61.3739 87.4377 59.7231C87.4377 58.1368 88.5819 56.8007 90.1915 56.8007C91.1221 56.8007 91.6942 57.0743 92.2435 57.5655L91.6486 58.314C91.2363 57.944 90.8327 57.7101 90.1538 57.7101C89.1695 57.7101 88.4221 58.6124 88.4221 59.7068C88.4221 60.8749 89.1466 61.7283 90.2371 61.7283C90.7407 61.7283 91.198 61.5589 91.5264 61.3009V60.2462H90.1612V59.385H92.4342V61.7524C91.9078 62.2273 91.153 62.6299 90.2069 62.6299Z" fill="#1D6531"></path><path d="M97.4813 60.5244V62.6299H96.5979V57.6334H97.4813V59.7107H99.8788V57.6334H100.762V62.6299H99.8788V60.5244H97.4813Z" fill="#1D6531"></path><path d="M106.629 62.6299H105.719V58.4471H104.093V57.6334H108.256V58.4471H106.629V62.6299Z" fill="#1D6531"></path><path d="M120.617 57.6334H121.58L119.473 62.6299H118.69L116.584 57.6334H117.568L119.096 61.4459L120.617 57.6334Z" fill="#1D6531"></path><path d="M126.577 62.6299H125.744V57.6334H126.577V62.6299Z" fill="#1D6531"></path><path d="M132.343 59.2617C133.479 59.5532 134.071 59.9822 134.071 60.9294C134.071 61.9984 133.28 62.6299 132.151 62.6299C131.328 62.6299 130.553 62.3305 129.907 61.7227L130.476 61.0106C130.99 61.4803 131.505 61.7469 132.174 61.7469C132.757 61.7469 133.126 61.4639 133.126 61.0264C133.126 60.6137 132.911 60.3949 131.913 60.1525C130.768 59.861 130.123 59.5047 130.123 58.4521C130.123 57.4643 130.891 56.8007 131.959 56.8007C132.742 56.8007 133.364 57.0516 133.91 57.5134L133.403 58.266C132.919 57.8854 132.435 57.683 131.943 57.683C131.39 57.683 131.067 57.9824 131.067 58.363C131.067 58.8084 131.313 59.0023 132.343 59.2617Z" fill="#1D6531"></path><path d="M139.068 62.6299H138.235V57.6334H139.068V62.6299Z" fill="#1D6531"></path><path d="M145.305 57.7101C144.199 57.7101 143.426 58.6039 143.426 59.7068C143.426 60.8097 144.215 61.7198 145.321 61.7198C146.428 61.7198 147.2 60.826 147.2 59.7231C147.2 58.6196 146.412 57.7101 145.305 57.7101ZM145.305 62.6299C143.594 62.6299 142.399 61.3172 142.399 59.7231C142.399 58.129 143.609 56.8007 145.321 56.8007C147.033 56.8007 148.228 58.1127 148.228 59.7068C148.228 61.3009 147.017 62.6299 145.305 62.6299Z" fill="#1D6531"></path><path d="M155.73 57.6334H156.555V62.6299H155.853L153.217 59.0754V62.6299H152.391V57.6334H153.17L155.73 61.088V57.6334Z" fill="#1D6531"></path><path d="M169.001 61.1596C169.001 60.7311 168.665 60.4816 167.972 60.4816H166.58V61.852H168.036C168.636 61.852 169.001 61.6164 169.001 61.1596ZM168.722 59.0541C168.722 58.6469 168.408 58.4113 167.843 58.4113H166.58V59.739H167.779C168.343 59.739 168.722 59.5178 168.722 59.0541ZM169.601 58.9108C169.601 59.5247 169.257 59.8389 168.886 60.0318C169.472 60.2316 169.879 60.5671 169.879 61.2526C169.879 62.1517 169.143 62.6299 168.029 62.6299H165.715V57.6334H167.958C168.965 57.6334 169.601 58.126 169.601 58.9108Z" fill="#1D6531"></path><path d="M176.164 62.6299H175.253V60.6601L173.21 57.6334H174.275L175.716 59.8464L177.17 57.6334H178.206L176.164 60.6387V62.6299Z" fill="#1D6531"></path><path d="M189.871 57.6334H190.698V62.6299H189.995L187.36 59.0754V62.6299H186.534V57.6334H187.312L189.871 61.088V57.6334Z" fill="#1D6531"></path><path d="M197.346 58.0163L196.525 60.3311H198.174L197.346 58.0163ZM199.858 62.6299H198.968L198.483 61.233H196.216L195.723 62.6299H194.861L196.97 56.8007H197.75L199.858 62.6299Z" fill="#1D6531"></path><path d="M205.4 62.6299H204.309V58.4471H202.356V57.6334H207.352V58.4471H205.4V62.6299Z" fill="#1D6531"></path><path d="M214.847 60.4233C214.847 61.8919 214.026 62.6299 212.754 62.6299C211.489 62.6299 210.683 61.8919 210.683 60.4654V57.6334H211.538V60.4307C211.538 61.3438 212.003 61.8356 212.768 61.8356C213.526 61.8356 213.992 61.3722 213.992 60.4654V57.6334H214.847V60.4233Z" fill="#1D6531"></path><path d="M221.127 58.4327H219.873V60.1103H221.135C221.752 60.1103 222.144 59.7817 222.144 59.2677C222.144 58.7185 221.766 58.4327 221.127 58.4327ZM222.158 62.6299L220.952 60.8882H219.873V62.6299H219.011V57.6334H221.198C222.327 57.6334 223.021 58.2404 223.021 59.2181C223.021 60.0456 222.536 60.5457 221.85 60.738L223.174 62.6299H222.158Z" fill="#1D6531"></path><path d="M230.637 58.4188H228.12V59.7176H230.351V60.503H228.12V61.8451H230.669V62.6299H227.338V57.6334H230.637V58.4188Z" fill="#1D6531"></path><path d="M234 12.2492C234 12.939 233.254 13.4983 232.335 13.4983C231.415 13.4983 230.669 12.939 230.669 12.2492C230.669 11.5593 231.415 11.0001 232.335 11.0001C233.254 11.0001 234 11.5593 234 12.2492Z" stroke="black" stroke-width="0.658667" stroke-miterlimit="10"></path><path d="M232.348 12.0997H231.846V12.6585H232.351C232.598 12.6585 232.755 12.5494 232.755 12.3781C232.755 12.1946 232.604 12.0997 232.348 12.0997ZM232.76 13.4983L232.278 12.9177H231.846V13.4983H231.502V11.8328H232.376C232.828 11.8328 233.105 12.0355 233.105 12.3615C233.105 12.6373 232.912 12.8041 232.637 12.8683L233.167 13.4983H232.76Z" fill="black"></path><path d="M232.009 56.8008H231.827V55.4067H231.502V55.1353H232.334V55.4067H232.009V56.8008Z" fill="#356C2E"></path><path d="M233.167 56.3915H233.157L232.627 55.6113V56.8008H232.334V55.1353H232.651L233.167 55.9231L233.683 55.1353H234V56.8008H233.702V55.6062L233.167 56.3915Z" fill="#356C2E"></path></svg>