<svg xmlns="http://www.w3.org/2000/svg" width="279" height="119" viewBox="0 0 279 119" fill="none"><path d="M44.9865 104.273C45.4968 106.335 44.2397 108.42 42.1777 108.93C40.1164 109.441 38.0316 108.184 37.5213 106.122C37.011 104.06 38.2681 101.975 40.3294 101.464C42.3915 100.954 44.4762 102.212 44.9865 104.273Z" fill="white"></path><path d="M53.7638 94.242C54.2067 96.0309 53.1159 97.8404 51.3264 98.2833C49.5376 98.7261 47.7281 97.6353 47.2852 95.8458C46.8423 94.057 47.9338 92.2475 49.7226 91.8046C51.5114 91.3618 53.3209 92.4532 53.7638 94.242Z" fill="white"></path><path d="M57.9742 81.9734C58.3676 83.5612 57.3984 85.1676 55.8106 85.5611C54.2222 85.9538 52.6158 84.9853 52.223 83.3975C51.8296 81.8091 52.7981 80.2026 54.3865 79.8099C55.975 79.4164 57.5808 80.385 57.9742 81.9734Z" fill="white"></path><path d="M72.2442 10.3328C72.7899 12.5358 71.446 14.7634 69.243 15.3092C67.04 15.8549 64.8124 14.5109 64.2666 12.308C63.7209 10.105 65.0649 7.87669 67.2678 7.33163C69.4708 6.7859 71.6991 8.12985 72.2442 10.3328Z" fill="white"></path><path d="M62.8165 22.0712C63.3088 24.0604 62.0958 26.0723 60.1059 26.5653C58.1167 27.0576 56.1048 25.8439 55.6125 23.8547C55.1202 21.8655 56.3332 19.8536 58.3224 19.3606C60.3116 18.8683 62.3242 20.082 62.8165 22.0712Z" fill="white"></path><path d="M58.1513 35.9879C58.5962 37.7834 57.5007 39.6003 55.7046 40.0445C53.9084 40.4894 52.0922 39.3939 51.648 37.5984C51.2031 35.8022 52.2986 33.9854 54.0948 33.5412C55.8903 33.0963 57.7065 34.1924 58.1513 35.9879Z" fill="white"></path><path d="M76.0215 14.4946L72.862 12.7231C72.6269 13.4899 72.2054 14.1873 71.6356 14.7511L74.8666 16.5626C75.435 16.8799 76.1604 16.6748 76.4784 16.1057C76.7957 15.5373 76.5906 14.8125 76.0215 14.4946Z" fill="white"></path><path d="M76.0215 14.4946L72.862 12.7231C72.6269 13.4899 72.2054 14.1873 71.6356 14.7511L74.8666 16.5626C75.435 16.8799 76.1604 16.6748 76.4784 16.1057C76.7957 15.5373 76.5906 14.8125 76.0215 14.4946Z" fill="white"></path><path d="M67.5629 26.4086L63.4756 24.1349C63.2612 24.909 62.839 25.6131 62.2572 26.1675L66.4079 28.4766C66.9764 28.7939 67.7018 28.5889 68.0191 28.0204H68.0198C68.337 27.4513 68.1313 26.7266 67.5629 26.4086Z" fill="white"></path><path d="M67.5629 26.4086L63.4756 24.1349C63.2612 24.909 62.839 25.6131 62.2572 26.1675L66.4079 28.4766C66.9764 28.7939 67.7018 28.5889 68.0191 28.0204H68.0198C68.337 27.4513 68.1313 26.7266 67.5629 26.4086Z" fill="white"></path><path d="M60.1084 38.5063L58.8332 37.8036C58.6315 38.5844 58.1993 39.2898 57.5968 39.8269L58.9534 40.5743C59.5226 40.8916 60.2473 40.6865 60.5652 40.1174C60.8825 39.549 60.6775 38.8242 60.1084 38.5063Z" fill="white"></path><path d="M60.1084 38.5063L58.8332 37.8036C58.6315 38.5844 58.1993 39.2898 57.5968 39.8269L58.9534 40.5743C59.5226 40.8916 60.2473 40.6865 60.5652 40.1174C60.8825 39.549 60.6775 38.8242 60.1084 38.5063Z" fill="white"></path><path d="M38.0119 102.003L27.1274 95.9247C26.5583 95.6067 25.8335 95.8124 25.5156 96.3809C25.1976 96.95 25.4034 97.6754 25.9725 97.9927L36.841 104.062C37.0427 103.284 37.4508 102.575 38.0119 102.003Z" fill="white"></path><path d="M38.0119 102.003L27.1274 95.9247C26.5583 95.6067 25.8335 95.8124 25.5156 96.3809C25.1976 96.95 25.4034 97.6754 25.9725 97.9927L36.841 104.062C37.0427 103.284 37.4508 102.575 38.0119 102.003Z" fill="white"></path><path d="M52.7546 79.8728L42.3283 74.1891C41.7598 73.8718 41.0344 74.0769 40.7171 74.646C40.3992 75.2144 40.6049 75.9398 41.1734 76.2571L51.5242 81.8994C51.6999 81.1065 52.1314 80.3945 52.7546 79.8728Z" fill="white"></path><path d="M52.7546 79.8728L42.3283 74.1891C41.7598 73.8718 41.0344 74.0769 40.7171 74.646C40.3992 75.2144 40.6049 75.9398 41.1734 76.2571L51.5242 81.8994C51.6999 81.1065 52.1314 80.3945 52.7546 79.8728Z" fill="white"></path><path d="M47.6296 92.221L34.7772 85.0437C34.2081 84.7258 33.4834 84.9315 33.1654 85.5C32.8481 86.0691 33.0532 86.7938 33.6223 87.1118L46.5428 94.3271C46.6878 93.5303 47.0698 92.7975 47.6296 92.221Z" fill="white"></path><path d="M47.6296 92.221L34.7772 85.0437C34.2081 84.7258 33.4834 84.9315 33.1654 85.5C32.8481 86.0691 33.0532 86.7938 33.6223 87.1118L46.5428 94.3271C46.6878 93.5303 47.0698 92.7975 47.6296 92.221Z" fill="white"></path><path d="M63.4095 52.0814C64.4087 56.1173 61.9473 60.1992 57.9114 61.1985C53.8749 62.1978 49.7936 59.7356 48.7943 55.6998C47.7951 51.6639 50.2565 47.582 54.293 46.5827C58.3289 45.5834 62.4102 48.0456 63.4095 52.0814Z" fill="white"></path><path d="M46.6745 58.6643C47.5268 62.107 45.4267 65.5898 41.984 66.4421C38.5407 67.2945 35.0585 65.1944 34.2055 61.751C33.3539 58.3083 35.454 54.8255 38.8967 53.9739C42.3401 53.1209 45.8222 55.221 46.6745 58.6643Z" fill="white"></path><path d="M9.01975 96.8599C9.6276 99.3133 8.13069 101.795 5.67724 102.402C3.2238 103.009 0.742303 101.513 0.135121 99.0595C-0.472062 96.606 1.02418 94.1245 3.47763 93.5174C5.93107 92.9102 8.41257 94.4064 9.01975 96.8599Z" fill="white"></path><path d="M10.1861 108.703C10.7339 110.916 9.38391 113.153 7.17094 113.701C4.95796 114.25 2.72027 112.9 2.17254 110.687C1.62481 108.474 2.97477 106.236 5.18708 105.688C7.40005 105.14 9.63841 106.49 10.1861 108.703Z" fill="white"></path><path d="M18.9579 114.385C19.4261 116.278 18.2719 118.192 16.3795 118.66C14.4872 119.129 12.5728 117.975 12.1045 116.082C11.6363 114.19 12.7905 112.275 14.6829 111.807C16.5752 111.338 18.489 112.493 18.9579 114.385Z" fill="white"></path><path d="M33.6772 111.039C34.2396 113.311 32.8543 115.609 30.5818 116.172C28.3094 116.734 26.011 115.348 25.4485 113.076C24.8861 110.803 26.2721 108.506 28.5445 107.943C30.8163 107.38 33.1148 108.766 33.6772 111.039Z" fill="white"></path><path d="M59.1839 69.2349C59.5573 70.7418 58.6375 72.2668 57.1306 72.6395C55.623 73.0129 54.0987 72.0938 53.726 70.5862C53.3526 69.0792 54.2717 67.5543 55.7793 67.1815C57.2862 66.8081 58.8105 67.7279 59.1839 69.2349Z" fill="white"></path><path d="M95.2441 9.89855C95.8794 12.4662 94.3137 15.0626 91.746 15.6985C89.1783 16.3337 86.5819 14.768 85.946 12.2004C85.3108 9.63269 86.8765 7.03631 89.4442 6.4004C92.0118 5.76516 94.6082 7.33088 95.2441 9.89855Z" fill="white"></path><path d="M82.687 3.18728C83.2434 5.43566 81.8721 7.70942 79.6244 8.26583C77.376 8.82225 75.1023 7.45091 74.5458 5.20321C73.9894 2.95483 75.3601 0.681068 77.6085 0.124652C79.8569 -0.432433 82.1306 0.938904 82.687 3.18728Z" fill="white"></path><path d="M66.0355 41.6522L64.6715 40.89C64.1024 40.5721 63.3777 40.7778 63.0597 41.3463C62.7424 41.9154 62.9475 42.6401 63.5166 42.9581L64.7984 43.6748C65.0997 42.9387 65.5158 42.2547 66.0355 41.6522Z" fill="white"></path><path d="M66.0355 41.6522L64.6715 40.89C64.1024 40.5721 63.3777 40.7778 63.0597 41.3463C62.7424 41.9154 62.9475 42.6401 63.5166 42.9581L64.7984 43.6748C65.0997 42.9387 65.5158 42.2547 66.0355 41.6522Z" fill="white"></path><path d="M76.4223 31.3634L72.7344 29.3007C72.166 28.9834 71.4406 29.1885 71.1233 29.7576C70.8053 30.326 71.011 31.0514 71.5795 31.3687L75.3087 33.4541C75.5526 32.6946 75.9293 31.9872 76.4223 31.3634Z" fill="white"></path><path d="M76.4223 31.3634L72.7344 29.3007C72.166 28.9834 71.4406 29.1885 71.1233 29.7576C70.8053 30.326 71.011 31.0514 71.5795 31.3687L75.3087 33.4541C75.5526 32.6946 75.9293 31.9872 76.4223 31.3634Z" fill="white"></path><path d="M84.7698 19.1982L81.277 17.2684C80.7079 16.9504 79.9831 17.1562 79.6652 17.7246C79.3479 18.2937 79.553 19.0185 80.1221 19.3364L83.5755 21.2441C83.8413 20.4933 84.2481 19.7993 84.7698 19.1982Z" fill="white"></path><path d="M84.7698 19.1982L81.277 17.2684C80.7079 16.9504 79.9831 17.1562 79.6652 17.7246C79.3479 18.2937 79.553 19.0185 80.1221 19.3364L83.5755 21.2441C83.8413 20.4933 84.2481 19.7993 84.7698 19.1982Z" fill="white"></path><path d="M40.134 73.1801L32.1672 68.7615C31.8699 69.5009 31.4444 70.1829 30.9041 70.7694L38.9791 75.2481C39.5482 75.5654 40.273 75.3603 40.5909 74.7919C40.9082 74.2228 40.7025 73.498 40.134 73.1801Z" fill="white"></path><path d="M40.134 73.1801L32.1672 68.7615C31.8699 69.5009 31.4444 70.1829 30.9041 70.7694L38.9791 75.2481C39.5482 75.5654 40.273 75.3603 40.5909 74.7919C40.9082 74.2228 40.7025 73.498 40.134 73.1801Z" fill="white"></path><path d="M32.65 84.0216L21.0962 77.551C20.8049 78.2931 20.3741 78.9738 19.827 79.5549L31.4951 86.0896C32.0642 86.4076 32.7889 86.2018 33.1069 85.6334C33.4242 85.0643 33.2191 84.3396 32.65 84.0216Z" fill="white"></path><path d="M32.65 84.0216L21.0962 77.551C20.8049 78.2931 20.3741 78.9738 19.827 79.5549L31.4951 86.0896C32.0642 86.4076 32.7889 86.2018 33.1069 85.6334C33.4242 85.0643 33.2191 84.3396 32.65 84.0216Z" fill="white"></path><path d="M24.9372 94.9181L13.0667 88.3199C12.7942 89.07 12.3607 89.7534 11.8049 90.3278L23.7823 96.9861C24.3514 97.3041 25.0761 97.0983 25.3941 96.5299C25.7113 95.9608 25.5056 95.236 24.9372 94.9181Z" fill="white"></path><path d="M24.9372 94.9181L13.0667 88.3199C12.7942 89.07 12.3607 89.7534 11.8049 90.3278L23.7823 96.9861C24.3514 97.3041 25.0761 97.0983 25.3941 96.5299C25.7113 95.9608 25.5056 95.236 24.9372 94.9181Z" fill="white"></path><path d="M12.5488 85.2153C13.2034 87.8604 11.5902 90.5357 8.94508 91.1903C6.29993 91.8449 3.62472 90.2317 2.97011 87.5866C2.31483 84.9414 3.92864 82.2662 6.57379 81.6116C9.21894 80.957 11.8942 82.5701 12.5488 85.2153Z" fill="white"></path><path d="M20.6555 73.9688C21.3856 76.9186 19.5861 79.9024 16.6363 80.6325C13.6866 81.3626 10.7034 79.5631 9.97267 76.6133C9.24258 73.6636 11.0414 70.6798 13.9918 69.9497C16.9416 69.2196 19.9254 71.0184 20.6555 73.9688Z" fill="white"></path><path d="M31.7604 64.9341C32.5339 68.0595 30.6275 71.2204 27.5021 71.9939C24.3774 72.7674 21.2166 70.8617 20.4424 67.7356C19.6689 64.6108 21.5753 61.45 24.7007 60.6758C27.8254 59.9023 30.9862 61.8087 31.7604 64.9341Z" fill="white"></path><path d="M77.9474 44.8379C78.8217 48.3695 76.6669 51.9418 73.1353 52.8161C69.6038 53.6905 66.0315 51.5363 65.1571 48.0041C64.2828 44.4726 66.437 40.9003 69.9692 40.0259C73.5007 39.1515 77.073 41.3057 77.9474 44.8379Z" fill="white"></path><path d="M87.3219 34.0435C88.1048 37.205 86.1764 40.4032 83.0142 41.1861C79.8527 41.9689 76.6545 40.0405 75.8716 36.8784C75.0894 33.7162 77.0179 30.5187 80.1794 29.7358C83.3415 28.9529 86.5391 30.882 87.3219 34.0435Z" fill="white"></path><path d="M94.9939 21.9989C95.7394 25.0108 93.9024 28.0567 90.8906 28.8029C87.8787 29.5483 84.8328 27.7114 84.0867 24.6995C83.3412 21.6877 85.1781 18.6411 88.19 17.8956C91.2019 17.1502 94.2485 18.9871 94.9939 21.9989Z" fill="white"></path><path d="M105.284 46.3939H107.744L111.813 58.7192L115.763 46.4413H118.815L113.043 63.1191H110.535L106.467 51.22L102.397 63.1191H99.8897L94.1178 46.4413H97.2639L101.215 58.7192L105.284 46.3939Z" fill="white"></path><path d="M127.406 55.8807C127.216 54.0358 126.128 52.5923 124.235 52.5923C122.485 52.5923 121.255 53.941 120.994 55.8807H127.406ZM124.614 60.9433C126.009 60.9433 127.003 60.4229 127.997 59.453L129.677 60.9433C128.494 62.3627 126.861 63.2852 124.567 63.2852C120.948 63.2852 118.156 60.6594 118.156 56.7798C118.156 53.1842 120.687 50.2504 124.259 50.2504C128.233 50.2504 130.244 53.3732 130.244 56.9929C130.244 57.2527 130.22 57.4892 130.197 57.7731H121.018C121.35 59.8077 122.769 60.9433 124.614 60.9433Z" fill="white"></path><path d="M132.209 45.7314H135.071V63.001H132.209V45.7314Z" fill="white"></path><path d="M137.886 45.7314H140.748V63.001H137.886V45.7314Z" fill="white"></path><path d="M147.681 63.2373C145.906 63.2373 143.943 62.5987 142.382 61.3683L143.659 59.4286C145.007 60.4459 146.474 60.9662 147.751 60.9662C148.982 60.9662 149.691 60.4459 149.691 59.6183V59.5708C149.691 58.6009 148.367 58.2696 146.9 57.8201C145.055 57.2997 142.996 56.5429 142.996 54.153V54.1062C142.996 51.7403 144.96 50.2974 147.444 50.2974C149.005 50.2974 150.708 50.8412 152.033 51.7169L150.898 53.7508C149.691 53.0181 148.414 52.5685 147.373 52.5685C146.261 52.5685 145.622 53.0889 145.622 53.8223V53.8697C145.622 54.7681 146.971 55.1469 148.437 55.6198C150.259 56.1876 152.317 57.0159 152.317 59.2629V59.3103C152.317 61.9361 150.283 63.2373 147.681 63.2373Z" fill="white"></path><path d="M160.574 52.7341C158.634 52.7341 156.931 54.3192 156.931 56.7559C156.931 59.192 158.634 60.7778 160.574 60.7778C162.537 60.7778 164.146 59.2401 164.146 56.7559C164.146 54.2958 162.514 52.7341 160.574 52.7341ZM161.237 63.2613C159.179 63.2613 157.877 62.2206 157.002 61.061V66.7861H154.14V50.5104H157.002V52.5925C157.924 51.2913 159.225 50.2506 161.237 50.2506C164.194 50.2506 167.056 52.5925 167.056 56.7559C167.056 60.9194 164.217 63.2613 161.237 63.2613Z" fill="white"></path><path d="M171.765 63.001H168.903V50.51H171.765V53.3255C172.546 51.4565 173.989 50.1793 176.189 50.2735V53.3014H176.024C173.516 53.3014 171.765 54.9339 171.765 58.2457V63.001Z" fill="white"></path><path d="M177.751 50.51H180.613V63.001H177.751V50.51ZM177.633 45.8736H180.709V48.5943H177.633V45.8736Z" fill="white"></path><path d="M186.126 63.001H183.263V50.51H186.126V52.4504C186.93 51.2675 188.089 50.2502 190.029 50.2502C192.845 50.2502 194.476 52.1425 194.476 55.0522V63.001H191.614V55.9038C191.614 53.964 190.644 52.8526 188.941 52.8526C187.285 52.8526 186.126 54.0115 186.126 55.9513V63.001Z" fill="white"></path><path d="M202.639 52.6628C200.651 52.6628 199.091 54.0348 199.091 56.1161C199.091 58.1982 200.675 59.5936 202.639 59.5936C204.626 59.5936 206.306 58.1982 206.306 56.1402C206.306 54.0348 204.626 52.6628 202.639 52.6628ZM202.403 66.833C200.344 66.833 198.428 66.3127 196.819 65.3428L197.884 63.1899C199.208 64.0182 200.628 64.5145 202.331 64.5145C204.886 64.5145 206.281 63.1899 206.281 60.6824V59.7125C205.241 61.0604 203.94 62.0069 201.882 62.0069C198.949 62.0069 196.204 59.8541 196.204 56.1402C196.204 52.4263 198.972 50.2501 201.882 50.2501C203.988 50.2501 205.288 51.2193 206.258 52.3789V50.5099H209.12V60.4459C209.12 64.8692 206.708 66.833 202.403 66.833Z" fill="white"></path><path d="M225.634 63.2852C220.808 63.2852 217.213 59.5238 217.213 54.7452C217.213 50.014 220.738 46.1578 225.753 46.1578C228.805 46.1578 230.65 47.2225 232.235 48.7368L230.366 50.889C229.041 49.6593 227.622 48.831 225.729 48.831C222.559 48.831 220.265 51.4334 220.265 54.6984C220.265 57.9628 222.559 60.612 225.729 60.612C227.764 60.612 229.065 59.7843 230.484 58.4591L232.353 60.3521C230.626 62.1496 228.734 63.2852 225.634 63.2852Z" fill="white"></path><path d="M234.151 45.7314H237.014V63.001H234.151V45.7314Z" fill="white"></path><path d="M239.83 50.51H242.692V63.001H239.83V50.51ZM239.711 45.8736H242.787V48.5943H239.711V45.8736Z" fill="white"></path><path d="M248.205 63.001H245.342V50.51H248.205V52.4504C249.009 51.2675 250.168 50.2502 252.108 50.2502C254.924 50.2502 256.555 52.1425 256.555 55.0522V63.001H253.693V55.9038C253.693 53.964 252.723 52.8526 251.02 52.8526C249.363 52.8526 248.205 54.0115 248.205 55.9513V63.001Z" fill="white"></path><path d="M259.087 50.51H261.949V63.001H259.087V50.51ZM258.968 45.8736H262.044V48.5943H258.968V45.8736Z" fill="white"></path><path d="M270.372 63.2852C266.657 63.2852 263.913 60.3755 263.913 56.8032C263.913 53.2316 266.657 50.2504 270.395 50.2504C272.761 50.2504 274.227 51.1255 275.387 52.4033L273.613 54.3197C272.737 53.3966 271.815 52.758 270.372 52.758C268.29 52.758 266.776 54.5562 266.776 56.7564C266.776 59.0035 268.314 60.8017 270.514 60.8017C271.861 60.8017 272.856 60.1624 273.754 59.2399L275.481 60.9433C274.251 62.3153 272.808 63.2852 270.372 63.2852Z" fill="white"></path><path d="M104.856 75.1222H96.6929V79.9355H103.99V81.3216H96.6929V87.1943H95.1713V73.7168H104.856V75.1222Z" fill="white"></path><path d="M111.002 78.3378C108.846 78.3378 107.363 80.0511 107.363 82.2073C107.363 84.3635 108.942 86.0969 111.041 86.0969C113.197 86.0969 114.698 84.3829 114.698 82.2461C114.698 80.0705 113.101 78.3378 111.002 78.3378ZM111.002 87.4248C108.017 87.4248 105.842 85.0762 105.842 82.2461C105.842 79.4159 108.037 77.0286 111.041 77.0286C114.025 77.0286 116.22 79.3771 116.22 82.2073C116.22 85.0382 114.006 87.4248 111.002 87.4248Z" fill="white"></path><path d="M119.572 87.1943H118.09V77.2403H119.572V79.8393C120.303 78.1835 121.747 76.9898 123.634 77.0673V78.6651H123.519C121.343 78.6651 119.572 80.2248 119.572 83.2286V87.1943Z" fill="white"></path><path d="M131.82 81.1302V87.1953H130.299V73.7177H131.82V79.7054H139.598V73.7177H141.119V87.1953H139.598V81.1302H131.82Z" fill="white"></path><path d="M148.418 78.3378C146.262 78.3378 144.779 80.0511 144.779 82.2073C144.779 84.3635 146.358 86.0969 148.456 86.0969C150.613 86.0969 152.114 84.3829 152.114 82.2461C152.114 80.0705 150.516 78.3378 148.418 78.3378ZM148.418 87.4248C145.433 87.4248 143.258 85.0762 143.258 82.2461C143.258 79.4159 145.453 77.0286 148.456 77.0286C151.44 77.0286 153.636 79.3771 153.636 82.2073C153.636 85.0382 151.422 87.4248 148.418 87.4248Z" fill="white"></path><path d="M155.64 73.14H157.122V87.1953H155.64V73.14Z" fill="white"></path><path d="M159.896 77.2413H161.378V87.1953H159.896V77.2413ZM159.8 73.4292H161.494V75.0657H159.8V73.4292Z" fill="white"></path><path d="M167.309 87.3877C165.884 87.3877 164.305 86.8293 163.189 85.9248L163.939 84.8655C165.017 85.6744 166.211 86.1359 167.385 86.1359C168.579 86.1359 169.445 85.5201 169.445 84.5575V84.5194C169.445 83.5182 168.271 83.1327 166.962 82.7674C165.402 82.3238 163.67 81.7848 163.67 79.9559V79.9172C163.67 78.2038 165.095 77.0683 167.059 77.0683C168.271 77.0683 169.619 77.4918 170.639 78.1651L169.966 79.2819C169.042 78.6854 167.983 78.3194 167.02 78.3194C165.846 78.3194 165.095 78.9359 165.095 79.7635V79.8023C165.095 80.7454 166.327 81.1115 167.656 81.5156C169.196 81.9778 170.852 82.5743 170.852 84.3651V84.4032C170.852 86.2902 169.292 87.3877 167.309 87.3877Z" fill="white"></path><path d="M174.607 84.3643C174.607 85.5773 175.281 86.0202 176.282 86.0202C176.782 86.0202 177.207 85.924 177.726 85.6735V86.9447C177.207 87.2139 176.648 87.3682 175.935 87.3682C174.338 87.3682 173.125 86.5786 173.125 84.5574V78.5497H171.738V77.2404H173.125V74.2373H174.607V77.2404H177.765V78.5497H174.607V84.3643Z" fill="white"></path><path d="M179.71 77.2413H181.193V87.1953H179.71V77.2413ZM179.614 73.4292H181.308V75.0657H179.614V73.4292Z" fill="white"></path><path d="M188.317 87.4258C185.409 87.4258 183.214 85.0578 183.214 82.247C183.214 79.4162 185.409 77.0289 188.317 77.0289C190.203 77.0289 191.378 77.8184 192.302 78.8003L191.32 79.8403C190.53 79.0121 189.645 78.3388 188.297 78.3388C186.275 78.3388 184.736 80.0514 184.736 82.2083C184.736 84.3839 186.314 86.0972 188.394 86.0972C189.665 86.0972 190.646 85.462 191.435 84.615L192.379 85.5007C191.378 86.6175 190.184 87.4258 188.317 87.4258Z" fill="white"></path><path d="M205.706 83.4978H205.628L200.718 76.2971V87.1943H199.236V73.7168H200.777L205.686 81.0717L210.596 73.7168H212.136V87.1943H210.615V76.2777L205.706 83.4978Z" fill="white"></path><path d="M222.189 81.6683C222.035 79.8587 220.996 78.2797 219.012 78.2797C217.279 78.2797 215.97 79.7238 215.778 81.6683H222.189ZM219.282 86.135C220.648 86.135 221.612 85.5765 222.421 84.7296L223.344 85.5572C222.343 86.674 221.13 87.4248 219.244 87.4248C216.509 87.4248 214.276 85.3267 214.276 82.2267C214.276 79.3384 216.298 77.0279 219.051 77.0279C221.996 77.0279 223.691 79.3771 223.691 82.3035C223.691 82.4384 223.691 82.5927 223.672 82.7657H215.778C215.989 84.9219 217.53 86.135 219.282 86.135Z" fill="white"></path><path d="M229.931 78.3573C228.005 78.3573 226.427 79.7821 226.427 82.2081C226.427 84.5761 228.044 86.0777 229.931 86.0777C231.779 86.0777 233.531 84.5373 233.531 82.2081C233.531 79.8976 231.779 78.3573 229.931 78.3573ZM233.474 87.1945V85.1919C232.665 86.3863 231.49 87.4062 229.661 87.4062C227.274 87.4062 224.906 85.5192 224.906 82.2268C224.906 78.9545 227.274 77.0287 229.661 77.0287C231.509 77.0287 232.703 78.03 233.474 79.1468V73.1391H234.955V87.1945H233.474Z" fill="white"></path><path d="M237.596 77.2413H239.078V87.1953H237.596V77.2413ZM237.5 73.4292H239.194V75.0657H237.5V73.4292Z" fill="white"></path><path d="M246.203 87.4258C243.295 87.4258 241.101 85.0578 241.101 82.247C241.101 79.4162 243.295 77.0289 246.203 77.0289C248.09 77.0289 249.264 77.8184 250.188 78.8003L249.206 79.8403C248.417 79.0121 247.531 78.3388 246.184 78.3388C244.162 78.3388 242.622 80.0514 242.622 82.2083C242.622 84.3839 244.201 86.0972 246.279 86.0972C247.55 86.0972 248.532 85.462 249.322 84.615L250.265 85.5007C249.264 86.6175 248.07 87.4258 246.203 87.4258Z" fill="white"></path><path d="M252.038 77.2413H253.521V87.1953H252.038V77.2413ZM251.942 73.4292H253.636V75.0657H251.942V73.4292Z" fill="white"></path><path d="M257.641 87.1943H256.158V77.2403H257.641V78.973C258.295 77.8949 259.335 77.0285 261.049 77.0285C263.456 77.0285 264.861 78.6457 264.861 81.0143V87.1943H263.379V81.3797C263.379 79.5314 262.378 78.3765 260.626 78.3765C258.912 78.3765 257.641 79.6276 257.641 81.4952V87.1943Z" fill="white"></path><path d="M274.509 81.6683C274.355 79.8587 273.316 78.2797 271.332 78.2797C269.599 78.2797 268.29 79.7238 268.098 81.6683H274.509ZM271.602 86.135C272.968 86.135 273.932 85.5765 274.741 84.7296L275.664 85.5572C274.663 86.674 273.45 87.4248 271.564 87.4248C268.829 87.4248 266.596 85.3267 266.596 82.2267C266.596 79.3384 268.618 77.0279 271.371 77.0279C274.316 77.0279 276.011 79.3771 276.011 82.3035C276.011 82.4384 276.011 82.5927 275.992 82.7657H268.098C268.309 84.9219 269.85 86.135 271.602 86.135Z" fill="white"></path><path d="M95.0353 69.4863H276.538" stroke="white" stroke-width="2.196" stroke-miterlimit="10"></path><path d="M99.5755 100.159C99.5755 99.6631 99.1874 99.3745 98.3865 99.3745H96.7767V100.96H98.4614C99.1547 100.96 99.5755 100.687 99.5755 100.159ZM99.2536 97.7233C99.2536 97.2524 98.8902 96.9799 98.2383 96.9799H96.7767V98.5155H98.1634C98.816 98.5155 99.2536 98.2597 99.2536 97.7233ZM100.269 97.5577C100.269 98.2677 99.8728 98.6311 99.4433 98.8542C100.121 99.0853 100.591 99.4734 100.591 100.266C100.591 101.306 99.7405 101.859 98.4527 101.859H95.7775V96.0801H98.3698C99.5341 96.0801 100.269 96.6499 100.269 97.5577Z" fill="white"></path><path d="M107.102 97.0046H105.624V98.945H107.11C107.837 98.945 108.299 98.565 108.299 97.9705C108.299 97.3352 107.853 97.0046 107.102 97.0046ZM108.315 101.859L106.895 99.8448H105.624V101.859H104.609V96.0801H107.185C108.514 96.0801 109.331 96.7822 109.331 97.913C109.331 98.8702 108.761 99.4487 107.952 99.6711L109.512 101.859H108.315Z" fill="white"></path><path d="M114.52 101.858H113.504V96.0791H114.52V101.858Z" fill="white"></path><path d="M121.676 101.958C119.868 101.958 118.679 100.67 118.679 98.9775C118.679 97.351 119.918 95.981 121.66 95.981C122.667 95.981 123.286 96.2616 123.881 96.7652L123.237 97.5327C122.791 97.1533 122.354 96.9135 121.619 96.9135C120.554 96.9135 119.745 97.8387 119.745 98.9608C119.745 100.159 120.529 101.034 121.709 101.034C122.254 101.034 122.749 100.86 123.104 100.595V99.5139H121.627V98.6309H124.087V101.058C123.517 101.545 122.7 101.958 121.676 101.958Z" fill="white"></path><path d="M129.293 99.424V101.859H128.277V96.0801H129.293V98.4828H132.051V96.0801H133.066V101.859H132.051V99.424H129.293Z" fill="white"></path><path d="M139.866 101.859H138.842V97.0213H137.01V96.0801H141.699V97.0213H139.866V101.859Z" fill="white"></path><path d="M155.093 96.0797H156.191L153.788 101.9H152.897L150.495 96.0797H151.617L153.359 100.521L155.093 96.0797Z" fill="white"></path><path d="M161.125 101.858H160.109V96.0791H161.125V101.858Z" fill="white"></path><path d="M167.769 98.5067C168.991 98.804 169.627 99.2415 169.627 100.207C169.627 101.297 168.777 101.941 167.563 101.941C166.679 101.941 165.846 101.636 165.152 101.016L165.763 100.29C166.316 100.769 166.869 101.041 167.588 101.041C168.215 101.041 168.612 100.752 168.612 100.306C168.612 99.8854 168.381 99.6623 167.307 99.4152C166.077 99.1179 165.383 98.7545 165.383 97.6811C165.383 96.6738 166.209 95.9972 167.357 95.9972C168.199 95.9972 168.867 96.253 169.453 96.7239L168.909 97.4914C168.389 97.1033 167.868 96.8969 167.34 96.8969C166.746 96.8969 166.399 97.2022 166.399 97.5903C166.399 98.0445 166.663 98.2422 167.769 98.5067Z" fill="white"></path><path d="M174.767 101.858H173.751V96.0791H174.767V101.858Z" fill="white"></path><path d="M181.939 96.9135C180.792 96.9135 179.991 97.83 179.991 98.9608C179.991 100.092 180.808 101.025 181.955 101.025C183.103 101.025 183.904 100.108 183.904 98.9775C183.904 97.846 183.087 96.9135 181.939 96.9135ZM181.939 101.958C180.164 101.958 178.925 100.612 178.925 98.9775C178.925 97.343 180.18 95.981 181.955 95.981C183.731 95.981 184.969 97.3263 184.969 98.9608C184.969 100.595 183.714 101.958 181.939 101.958Z" fill="white"></path><path d="M193.106 96.0801H194.105V101.859H193.255L190.068 97.748V101.859H189.069V96.0801H190.01L193.106 100.076V96.0801Z" fill="white"></path><path d="M207.607 100.159C207.607 99.6631 207.218 99.3745 206.418 99.3745H204.808V100.96H206.492C207.185 100.96 207.607 100.687 207.607 100.159ZM207.285 97.7233C207.285 97.2524 206.921 96.9799 206.269 96.9799H204.808V98.5155H206.194C206.846 98.5155 207.285 98.2597 207.285 97.7233ZM208.3 97.5577C208.3 98.2677 207.903 98.6311 207.474 98.8542C208.151 99.0853 208.622 99.4734 208.622 100.266C208.622 101.306 207.772 101.859 206.483 101.859H203.808V96.0801H206.401C207.565 96.0801 208.3 96.6499 208.3 97.5577Z" fill="white"></path><path d="M215.116 101.859H214.092V99.5809L211.797 96.0801H212.994L214.612 98.6398L216.247 96.0801H217.411L215.116 99.5562V101.859Z" fill="white"></path><path d="M230.557 96.0801H231.557V101.859H230.706L227.52 97.748V101.859H226.52V96.0801H227.461L230.557 100.076V96.0801Z" fill="white"></path><path d="M238.414 97.2521L237.423 99.5633H239.412L238.414 97.2521ZM241.443 101.858H240.37L239.784 100.464H237.051L236.457 101.858H235.417L237.959 96.0384H238.901L241.443 101.858Z" fill="white"></path><path d="M247.005 101.859H245.981V97.0213H244.148V96.0801H248.837V97.0213H247.005V101.859Z" fill="white"></path><path d="M257.636 99.3568C257.636 101.082 256.661 101.949 255.15 101.949C253.648 101.949 252.691 101.082 252.691 99.4063V96.0791H253.705V99.3655C253.705 100.438 254.258 101.016 255.167 101.016C256.066 101.016 256.62 100.472 256.62 99.4063V96.0791H257.636V99.3568Z" fill="white"></path><path d="M264.394 97.0046H262.916V98.945H264.402C265.129 98.945 265.591 98.565 265.591 97.9705C265.591 97.3352 265.145 97.0046 264.394 97.0046ZM265.607 101.859L264.187 99.8448H262.916V101.859H261.901V96.0801H264.476C265.806 96.0801 266.623 96.7822 266.623 97.913C266.623 98.8702 266.053 99.4487 265.244 99.6711L266.804 101.859H265.607Z" fill="white"></path><path d="M275.024 96.9886H271.755V98.4908H274.652V99.3993H271.755V100.952H275.065V101.859H270.739V96.0801H275.024V96.9886Z" fill="white"></path><path d="M278.091 47.2585C278.091 48.1162 277.395 48.8115 276.538 48.8115C275.68 48.8115 274.985 48.1162 274.985 47.2585C274.985 46.4008 275.68 45.7055 276.538 45.7055C277.395 45.7055 278.091 46.4008 278.091 47.2585Z" stroke="white" stroke-width="0.658667" stroke-miterlimit="10"></path><path d="M276.612 46.5409H276.169V47.1227H276.615C276.833 47.1227 276.972 47.0091 276.972 46.8308C276.972 46.6398 276.838 46.5409 276.612 46.5409ZM276.976 47.9971L276.55 47.3926H276.169V47.9971H275.864V46.263H276.637C277.036 46.263 277.281 46.4741 277.281 46.8134C277.281 47.1007 277.11 47.2743 276.868 47.3411L277.336 47.9971H276.976Z" fill="white"></path><path d="M276.065 95.6602H275.759V94.2087H275.209V93.9261H276.615V94.2087H276.065V95.6602Z" fill="white"></path><path d="M277.714 95.234H277.704L277.162 94.4217V95.6602H276.863V93.9261H277.187L277.714 94.7464L278.242 93.9261H278.566V95.6602H278.262V94.4164L277.714 95.234Z" fill="white"></path></svg>