<svg xmlns="http://www.w3.org/2000/svg" width="1900" height="473" viewBox="0 0 1900 473" fill="none"><rect y="-71" width="1900" height="544" fill="url(#paint0_linear_372_9776)"></rect><mask id="mask0_372_9776" style="mask-type:alpha" maskUnits="userSpaceOnUse" x="0" y="-71" width="1900" height="544"><rect y="-71" width="1900" height="544" fill="url(#paint1_linear_372_9776)"></rect></mask><g mask="url(#mask0_372_9776)"><path d="M1964.7 168.495C1925.63 112.542 1861.47 77.0898 1795.69 75.0898C1729.9 73.0898 1663.91 104.614 1621.89 158.114C1598.17 188.329 1582.14 224.377 1560.59 256.353C1491.6 358.663 1362.58 411.33 1246.36 384.64C1179.07 369.163 1119.07 330.449 1057.8 297.234C988.946 259.925 916.059 228.734 839.384 217.734C762.709 206.734 681.526 217.186 614.816 258.615C568.103 287.615 530.544 330.139 488.904 366.759C436.262 413.069 376.113 450.474 310.823 472.307C254.755 491.069 194.695 498.164 136.62 488.212C36.1385 471.021 -50.0049 405.402 -132 341.687" stroke="white" stroke-opacity="0.6" stroke-width="0.25" stroke-miterlimit="10"></path><path d="M1964.34 185.448C1925.23 129.376 1861.07 93.7328 1795.17 91.3995C1729.27 89.0661 1663.15 120.233 1620.52 173.281C1595.85 203.972 1579.08 240.829 1556.8 273.544C1487.97 375.068 1360.19 428.616 1244.65 401.997C1176.7 386.33 1116.82 345.949 1055.77 311.235C987.527 272.615 914.64 240.067 837.695 229.662C763.027 219.567 684.233 229.996 619.259 270.234C570.833 300.02 531.425 343.378 488.703 381.664C435.7 428.926 375.416 468.498 309.067 489.355C252.186 507.26 192.24 510.688 134.413 499.141C36.8844 479.688 -47.4779 415.592 -125.438 351.901" stroke="white" stroke-opacity="0.6" stroke-width="0.25" stroke-miterlimit="10"></path><path d="M1963.98 202.4C1924.8 146.233 1860.66 110.352 1794.67 107.709C1728.68 105.042 1662.4 135.828 1619.16 188.424C1593.53 219.591 1576.01 257.234 1553.04 290.71C1484.34 391.473 1357.82 445.878 1242.98 419.33C1174.36 403.449 1114.61 361.425 1053.81 325.187C986.152 285.258 913.31 251.353 836.072 241.543C763.41 232.329 687.074 242.924 623.746 281.806C573.674 312.544 532.44 356.663 488.545 396.497C435.272 444.854 374.762 486.474 307.376 506.307C249.706 523.331 189.895 523.141 132.271 509.974C37.6958 488.379 -44.8629 425.711 -118.81 362.068" stroke="white" stroke-opacity="0.6" stroke-width="0.25" stroke-miterlimit="10"></path><path d="M1963.62 219.329C1924.37 163.043 1860.25 126.971 1794.15 123.995C1728.05 120.995 1661.61 151.4 1617.76 203.567C1591.18 235.21 1572.85 273.591 1549.2 307.877C1480.42 407.688 1355.41 463.14 1241.22 436.688C1171.94 420.592 1112.4 376.735 1051.75 339.187C984.815 297.734 911.883 262.663 834.374 253.496C763.719 245.139 689.795 255.829 628.158 293.425C576.395 325.02 533.335 369.925 488.313 411.402C434.702 460.759 374.034 504.522 305.588 523.331C247.13 539.498 187.476 535.712 130.032 520.879C38.4332 497.26 -42.3445 435.926 -112.301 372.282" stroke="white" stroke-opacity="0.6" stroke-width="0.25" stroke-miterlimit="10"></path><path d="M1963.26 236.281C1923.94 179.876 1859.85 143.614 1793.66 140.281C1727.46 136.947 1660.84 166.948 1616.41 218.686C1588.86 250.782 1569.76 289.972 1545.44 325.044C1476.74 424.021 1353.04 480.379 1239.53 454.021C1169.6 437.735 1110.19 392.164 1049.75 353.14C983.444 310.33 910.534 273.925 832.71 265.377C764.084 257.829 692.549 268.639 632.603 304.996C579.127 337.425 534.263 383.164 488.114 426.235C434.164 476.593 373.339 522.474 303.856 540.308C244.586 555.593 185.135 548.26 127.849 531.736C39.2487 506.188 -39.7706 446.093 -105.714 382.473" stroke="white" stroke-opacity="0.6" stroke-width="0.25" stroke-miterlimit="10"></path><path d="M1962.9 253.234C1923.52 196.71 1859.44 160.257 1793.14 156.59C1726.84 152.924 1660.01 182.495 1615.04 233.829C1586.52 266.377 1566.68 306.377 1541.65 342.211C1473.07 440.378 1350.68 497.641 1237.82 471.355C1167.21 454.855 1107.98 407.616 1047.74 367.116C982.07 322.949 909.161 285.187 831.066 277.282C764.469 270.544 695.302 281.449 637.069 316.592C581.902 349.878 535.189 396.402 487.935 441.116C433.648 492.474 372.664 540.498 302.122 557.308C242.063 571.736 182.815 560.903 125.665 542.617C40.0622 515.236 -37.221 456.259 -99.1514 392.688" stroke="white" stroke-opacity="0.6" stroke-width="0.25" stroke-miterlimit="10"></path><path d="M1962.52 270.186C1923.07 213.543 1859.02 176.876 1792.62 172.9C1726.23 168.9 1659.2 198.043 1613.66 248.996C1584.15 282.02 1563.59 322.806 1537.87 359.401C1469.4 456.783 1348.29 514.926 1236.11 488.736C1164.84 472.045 1105.75 423.116 1045.74 381.116C980.696 335.616 907.809 296.449 829.399 289.21C764.831 283.258 698.031 294.282 641.511 328.211C584.653 362.33 536.092 409.664 487.711 455.997C433.085 508.331 371.944 558.522 300.365 574.308C239.494 587.879 180.449 573.57 123.456 553.498C40.8298 524.427 -34.6725 466.45 -92.5898 402.902" stroke="white" stroke-opacity="0.6" stroke-width="0.25" stroke-miterlimit="10"></path><path d="M1962.16 287.115C1922.66 230.353 1858.61 193.495 1792.1 189.162C1725.59 184.829 1658.34 213.543 1612.28 264.091C1581.78 297.568 1560.5 339.163 1534.05 376.521C1465.7 473.093 1345.87 532.117 1234.37 506.022C1162.45 489.117 1103.5 438.521 1043.71 395.045C979.274 348.187 906.432 307.639 827.728 301.091C765.189 295.877 700.756 307.068 645.973 339.758C587.402 374.711 537.037 422.83 487.529 470.831C432.542 524.141 371.266 576.475 298.649 591.284C236.989 603.975 178.148 586.284 121.29 564.355C41.6618 533.665 -32.0819 476.593 -85.9863 413.092" stroke="white" stroke-opacity="0.6" stroke-width="0.25" stroke-miterlimit="10"></path><path d="M1961.79 304.068C1922.23 247.21 1858.2 210.139 1791.6 205.472C1725 200.805 1657.53 229.091 1610.93 279.258C1579.43 313.163 1557.43 355.592 1530.29 393.711C1462.07 489.498 1343.53 549.403 1232.67 523.379C1160.1 506.26 1101.26 453.998 1041.7 409.021C977.895 360.854 905.075 318.854 826.056 312.996C765.546 308.52 703.458 319.854 650.41 351.354C590.148 387.14 537.912 436.069 487.322 485.712C431.975 539.998 370.563 594.499 296.887 608.284C234.438 620.118 175.799 599.07 119.077 575.237C42.402 543.046 -29.5382 486.783 -79.4521 423.307" stroke="white" stroke-opacity="0.6" stroke-width="0.25" stroke-miterlimit="10"></path><path d="M1961.43 321.02C1921.8 264.044 1857.79 226.781 1791.08 221.781C1724.37 216.781 1656.67 244.591 1609.55 294.401C1577.07 328.758 1554.34 372.021 1526.5 410.878C1458.41 505.879 1341.14 566.665 1230.98 540.736C1157.74 523.427 1099.05 469.498 1039.71 423.021C976.521 373.521 903.747 330.044 824.412 324.925C765.954 321.163 706.188 332.663 654.876 362.973C592.901 399.592 538.838 449.307 487.143 500.593C431.435 555.855 369.888 612.522 295.175 625.284C231.915 636.261 173.501 611.903 116.914 586.118C43.1929 552.522 -26.9662 496.95 -72.8447 433.521" stroke="white" stroke-opacity="0.6" stroke-width="0.25" stroke-miterlimit="10"></path><path d="M1961.08 337.973C1921.38 280.877 1857.39 243.424 1790.59 238.067C1723.79 232.71 1655.82 260.091 1608.21 309.52C1574.71 344.306 1551.3 388.402 1522.74 428.021C1454.81 522.26 1338.8 583.903 1229.3 558.046C1155.4 540.522 1096.83 484.95 1037.74 436.95C975.152 386.14 902.445 341.163 822.795 336.806C766.365 333.711 708.944 345.401 659.368 374.544C595.679 411.973 539.791 462.498 486.991 515.45C430.923 571.689 369.24 630.499 293.467 642.285C229.418 652.38 171.185 624.808 114.756 596.999C43.9426 562.117 -24.3679 507.141 -66.2334 443.712" stroke="white" stroke-opacity="0.6" stroke-width="0.25" stroke-miterlimit="10"></path><path d="M1960.69 354.902C1920.92 297.687 1856.97 260.02 1790.05 254.353C1723.14 248.686 1654.92 275.568 1606.81 324.663C1572.29 359.878 1548.19 404.83 1518.91 445.188C1451.12 538.641 1336.36 601.141 1227.54 575.379C1152.98 557.641 1094.55 500.426 1035.66 450.926C973.686 398.807 901.024 352.306 821.058 348.711C766.68 346.282 711.581 358.163 663.741 386.116C598.316 424.354 540.602 475.688 486.72 530.284C430.291 587.475 368.473 648.475 291.663 659.237C226.802 668.475 168.749 637.737 112.5 607.832C44.5732 571.736 -21.8661 517.26 -59.7412 453.878" stroke="white" stroke-opacity="0.6" stroke-width="0.25" stroke-miterlimit="10"></path><path d="M1960.32 371.854C1920.49 314.52 1856.55 276.663 1789.55 270.663C1722.55 264.663 1654.05 291.068 1605.45 339.806C1569.92 375.425 1545.14 421.235 1515.13 462.378C1447.5 555.07 1333.99 618.427 1225.84 592.76C1150.61 574.832 1092.31 515.95 1033.67 464.926C972.28 411.497 899.709 363.425 819.427 360.64C767.101 358.83 714.323 370.949 668.22 397.735C601.081 436.783 541.518 488.926 486.554 545.189C429.742 603.332 367.811 666.523 289.964 676.261C224.314 684.618 166.374 650.808 110.351 618.737C45.2866 581.522 -19.2815 527.474 -53.1211 464.117" stroke="white" stroke-opacity="0.6" stroke-width="0.25" stroke-miterlimit="10"></path><path d="M1959.97 388.807C1920.09 331.378 1856.15 293.306 1789.03 286.972C1721.92 280.639 1653.18 306.568 1604.08 354.973C1567.53 390.997 1542.08 437.688 1511.35 479.569C1443.9 571.498 1331.62 635.713 1224.13 610.118C1148.25 591.975 1090.03 531.474 1031.67 478.926C970.886 424.212 898.382 374.521 817.762 372.592C767.488 371.378 717.01 383.735 672.687 409.378C603.813 449.212 542.424 502.165 486.378 560.094C429.182 619.189 367.139 684.547 288.232 693.309C221.77 700.809 163.943 663.952 108.168 629.666C45.8991 591.403 -16.7075 537.712 -46.5342 474.379" stroke="white" stroke-opacity="0.6" stroke-width="0.25" stroke-miterlimit="10"></path><path d="M1959.61 405.759C1919.66 348.211 1855.74 309.949 1788.54 303.258C1721.33 296.591 1652.3 322.02 1602.73 370.092C1565.14 406.545 1539.04 454.093 1507.56 496.712C1440.27 587.903 1329.24 652.927 1222.42 627.427C1145.88 609.07 1087.78 546.95 1029.64 492.855C969.445 436.854 897.008 385.497 816.095 384.449C767.872 383.83 719.717 396.426 677.13 420.926C606.52 461.521 543.304 515.307 486.154 574.927C428.574 634.975 366.419 702.523 286.475 710.261C219.224 716.904 161.442 677.094 105.937 640.499C46.4189 601.237 -14.1813 547.831 -40.0176 484.545" stroke="white" stroke-opacity="0.6" stroke-width="0.25" stroke-miterlimit="10"></path><path d="M1959.25 422.688C1919.23 365.021 1855.34 326.544 1788.02 319.544C1720.7 312.544 1651.4 337.473 1601.35 385.211C1562.73 422.045 1535.97 470.498 1503.78 513.855C1436.66 604.284 1326.87 670.166 1220.71 644.761C1143.49 626.213 1085.51 562.451 1027.63 506.831C968.026 449.545 895.68 396.473 814.429 396.354C768.257 396.283 722.402 409.164 681.573 432.497C609.227 473.855 544.186 528.498 485.953 589.784C427.99 650.785 365.722 720.523 284.718 727.238C216.679 733 158.874 690.333 103.729 651.356C46.9168 611.189 -11.6318 557.998 -33.4551 494.736" stroke="white" stroke-opacity="0.6" stroke-width="0.25" stroke-miterlimit="10"></path><path d="M1958.89 439.64C1918.8 381.854 1854.93 343.187 1787.52 335.854C1720.12 328.52 1650.52 352.925 1599.97 400.378C1560.32 437.616 1532.9 486.95 1499.99 531.046C1433.05 620.737 1324.48 687.452 1219.01 662.118C1141.14 643.356 1083.25 577.975 1025.65 520.807C966.626 462.236 894.371 407.402 812.781 408.283C768.639 408.759 725.105 421.926 686.035 444.116C611.93 486.236 545.085 541.712 485.77 604.665C427.424 666.594 365.043 738.547 283.003 744.262C214.151 749.166 156.279 703.69 101.563 662.261C47.3882 621.237 -9.06378 568.189 -26.8516 504.95" stroke="white" stroke-opacity="0.6" stroke-width="0.25" stroke-miterlimit="10"></path><path d="M1958.5 456.593C1918.35 398.688 1854.5 359.83 1786.98 352.14C1719.46 344.473 1649.57 368.354 1598.58 415.497C1557.88 453.117 1529.82 503.355 1496.18 548.189C1429.42 637.142 1322.07 704.69 1217.28 679.428C1138.76 660.452 1080.95 593.451 1023.62 534.736C965.161 474.879 892.995 418.212 811.113 420.14C769.022 421.116 727.788 434.593 690.476 455.664C614.613 498.498 545.942 554.855 485.567 619.499C426.838 682.38 364.344 756.5 281.245 761.214C211.604 765.238 153.551 717.047 99.3539 673.094C47.749 631.237 -6.51611 578.332 -20.3135 515.117" stroke="white" stroke-opacity="0.6" stroke-width="0.25" stroke-miterlimit="10"></path><path d="M1958.15 473.545C1917.93 415.521 1854.1 376.473 1786.49 368.449C1718.88 360.449 1648.7 383.807 1597.23 430.664C1555.5 468.664 1526.87 519.879 1492.4 565.379C1426 653.713 1319.7 721.952 1215.57 696.809C1136.37 677.642 1078.68 609.023 1021.59 548.76C963.699 487.641 891.624 429.069 809.426 432.093C769.387 433.569 730.452 447.355 694.921 467.307C617.3 510.855 546.712 567.975 485.368 634.404C426.143 698.119 363.649 774.548 279.513 778.238C209.06 781.405 150.782 730.547 97.1709 683.999C48.091 641.356 -3.94216 588.522 -13.7266 525.355" stroke="white" stroke-opacity="0.6" stroke-width="0.25" stroke-miterlimit="10"></path><path d="M1957.78 490.474C1917.49 432.354 1853.69 393.068 1785.97 384.735C1718.24 376.378 1647.77 399.235 1595.85 445.783C1553.06 484.164 1523.8 536.284 1488.6 582.522C1422.37 670.094 1317.31 739.19 1213.85 714.118C1134 694.737 1076.28 624.618 1019.58 562.689C962.161 500.379 890.266 439.735 807.775 443.95C769.765 445.902 733.152 460.021 699.38 478.831C619.978 523.046 547.609 581.117 485.183 649.213C425.597 713.904 362.968 792.5 277.794 795.191C206.553 797.5 147.914 744.047 95.0017 694.833C48.3566 651.428 -1.35445 598.665 -7.14844 535.522" stroke="white" stroke-opacity="0.6" stroke-width="0.25" stroke-miterlimit="10"></path><path d="M1957.42 507.426C1917.09 449.188 1853.29 409.711 1785.48 401.045C1717.66 392.354 1646.8 414.592 1594.5 460.926C1550.6 499.593 1520.73 552.689 1484.84 599.713C1418.74 686.499 1314.97 756.476 1212.16 731.5C1131.66 711.928 1074.05 640.142 1017.6 576.713C960.79 513.093 888.918 450.426 806.133 455.926C770.152 458.307 735.816 472.76 703.848 490.498C622.552 535.212 548.538 594.403 485.007 664.142C425.06 729.809 362.296 810.548 276.062 812.238C204.032 813.667 144.92 757.714 92.8187 705.761C48.5409 661.594 1.19696 608.903 -0.561523 545.784" stroke="white" stroke-opacity="0.6" stroke-width="0.25" stroke-miterlimit="10"></path><path d="M1957.06 524.379C1916.66 466.021 1852.88 426.354 1784.95 417.33C1717.02 408.307 1645.94 430.092 1593.12 476.069C1548.21 515.165 1517.66 569.117 1481.02 616.88C1415.06 702.904 1312.55 773.714 1210.42 748.833C1129.24 729.047 1071.77 655.594 1015.54 590.665C959.317 525.736 887.49 460.926 804.435 467.807C770.483 470.617 738.492 485.498 708.26 502.069C625.25 547.57 549.387 607.594 484.774 678.999C424.467 745.619 361.567 828.548 274.296 829.215C201.454 829.786 141.779 771.357 90.6021 716.618C48.6013 671.69 3.73728 619.046 5.99176 555.974" stroke="white" stroke-opacity="0.6" stroke-width="0.25" stroke-miterlimit="10"></path><path d="M5.16113 548.069C9.55735 585.427 39.1811 623.237 70.6084 661.904C84.1353 678.547 98.4962 694.88 113.173 709.356C155.331 750.952 200.759 796.524 254.821 811.429C267.649 814.976 280.883 816.857 294.59 816.643C380.26 815.405 442.596 735.38 502.407 670.737C566.479 601.475 641.193 542.831 722.759 498.188C752.699 481.807 784.306 467.093 817.853 463.902C899.893 456.116 971.405 516.974 1027.99 578.808C1053.67 606.832 1079.6 636.689 1107.73 662.951C1141.64 694.642 1178.7 721.047 1222.33 732.428C1227.08 733.666 1231.84 734.714 1236.6 735.547C1282.3 743.666 1327.52 733.857 1369.39 712.761C1415.04 689.856 1456.68 653.475 1489.82 613.26C1503.71 596.403 1516.76 578.641 1530.06 561.117C1552.22 531.855 1574.97 503.141 1603.06 479.878C1655.93 436.092 1726.2 415.092 1793.41 423.14C1860.61 431.188 1923.81 468.14 1964.63 522.617" stroke="white" stroke-opacity="0.6" stroke-width="0.25" stroke-miterlimit="10"></path><path d="M4.3252 540.141C14.7183 570.689 52.4356 607.284 87.8308 649.761C103.116 668.094 118.943 686.594 135.738 702.071C178.325 741.309 222.603 785.5 275.809 799.333C288.411 802.619 301.419 804.333 314.856 804.048C398.925 802.238 460.698 725.142 520.013 662.475C583.544 595.332 657.107 538.093 737.231 494.307C766.855 478.14 798.124 463.545 831.243 459.997C912.268 451.283 983.442 508.188 1040.41 566.927C1066.32 593.546 1092.42 622.118 1120.63 647.523C1154.53 678.166 1191.35 704.095 1234.21 716.047C1238.87 717.357 1243.56 718.476 1248.23 719.404C1293.07 728.357 1337.21 720.547 1378.49 701.642C1423.54 681.166 1465.09 647.38 1498.61 609.641C1512.63 593.808 1525.91 577.094 1539.37 560.546C1561.85 532.927 1584.89 505.736 1613 483.64C1665.92 442.069 1735.38 421.83 1801.84 428.902C1868.3 435.973 1930.93 470.212 1972.19 520.807" stroke="white" stroke-opacity="0.6" stroke-width="0.25" stroke-miterlimit="10"></path><path d="M3.49805 532.236C19.8655 555.998 65.6989 591.332 105.085 637.618C122.128 657.642 139.353 678.309 158.335 694.785C201.08 731.904 244.501 774.476 296.85 787.262C309.227 790.309 321.987 791.833 335.176 791.452C417.644 789.095 478.831 714.904 537.672 654.189C600.64 589.165 673.076 533.331 751.735 490.402C781.043 474.426 811.951 459.997 844.641 456.069C924.652 446.45 995.488 499.402 1052.84 555.046C1078.95 580.26 1105.28 607.522 1133.53 632.07C1167.44 661.642 1204 687.118 1246.12 699.618C1250.72 700.975 1255.29 702.166 1259.87 703.19C1303.83 712.975 1346.89 707.071 1387.59 690.452C1432 672.332 1473.48 641.237 1507.41 605.975C1521.59 591.189 1535.05 575.498 1548.71 559.927C1571.48 533.95 1594.82 508.307 1622.98 487.379C1675.93 448.021 1744.58 428.545 1810.32 434.64C1876.06 440.735 1938.11 472.259 1979.77 518.998" stroke="white" stroke-opacity="0.6" stroke-width="0.25" stroke-miterlimit="10"></path><path d="M2.66211 524.331C25.0039 541.284 78.9534 575.403 122.307 625.475C141.109 647.189 159.709 670.023 180.901 687.499C223.623 722.69 266.368 763.476 317.837 775.19C330.011 777.976 342.524 779.309 355.419 778.857C436.287 775.928 496.91 704.666 555.256 645.927C617.682 583.022 688.968 528.569 766.184 486.522C795.199 470.736 825.747 456.45 858.009 452.164C937.005 441.64 1007.5 490.617 1065.24 543.189C1091.57 566.998 1118.08 592.975 1146.4 616.665C1180.31 645.166 1216.65 670.19 1257.97 683.261C1262.48 684.69 1266.99 685.952 1271.48 687.071C1314.58 697.69 1356.56 693.761 1396.65 679.38C1440.45 663.666 1481.84 635.189 1516.16 602.403C1530.47 588.641 1544.16 573.998 1558 559.403C1581.09 535.07 1604.71 510.95 1632.89 491.212C1685.9 454.069 1753.71 435.354 1818.75 440.474C1883.77 445.593 1945.23 474.402 1987.32 517.26" stroke="white" stroke-opacity="0.6" stroke-width="0.25" stroke-miterlimit="10"></path><path d="M1.82227 516.426C30.1384 526.569 92.204 559.451 139.525 613.356C160.086 636.761 180.016 661.809 203.462 680.237C246.027 713.666 288.23 752.476 338.843 763.119C350.792 765.666 363.079 766.809 375.704 766.285C454.971 762.809 515.03 694.428 572.88 637.665C634.765 576.879 704.902 523.831 780.674 482.64C809.374 467.069 839.584 452.902 871.417 448.259C949.399 436.807 1019.47 481.974 1077.68 531.308C1104.19 553.784 1130.93 578.403 1159.31 601.213C1193.24 628.665 1229.31 653.213 1269.87 666.832C1274.29 668.332 1278.71 669.666 1283.13 670.856C1325.38 682.285 1366.27 680.356 1405.75 668.19C1448.97 654.904 1490.25 629.023 1524.97 598.737C1539.44 586.022 1553.3 572.403 1567.35 558.784C1590.75 536.093 1614.67 513.498 1642.85 494.926C1695.92 459.974 1762.9 442.045 1827.2 446.188C1891.5 450.331 1952.39 476.426 1994.89 515.426" stroke="white" stroke-opacity="0.6" stroke-width="0.25" stroke-miterlimit="10"></path><path d="M1.01562 508.498C35.3061 511.831 105.488 543.474 156.777 601.189C179.096 626.284 200.311 653.594 226.057 672.928C268.373 704.69 310.126 741.428 359.86 751.023C371.606 753.309 383.645 754.285 395.999 753.666C473.666 749.619 533.161 684.166 590.515 629.38C651.836 570.736 720.823 519.069 795.153 478.736C823.537 463.355 853.386 449.355 884.813 444.331C961.781 431.973 1031.51 473.212 1090.11 519.426C1116.82 540.498 1143.78 563.832 1172.21 585.784C1206.14 612.165 1241.99 636.261 1281.76 650.427C1286.11 651.975 1290.44 653.404 1294.74 654.689C1336.11 666.951 1375.95 666.999 1414.84 657.07C1457.45 646.189 1498.68 623.023 1533.74 595.118C1548.37 583.475 1562.44 570.832 1576.64 558.213C1600.36 537.165 1624.55 516.117 1652.78 498.712C1705.89 465.974 1772.06 448.807 1835.64 451.974C1899.21 455.14 1959.52 478.521 2002.45 513.641" stroke="white" stroke-opacity="0.6" stroke-width="0.25" stroke-miterlimit="10"></path><path d="M0.175781 500.593C40.4632 497.141 118.738 527.546 173.996 589.046C198.073 615.832 220.55 645.428 248.619 665.642C290.574 695.857 331.989 730.428 380.866 738.952C392.386 741 404.177 741.785 416.284 741.071C492.349 736.476 551.281 673.928 608.139 621.094C668.92 564.57 736.757 514.308 809.644 474.831C837.734 459.64 867.223 445.783 898.199 440.402C974.152 427.14 1043.55 464.426 1102.52 507.546C1129.46 527.236 1156.61 549.26 1185.1 570.356C1219.03 595.689 1254.63 619.285 1293.63 634.047C1297.89 635.666 1302.16 637.166 1306.37 638.523C1346.88 651.618 1385.66 653.642 1423.92 645.928C1465.94 637.475 1507.06 616.927 1542.5 591.499C1557.29 580.879 1571.54 569.284 1585.95 557.665C1609.96 538.26 1634.46 518.736 1662.71 502.522C1715.87 471.998 1781.23 455.593 1844.09 457.783C1906.94 459.974 1966.66 480.641 2010.01 511.879" stroke="white" stroke-opacity="0.6" stroke-width="0.25" stroke-miterlimit="10"></path><path d="M-0.652344 492.688C45.6094 482.426 132.001 511.593 191.226 576.927C217.084 605.403 240.756 637.332 271.192 658.38C312.764 687.142 353.863 719.428 401.861 726.904C413.156 728.69 424.721 729.309 436.557 728.5C511.022 723.333 569.391 663.69 625.73 612.856C685.947 558.451 752.657 509.593 824.078 470.974C851.853 455.998 881.004 442.283 911.552 436.497C986.49 422.331 1055.54 455.688 1114.91 495.688C1142.05 513.974 1169.44 534.641 1197.96 554.927C1231.93 579.117 1267.24 602.332 1305.5 617.642C1309.67 619.308 1313.84 620.88 1317.99 622.356C1357.62 636.285 1395.36 640.285 1432.99 634.808C1474.43 628.784 1515.43 610.832 1551.28 587.879C1566.23 578.308 1580.68 567.736 1595.27 557.094C1619.59 539.331 1644.39 521.331 1672.64 506.284C1725.84 477.974 1790.37 462.331 1852.5 463.545C1914.63 464.759 1973.77 482.712 2017.55 510.093" stroke="white" stroke-opacity="0.6" stroke-width="0.25" stroke-miterlimit="10"></path><path d="M-1.4873 484.759C50.7488 467.688 145.256 495.64 208.449 564.76C236.066 594.927 260.933 629.213 293.758 651.07C334.88 678.428 375.731 708.38 422.872 714.785C433.964 716.333 445.281 716.761 456.847 715.88C529.711 710.166 587.493 653.427 643.359 604.546C703.035 552.26 768.595 504.807 838.574 467.045C866.033 452.259 894.823 438.688 924.965 432.545C998.889 417.449 1067.61 446.878 1127.35 483.759C1154.72 500.664 1182.31 519.998 1210.88 539.45C1244.87 562.57 1279.93 585.332 1317.4 601.189C1321.5 602.927 1325.58 604.57 1329.64 606.118C1368.42 620.856 1405.08 626.856 1442.12 623.594C1482.95 619.999 1523.87 604.665 1560.09 584.189C1575.18 575.665 1589.83 566.117 1604.62 556.45C1629.26 540.331 1654.33 523.879 1682.63 509.998C1735.88 483.879 1799.59 469.021 1861 469.259C1922.41 469.497 1980.96 484.736 2025.17 508.236" stroke="white" stroke-opacity="0.6" stroke-width="0.25" stroke-miterlimit="10"></path><path d="M-2.32324 476.855C55.8872 452.974 158.511 479.688 225.671 552.617C255.047 584.475 281.086 621.213 316.324 643.785C356.972 669.809 397.597 697.38 443.882 702.714C454.748 703.999 465.84 704.261 477.135 703.285C548.399 696.999 605.617 643.189 660.987 596.284C720.1 546.117 784.532 500.069 853.068 463.164C880.235 448.569 908.664 435.14 938.377 428.64C1011.29 412.64 1079.67 438.116 1139.79 471.902C1167.36 487.403 1195.16 505.45 1223.79 524.022C1257.79 546.07 1292.6 568.379 1329.3 584.808C1333.32 586.618 1337.31 588.332 1341.27 589.975C1379.19 605.546 1414.79 613.546 1451.2 612.499C1491.47 611.332 1532.25 598.618 1568.89 580.594C1584.13 573.094 1598.98 564.57 1613.95 555.903C1638.91 541.451 1664.27 526.498 1692.59 513.807C1745.88 489.903 1808.78 475.807 1869.47 475.069C1930.16 474.331 1988.13 486.855 2032.74 506.474" stroke="white" stroke-opacity="0.6" stroke-width="0.25" stroke-miterlimit="10"></path><path d="M-3.13477 468.95C61.05 438.283 171.79 463.759 242.918 540.498C274.052 574.046 301.219 613.284 338.914 636.523C379.043 661.261 419.488 686.38 464.893 690.666C475.557 691.713 486.379 691.785 497.426 690.713C567.089 683.856 623.744 632.975 678.617 588.022C737.189 539.998 800.471 495.331 867.542 459.307C894.393 444.926 922.461 431.64 951.769 424.759C1023.66 407.854 1091.73 429.378 1152.21 460.069C1180.01 474.164 1207.99 490.926 1236.69 508.641C1270.69 529.641 1305.25 551.474 1341.18 568.451C1345.11 570.308 1349.03 572.117 1352.91 573.855C1389.95 590.26 1424.51 600.26 1460.29 601.403C1499.97 602.689 1540.61 592.546 1577.66 577.022C1593.03 570.57 1608.09 563.07 1623.24 555.379C1648.51 542.569 1674.17 529.165 1702.51 517.617C1755.85 495.926 1817.94 482.593 1877.91 480.878C1937.87 479.164 1995.25 488.974 2040.3 504.736" stroke="white" stroke-opacity="0.6" stroke-width="0.25" stroke-miterlimit="10"></path><path d="M-3.96973 461.045C66.212 423.569 185.045 447.807 260.142 528.355C293.034 563.594 321.305 605.38 361.48 629.237C401.091 652.761 441.356 675.356 485.904 678.571C496.343 679.356 506.939 679.261 517.715 678.095C585.777 670.69 641.869 622.689 696.247 579.737C754.254 533.831 816.41 490.569 882.037 455.402C908.595 441.212 936.303 428.069 965.16 420.831C1036.04 402.997 1103.76 420.569 1164.64 448.164C1192.66 460.879 1220.84 476.307 1249.58 493.165C1283.58 513.093 1317.92 534.474 1353.09 551.998C1356.94 553.927 1360.77 555.808 1364.56 557.617C1400.75 574.856 1434.25 586.856 1469.42 590.189C1508.51 593.903 1549.05 586.38 1586.47 573.308C1602 567.879 1617.27 561.427 1632.6 554.736C1658.16 543.57 1684.11 531.689 1712.47 521.331C1765.88 501.855 1827.13 489.284 1886.36 486.593C1945.61 483.903 2002.42 490.998 2047.87 502.879" stroke="white" stroke-opacity="0.6" stroke-width="0.25" stroke-miterlimit="10"></path><path d="M-4.79785 453.116C71.3582 408.83 198.285 431.854 277.394 516.188C312.046 553.117 341.376 597.546 384.076 621.927C423.168 644.261 463.23 664.308 506.922 666.475C517.157 667.023 527.505 666.737 537.989 665.499C604.45 657.523 659.978 612.451 713.86 571.451C771.326 527.665 832.332 485.807 896.517 451.497C922.759 437.497 950.129 424.521 978.557 416.902C1048.42 398.164 1115.83 411.783 1177.06 436.283C1205.31 447.592 1233.67 461.735 1262.49 477.736C1296.48 496.593 1330.57 517.498 1364.97 535.617C1368.74 537.617 1372.48 539.546 1376.2 541.474C1411.53 559.546 1443.97 573.546 1478.51 579.093C1517.02 585.284 1557.42 580.308 1595.27 569.736C1610.94 565.355 1626.4 559.927 1641.94 554.212C1667.82 544.688 1694.06 534.331 1722.44 525.164C1775.9 507.879 1836.32 496.093 1894.84 492.426C1953.37 488.759 2009.59 493.14 2055.47 501.14" stroke="white" stroke-opacity="0.6" stroke-width="0.25" stroke-miterlimit="10"></path><path d="M-5.63281 445.212C76.4976 394.116 211.54 415.902 294.618 504.069C331.027 542.689 361.418 589.808 406.642 614.665C445.194 635.832 485.098 653.332 527.933 654.427C537.943 654.713 548.065 654.261 558.278 652.927C623.117 644.404 678.081 602.237 731.489 563.212C788.392 521.546 848.271 481.093 910.99 447.64C936.917 433.831 963.925 420.997 991.948 413.021C1060.8 393.378 1127.89 403.021 1189.48 424.45C1217.96 434.354 1246.5 447.212 1275.4 462.355C1309.4 480.164 1343.24 500.593 1376.88 519.26C1380.57 521.307 1384.23 523.331 1387.83 525.331C1422.28 544.212 1453.69 560.26 1487.59 567.974C1525.51 576.617 1565.8 574.213 1604.04 566.117C1619.86 562.76 1635.53 558.355 1651.25 553.641C1677.44 545.76 1703.98 536.95 1732.38 528.927C1785.88 513.855 1845.49 502.831 1903.3 498.188C1961.08 493.545 2016.74 495.212 2063.05 499.355" stroke="white" stroke-opacity="0.6" stroke-width="0.25" stroke-miterlimit="10"></path><path d="M-6.47266 437.307C81.6321 379.425 224.791 399.973 311.836 491.926C350.004 532.236 381.387 582.165 429.204 607.38C467.214 627.427 506.961 642.308 548.916 642.332C558.701 642.356 568.575 641.737 578.54 640.308C641.778 631.213 696.178 591.951 749.091 554.903C805.453 515.379 864.182 476.307 925.458 443.712C951.091 430.116 977.739 417.402 1005.33 409.068C1073.17 388.521 1139.95 394.187 1201.9 412.521C1230.58 421.021 1259.32 432.592 1288.29 446.854C1322.29 463.617 1355.9 483.569 1388.75 502.783C1392.36 504.903 1395.92 506.998 1399.46 509.093C1433.05 528.807 1463.4 546.855 1496.7 556.784C1534.03 567.903 1574.2 568.046 1612.82 562.451C1628.79 560.141 1644.66 556.76 1660.55 553.022C1687.06 546.784 1713.87 539.498 1742.32 532.665C1795.86 519.807 1854.66 509.545 1911.72 503.926C1968.78 498.307 2023.86 497.26 2070.59 497.522" stroke="white" stroke-opacity="0.6" stroke-width="0.25" stroke-miterlimit="10"></path><path d="M-7.30859 429.402C86.793 364.711 238.045 384.021 329.058 479.807C368.985 521.807 401.359 574.617 451.769 600.117C489.216 619.07 528.827 631.308 569.926 630.284C579.508 630.07 589.134 629.26 598.828 627.737C660.466 618.094 714.302 581.736 766.719 546.665C822.54 509.26 880.096 471.593 939.93 439.854C965.248 426.449 991.557 413.902 1018.72 405.187C1085.55 383.711 1151.99 385.425 1214.32 400.687C1243.22 407.759 1272.13 418.14 1301.19 431.473C1335.16 447.235 1368.55 466.664 1400.63 486.45C1404.15 488.617 1407.64 490.807 1411.09 492.974C1443.83 513.522 1473.09 533.617 1505.78 545.688C1542.51 559.284 1582.57 561.974 1621.61 558.855C1637.73 557.569 1653.81 555.236 1669.88 552.474C1696.71 547.879 1723.81 542.117 1752.26 536.474C1805.85 525.831 1863.83 516.331 1920.17 509.736C1976.51 503.141 2031 499.379 2078.14 495.783" stroke="white" stroke-opacity="0.6" stroke-width="0.25" stroke-miterlimit="10"></path><path d="M-8.12012 421.473C91.9559 349.973 251.324 368.068 346.305 467.64C387.99 511.331 421.312 567.117 474.359 592.808C511.287 610.689 550.718 620.284 590.938 618.189C600.294 617.713 609.695 616.737 619.119 615.142C679.155 604.927 732.429 571.498 784.349 538.379C839.606 503.093 896.036 466.831 954.426 435.95C979.428 422.735 1005.38 410.33 1032.12 401.259C1097.92 378.878 1164.05 376.616 1226.74 388.806C1255.87 394.473 1284.98 403.545 1314.08 416.021C1348.06 430.735 1381.22 449.688 1412.53 470.021C1415.98 472.259 1419.37 474.498 1422.72 476.783C1454.58 498.164 1482.78 520.284 1514.87 534.546C1551 550.617 1590.95 555.76 1630.38 555.236C1646.64 554.951 1662.92 553.689 1679.19 551.903C1706.31 548.951 1733.73 544.736 1762.2 540.236C1815.84 531.784 1872.99 523.069 1928.63 515.498C1984.25 507.926 2038.15 501.45 2085.72 493.974" stroke="white" stroke-opacity="0.6" stroke-width="0.25" stroke-miterlimit="10"></path><path d="M-8.95508 413.568C97.0953 335.258 264.58 352.116 363.529 455.497C406.972 500.879 441.218 559.736 496.926 585.522C533.313 602.356 572.586 609.26 611.949 606.094C621.102 605.379 630.233 604.213 639.408 602.522C697.844 591.76 750.554 561.236 801.956 530.093C856.672 496.926 911.951 462.069 968.899 432.045C993.608 419.045 1019.2 406.783 1045.51 397.33C1110.3 374.044 1176.11 367.663 1239.17 376.925C1268.52 381.116 1297.8 388.973 1326.98 400.592C1360.97 414.235 1393.87 432.735 1424.42 453.616C1427.77 455.926 1431.09 458.235 1434.36 460.593C1465.36 482.783 1492.48 506.95 1523.95 523.379C1559.48 541.927 1599.34 549.617 1639.18 551.569C1655.59 552.308 1672.07 552.093 1688.53 551.308C1715.96 549.998 1743.65 547.308 1772.17 543.998C1825.85 537.76 1882.19 529.807 1937.08 521.26C1991.98 512.712 2045.32 503.522 2093.29 492.164" stroke="white" stroke-opacity="0.6" stroke-width="0.25" stroke-miterlimit="10"></path><path d="M-9.7832 405.664C102.241 320.568 277.842 336.187 380.759 443.378C425.961 490.45 461.086 552.498 519.499 578.26C555.368 594.094 594.46 598.26 632.967 594.046C641.894 593.07 650.799 591.737 659.705 589.951C716.54 578.617 768.663 550.998 819.592 521.831C873.744 490.783 927.896 457.331 983.379 428.164C1007.77 415.354 1033.02 403.235 1058.9 393.426C1122.68 369.235 1188.18 358.878 1251.59 365.044C1281.17 367.83 1310.64 374.402 1339.88 385.14C1373.88 397.711 1406.52 415.759 1436.3 437.212C1439.57 439.569 1442.82 441.974 1446 444.426C1476.14 467.45 1502.18 493.664 1533.06 512.236C1567.99 533.26 1607.75 543.522 1647.97 547.951C1664.52 549.736 1681.21 550.522 1697.84 550.736C1725.6 551.07 1753.57 549.927 1782.09 547.784C1835.84 543.76 1891.34 536.57 1945.52 527.046C1999.69 517.522 2052.45 505.617 2100.85 490.402" stroke="white" stroke-opacity="0.6" stroke-width="0.25" stroke-miterlimit="10"></path><path d="M-10.6191 397.735C107.38 305.83 291.097 320.211 397.981 431.211C444.942 479.974 480.946 545.308 542.064 570.951C577.415 585.784 616.327 587.237 653.954 581.951C662.656 580.736 671.336 579.189 679.971 577.355C735.205 565.451 786.765 540.76 837.197 513.569C890.809 484.664 943.811 452.593 997.851 424.283C1021.93 411.664 1046.82 399.687 1072.29 389.521C1135.06 364.401 1200.21 350.116 1264.01 353.187C1293.8 354.568 1323.49 359.854 1352.77 369.735C1386.77 381.259 1419.19 398.806 1448.18 420.83C1451.38 423.259 1454.52 425.735 1457.63 428.259C1486.89 452.116 1511.85 480.402 1542.15 501.117C1576.42 524.665 1616.14 537.427 1656.74 544.331C1673.45 547.141 1690.33 548.974 1707.15 550.165C1735.22 552.141 1763.49 552.522 1792.03 551.546C1845.83 549.712 1900.52 543.308 1953.97 532.808C2007.43 522.307 2059.59 507.688 2108.43 488.593" stroke="white" stroke-opacity="0.6" stroke-width="0.25" stroke-miterlimit="10"></path><path d="M-11.4541 389.83C112.542 291.115 304.352 304.258 415.205 419.069C463.946 469.521 500.762 538.284 564.631 563.665C599.508 577.522 638.194 576.213 674.965 569.879C795.85 549.022 902.509 477.712 1012.32 420.378C1122.14 363.044 1248.05 318.116 1365.67 354.282C1403.43 365.902 1438.89 385.687 1469.26 412.069C1497.67 436.759 1521.54 467.021 1551.23 489.95C1598.76 526.641 1658.05 542.093 1716.49 549.57C1851.75 566.879 1991.35 544.927 2116 486.783" stroke="white" stroke-opacity="0.6" stroke-width="0.25" stroke-miterlimit="10"></path></g><defs><linearGradient id="paint0_linear_372_9776" x1="950" y1="-71" x2="950" y2="473" gradientUnits="userSpaceOnUse"><stop stop-color="#1D6531"></stop><stop offset="1" stop-color="#439D55"></stop></linearGradient><linearGradient id="paint1_linear_372_9776" x1="950" y1="-71" x2="950" y2="473" gradientUnits="userSpaceOnUse"><stop stop-color="#1D6531"></stop><stop offset="1" stop-color="#439D55"></stop></linearGradient></defs></svg>