<?xml version="1.0" encoding="UTF-8"?>
<svg xmlns="http://www.w3.org/2000/svg" width="28" height="28" viewBox="0 0 28 28" fill="none">
  <g clip-path="url(#clip0_596_5267)">
    <path d="M6.13508 20.7921C5.04882 20.2589 4.30103 19.1418 4.30103 17.8501C4.30103 16.0412 5.76747 14.5747 7.57642 14.5747C9.38538 14.5747 10.8518 16.0412 10.8518 17.8501C10.8518 19.1427 10.1031 20.2604 9.01563 20.7932" stroke="#1D6531" stroke-miterlimit="10" stroke-linecap="round" stroke-linejoin="round"></path>
    <path d="M6.26794 19.3111L7.48791 16.1078C7.50279 16.0688 7.54025 16.043 7.58203 16.043C7.62392 16.043 7.66144 16.0689 7.67626 16.1081L8.88507 19.3111" stroke="#1D6531" stroke-miterlimit="10" stroke-linecap="round" stroke-linejoin="round"></path>
    <path d="M6.65613 18.4971H8.50309" stroke="#1D6531" stroke-miterlimit="10" stroke-linecap="round" stroke-linejoin="round"></path>
    <path d="M18.9845 20.7933C17.897 20.2605 17.1482 19.1428 17.1482 17.8501C17.1482 16.0412 18.6146 14.5747 20.4236 14.5747C22.2325 14.5747 23.699 16.0412 23.699 17.8501C23.699 19.1267 22.9686 20.2328 21.903 20.7732" stroke="#1D6531" stroke-miterlimit="10" stroke-linecap="round" stroke-linejoin="round"></path>
    <path d="M21.4722 16.3794C21.2102 16.2024 20.8944 16.0991 20.5544 16.0991C19.6478 16.0991 18.9128 16.8341 18.9128 17.7407C18.9128 18.6473 19.6478 19.3822 20.5544 19.3822C20.9226 19.3822 21.2255 19.261 21.4553 19.0563C21.5029 19.0139 21.5473 18.968 21.5885 18.9188" stroke="#1D6531" stroke-miterlimit="10" stroke-linecap="round" stroke-linejoin="round"></path>
    <path d="M25.3134 22.8752L23.8761 25.5965C23.7813 25.7762 23.5948 25.8886 23.3916 25.8886H4.60831C4.40515 25.8886 4.21866 25.7762 4.12378 25.5965L2.65723 22.8198" stroke="#1D6531" stroke-miterlimit="10" stroke-linecap="round" stroke-linejoin="round"></path>
    <path d="M19.7198 22.7762H25.5779C25.8809 22.7762 26.1259 22.5307 26.1259 22.2282V21.3478C26.1259 21.0454 25.8809 20.7998 25.5779 20.7998H2.42211C2.11915 20.7998 1.87415 21.0454 1.87415 21.3478V22.2282C1.87415 22.5307 2.11915 22.7762 2.42211 22.7762H17.8057" stroke="#1D6531" stroke-miterlimit="10" stroke-linecap="round" stroke-linejoin="round"></path>
    <path d="M5.09741 26.022V27.084C5.09741 27.3635 5.32382 27.5899 5.60327 27.5899H8.5028" stroke="#1D6531" stroke-miterlimit="10" stroke-linecap="round" stroke-linejoin="round"></path>
    <path d="M22.9026 26.022V27.084C22.9026 27.3635 22.6762 27.5899 22.3967 27.5899H10.4169" stroke="#1D6531" stroke-miterlimit="10" stroke-linecap="round" stroke-linejoin="round"></path>
    <path d="M5.17821 10.0038L1.40958 6.23515C0.0770136 4.90258 0.0770136 2.7421 1.40958 1.40958C2.74215 0.0770136 4.90264 0.0770136 6.23515 1.40958L10.0325 5.20697" stroke="#1D6531" stroke-miterlimit="10" stroke-linecap="round" stroke-linejoin="round"></path>
    <path d="M9.10871 6.22187L10.3337 4.99688C10.4513 4.8793 10.6416 4.8793 10.7592 4.99688L11.8092 6.04687C11.9268 6.16445 11.9268 6.35477 11.8092 6.47234L6.47222 11.8093C6.35464 11.9269 6.16433 11.9269 6.04675 11.8093L4.99675 10.7593C4.87917 10.6417 4.87917 10.4514 4.99675 10.3338L7.75574 7.57539" stroke="#1D6531" stroke-miterlimit="10" stroke-linecap="round" stroke-linejoin="round"></path>
    <path d="M19.8505 3.32373L17.9802 5.19404" stroke="#1D6531" stroke-miterlimit="10" stroke-linecap="round" stroke-linejoin="round"></path>
    <path d="M21.204 1.97088L21.7651 1.40979C23.0973 0.0775976 25.258 0.0775976 26.5902 1.40979L26.5907 1.41033C27.9229 2.74252 27.9229 4.90322 26.5907 6.23541L22.8216 10.0045" stroke="#1D6531" stroke-miterlimit="10" stroke-linecap="round" stroke-linejoin="round"></path>
    <path d="M21.9532 11.8092L23.0034 10.759C23.1209 10.6415 23.1209 10.4509 23.0034 10.3334L17.6664 4.99635C17.5488 4.87882 17.3583 4.87882 17.2408 4.99635L16.1906 6.04656C16.073 6.16409 16.073 6.35462 16.1906 6.47214L21.5276 11.8092C21.6451 11.9267 21.8357 11.9267 21.9532 11.8092Z" stroke="#1D6531" stroke-miterlimit="10" stroke-linecap="round" stroke-linejoin="round"></path>
    <path d="M14 15.0635C15.809 15.0635 17.2754 13.597 17.2754 11.7881C17.2754 9.97914 15.809 8.5127 14 8.5127C12.1911 8.5127 10.7246 9.97914 10.7246 11.7881C10.7246 13.597 12.1911 15.0635 14 15.0635Z" stroke="#1D6531" stroke-miterlimit="10" stroke-linecap="round" stroke-linejoin="round"></path>
    <path d="M13.0947 11.6552V10.0933H14.0798C14.5107 10.0933 14.86 10.4426 14.86 10.8735C14.86 11.3045 14.5107 11.6551 14.0798 11.6551" stroke="#1D6531" stroke-miterlimit="10" stroke-linecap="round" stroke-linejoin="round"></path>
    <path d="M15.1646 12.5676C15.1646 13.0717 14.7559 13.4824 14.2518 13.4824H13.0947V11.6553H14.2518C14.7559 11.6553 15.1646 12.0635 15.1646 12.5676Z" stroke="#1D6531" stroke-miterlimit="10" stroke-linecap="round" stroke-linejoin="round"></path>
    <circle cx="14.4226" cy="16.7959" r="0.410156" fill="#1D6531"></circle>
    <circle cx="3.49487" cy="4.29883" r="0.410156" fill="#1D6531"></circle>
    <circle cx="21.3125" cy="6.25342" r="0.410156" fill="#1D6531"></circle>
    <circle cx="14.9695" cy="18.4365" r="0.410156" fill="#1D6531"></circle>
    <circle cx="3.32178" cy="2.61816" r="0.410156" fill="#1D6531"></circle>
    <circle cx="22.4064" cy="7.34717" r="0.410156" fill="#1D6531"></circle>
    <circle cx="13.2194" cy="18.0537" r="0.410156" fill="#1D6531"></circle>
    <circle cx="4.95068" cy="3.34277" r="0.410156" fill="#1D6531"></circle>
    <circle cx="9.19397" cy="12.8521" r="0.410156" fill="#1D6531"></circle>
    <path d="M5.30069 7.30158C5.78901 7.30158 6.18488 6.90571 6.18488 6.41739C6.18488 5.92907 5.78901 5.5332 5.30069 5.5332C4.81237 5.5332 4.4165 5.92907 4.4165 6.41739C4.4165 6.90571 4.81237 7.30158 5.30069 7.30158Z" stroke="#1D6531" stroke-miterlimit="10" stroke-linecap="round" stroke-linejoin="round"></path>
    <path d="M23.3865 4.92267C23.8748 4.92267 24.2707 4.52681 24.2707 4.03848C24.2707 3.55016 23.8748 3.1543 23.3865 3.1543C22.8982 3.1543 22.5023 3.55016 22.5023 4.03848C22.5023 4.52681 22.8982 4.92267 23.3865 4.92267Z" stroke="#1D6531" stroke-miterlimit="10" stroke-linecap="round" stroke-linejoin="round"></path>
  </g>
  <defs>
    <clipPath id="clip0_596_5267">
      <rect width="28" height="28" fill="white"></rect>
    </clipPath>
  </defs>
</svg>
