<?xml version="1.0" encoding="UTF-8"?>
<svg xmlns="http://www.w3.org/2000/svg" width="28" height="28" viewBox="0 0 28 28" fill="none">
  <g clip-path="url(#clip0_596_5313)">
    <path d="M20.883 3.17188C20.883 4.26727 19.9954 5.15484 18.9006 5.15484C18.3532 5.15484 17.8577 4.93281 17.4984 4.57406C17.2359 4.31156 17.0467 3.97633 16.9641 3.60062" stroke="#1D6531" stroke-miterlimit="10" stroke-linecap="round" stroke-linejoin="round"></path>
    <path d="M9.08807 23.3149L10.6026 24.8063L10.2222 26.9693C10.159 27.3283 9.84719 27.5901 9.48264 27.5901H9.33985C9.0015 27.5901 8.70499 27.3638 8.61563 27.0375L7.98267 24.7261C7.89687 24.3833 8.03512 24.0234 8.32835 23.8261L9.08807 23.3149Z" stroke="#1D6531" stroke-miterlimit="10" stroke-linecap="round" stroke-linejoin="round"></path>
    <path d="M14.3534 13.5171H19.2147L23.6628 15.4036C24.7964 15.8843 25.1979 17.2879 24.49 18.2954L21.9011 21.9803L20.2032 20.986L21.5929 17.9137L17.558 16.9853C16.3427 16.713 15.335 15.8679 14.855 14.7186L14.3534 13.5171Z" stroke="#1D6531" stroke-miterlimit="10" stroke-linecap="round" stroke-linejoin="round"></path>
    <path d="M21.9013 21.9807L22.687 23.7529C22.8031 24.0148 22.76 24.32 22.576 24.5396C22.3095 24.8574 21.8359 24.8991 21.5181 24.6326L19.6581 23.0732C19.3212 22.7907 19.2594 22.2961 19.5165 21.9394L20.2034 20.9863L21.9013 21.9807Z" stroke="#1D6531" stroke-miterlimit="10" stroke-linecap="round" stroke-linejoin="round"></path>
    <path d="M9.89476 13.9279C9.96334 13.942 10.0325 13.9491 10.1005 13.9491C10.525 13.9491 10.9147 13.6802 11.0556 13.2639L12.2023 9.89188L15.0051 9.61975L14.3536 13.517H19.2147L20.1894 7.99198C20.32 7.24965 19.7491 6.56934 18.9954 6.56934H16.4157C16.0407 6.56934 15.6674 6.6167 15.3038 6.71027L11.6673 7.64581C10.9587 7.82813 10.3982 8.3691 10.1902 9.07058L9.13115 12.6527C8.96359 13.2193 9.31627 13.8076 9.89476 13.9279Z" stroke="#1D6531" stroke-miterlimit="10" stroke-linecap="round" stroke-linejoin="round"></path>
    <path d="M14.3533 13.5171L13.1956 19.1193L9.08801 23.3149L10.6029 24.8062L15.178 21.2942C15.8627 20.7687 16.3686 20.044 16.6256 19.2199L16.7666 18.7676" stroke="#1D6531" stroke-miterlimit="10" stroke-linecap="round" stroke-linejoin="round"></path>
    <path d="M23.0564 8.97641L21.6327 7.66648C20.8659 6.96117 19.8618 6.56934 18.8196 6.56934" stroke="#1D6531" stroke-miterlimit="10" stroke-linecap="round" stroke-linejoin="round"></path>
    <path d="M19.9474 9.36316L22.2439 11.3932C22.5122 11.6305 22.8583 11.7616 23.217 11.7616C23.4994 11.7616 23.7694 11.6805 23.9996 11.5358C24.2298 11.391 24.4192 11.1826 24.5416 10.9279L26.2228 7.42301C26.4666 6.91414 26.2495 6.30405 25.7384 6.06408C25.5991 5.99878 25.4521 5.96777 25.3074 5.96777C24.9471 5.96777 24.5999 6.15989 24.4159 6.49567" stroke="#1D6531" stroke-miterlimit="10" stroke-linecap="round" stroke-linejoin="round"></path>
    <path d="M9.89473 13.9281C9.9633 13.9422 10.0324 13.9493 10.1005 13.9493C10.5249 13.9493 10.9146 13.6804 11.0556 13.2641L12.2023 9.89207L11.6673 7.646C10.9587 7.82832 10.3982 8.36929 10.1903 9.07077L9.13118 12.6529C8.96356 13.2195 9.31624 13.8078 9.89473 13.9281Z" stroke="#1D6531" stroke-miterlimit="10" stroke-linecap="round" stroke-linejoin="round"></path>
    <path d="M23.0564 8.97636L22.2439 11.3927C22.5122 11.63 22.8583 11.7612 23.217 11.7612C23.4995 11.7612 23.7694 11.6801 23.9996 11.5353C24.2298 11.3905 24.4192 11.1821 24.5416 10.9274L26.2228 7.42252C26.4666 6.91365 26.2495 6.30356 25.7384 6.06359C25.5991 5.99829 25.4521 5.96729 25.3074 5.96729C24.9471 5.96729 24.5999 6.1594 24.4159 6.49518L23.9983 7.25731" stroke="#1D6531" stroke-miterlimit="10" stroke-linecap="round" stroke-linejoin="round"></path>
    <path d="M20.8832 3.17211C20.8832 3.17211 22.2759 1.50917 21.3802 0.712975C20.4846 -0.0832198 18.8549 0.91078 17.601 1.18941C16.347 1.46805 16.7258 3.00537 16.9652 3.60255C17.3515 3.60255 17.6824 3.57986 18.1557 2.98557C18.4813 2.57673 19.1607 2.35037 20.3039 2.14448C20.3039 2.14448 20.7079 2.09717 20.8832 3.17211Z" stroke="#1D6531" stroke-miterlimit="10" stroke-linecap="round" stroke-linejoin="round"></path>
    <path d="M15.005 9.61996L15.1144 8.97021" stroke="#1D6531" stroke-miterlimit="10" stroke-linecap="round" stroke-linejoin="round"></path>
    <path d="M7.95749 16.4565H1.67712" stroke="#1D6531" stroke-miterlimit="10" stroke-linecap="round" stroke-linejoin="round"></path>
    <path d="M9.83824 18.4497H6.51843" stroke="#1D6531" stroke-miterlimit="10" stroke-linecap="round" stroke-linejoin="round"></path>
  </g>
  <defs>
    <clipPath id="clip0_596_5313">
      <rect width="28" height="28" fill="white"></rect>
    </clipPath>
  </defs>
</svg>
