<?xml version="1.0" encoding="UTF-8"?>
<svg xmlns="http://www.w3.org/2000/svg" width="28" height="28" viewBox="0 0 28 28" fill="none">
  <path d="M22.6989 6.27052V4.77553C23.0944 4.6428 23.3805 4.2694 23.3805 3.82977V0.998047C23.3805 0.447727 22.9328 0 22.3792 0L15.4952 0.0546875C15.2687 0.0564922 15.0865 0.241555 15.0883 0.46807C15.0901 0.693492 15.2734 0.874945 15.4984 0.874945C15.4995 0.874945 15.5006 0.874945 15.5018 0.874945L22.3825 0.820258C22.4805 0.820258 22.5602 0.899992 22.5602 0.997992V3.82971C22.5602 3.92771 22.4805 4.00745 22.3825 4.00745H22.2887H11.1392H11.0454C10.9474 4.00745 10.8677 3.92771 10.8677 3.82971V0.998047C10.8677 0.900047 10.9474 0.820312 11.0454 0.820312H13.475C13.7016 0.820312 13.8852 0.636672 13.8852 0.410156C13.8852 0.183641 13.7016 0 13.475 0H11.0454C10.4951 0 10.0474 0.447727 10.0474 0.998047V3.82977C10.0474 4.26945 10.3335 4.64286 10.7291 4.77553V6.27052C9.0278 6.51667 7.71634 7.98394 7.71634 9.75231V18.0083C7.58098 18.0179 7.44541 18.0375 7.31055 18.068C6.61739 18.2249 6.02688 18.6424 5.64773 19.2435L2.69805 23.9197C1.91536 25.1605 2.28805 26.8067 3.52886 27.5894C3.9686 27.8668 4.45898 27.999 4.94401 27.999C5.8277 27.999 6.69324 27.5597 7.19861 26.7586L7.71634 25.9378V26.3291C7.71634 27.2504 8.46588 27.9999 9.38726 27.9999H24.0407C24.962 27.9999 25.7115 27.2504 25.7115 26.3291V9.75231C25.7115 7.98394 24.4001 6.51667 22.6989 6.27052ZM24.8912 21.7581H20.6579C20.6027 21.7581 20.5578 21.7132 20.5578 21.658V16.1509C20.5578 16.0957 20.6027 16.0508 20.6579 16.0508H24.8912V21.7581ZM21.8785 4.82776V6.23361H11.5494V4.82776H21.8785ZM11.235 7.05392H22.1929C23.6808 7.05392 24.8912 8.26437 24.8912 9.75226V13.031H8.53665V9.75226C8.53665 8.26443 9.74716 7.05392 11.235 7.05392ZM6.34155 19.6812C6.60377 19.2654 7.01223 18.9767 7.49163 18.8681C7.97107 18.7596 8.46402 18.8443 8.87987 19.1065C9.73802 19.6479 9.99582 20.7866 9.45447 21.6448L8.19846 23.636L5.08548 21.6724L6.34155 19.6812ZM6.50479 26.3209C5.96344 27.1791 4.82479 27.437 3.96652 26.8956C3.10826 26.3542 2.85046 25.2155 3.39181 24.3573L4.64782 22.3661L7.7608 24.3297L6.50479 26.3209ZM24.0407 27.1797H9.38726C8.91826 27.1797 8.53665 26.7981 8.53665 26.3291V24.6374L8.6335 24.4839H16.3284C16.5549 24.4839 16.7385 24.3003 16.7385 24.0738C16.7385 23.8472 16.5549 23.6636 16.3284 23.6636H9.15095L10.1483 22.0824C10.5275 21.4814 10.6499 20.7686 10.4929 20.0755C10.336 19.3823 9.91855 18.7918 9.31753 18.4127C9.07286 18.2584 8.80954 18.1473 8.5367 18.0796V13.8513H24.8913V15.2305H20.6579C20.1504 15.2305 19.7375 15.6434 19.7375 16.1509V21.658C19.7375 22.1656 20.1504 22.5784 20.6579 22.5784H24.8913V23.6636H18.2424C18.0159 23.6636 17.8323 23.8472 17.8323 24.0737C17.8323 24.3002 18.0159 24.4839 18.2424 24.4839H24.8912V26.3291C24.8912 26.7981 24.5097 27.1797 24.0407 27.1797Z" fill="#1D6531"></path>
  <path d="M11.7885 11.5259H21.6395C22.0869 11.5259 22.4509 11.1619 22.4509 10.7145V9.67327C22.4509 9.22582 22.0869 8.86182 21.6395 8.86182H11.7885C11.3411 8.86182 10.9771 9.22582 10.9771 9.67327V10.7145C10.9771 11.1619 11.3411 11.5259 11.7885 11.5259ZM11.7974 9.68213H21.6306V10.7056H11.7974V9.68213Z" fill="#1D6531"></path>
  <path d="M16.8889 15.5634L15.743 15.1827C15.315 15.0405 14.851 15.2731 14.7087 15.7012L13.9914 17.8605L13.2311 15.67C13.0831 15.2438 12.6159 15.0176 12.1899 15.1654L11.0492 15.5613C10.623 15.7093 10.3966 16.1764 10.5446 16.6026L12.3144 21.7012C12.471 22.1524 12.8971 22.4554 13.3747 22.4554H14.6517C15.136 22.4554 15.5641 22.1466 15.7168 21.687L17.4075 16.5977C17.5496 16.1696 17.317 15.7056 16.8889 15.5634ZM14.9383 21.4284C14.8972 21.5521 14.782 21.6351 14.6516 21.6351H13.3746C13.2461 21.6351 13.1315 21.5535 13.0893 21.4321L11.3181 16.3362L12.4561 15.939L13.5567 19.1097C13.6221 19.2981 13.7994 19.4241 13.9987 19.4241C13.9997 19.4241 14.0007 19.4241 14.0018 19.4241C14.2023 19.4228 14.3794 19.2941 14.4427 19.1037L15.4845 15.9612L16.6282 16.3412L14.9383 21.4284Z" fill="#1D6531"></path>
  <path d="M21.8607 17.5029H23.731C23.9575 17.5029 24.1411 17.3193 24.1411 17.0928C24.1411 16.8663 23.9575 16.6826 23.731 16.6826H21.8607C21.6341 16.6826 21.4506 16.8663 21.4506 17.0928C21.4506 17.3193 21.6341 17.5029 21.8607 17.5029Z" fill="#1D6531"></path>
  <path d="M21.8607 19.2075H23.731C23.9575 19.2075 24.1411 19.0239 24.1411 18.7974C24.1411 18.5708 23.9575 18.3872 23.731 18.3872H21.8607C21.6341 18.3872 21.4506 18.5708 21.4506 18.7974C21.4506 19.0239 21.6341 19.2075 21.8607 19.2075Z" fill="#1D6531"></path>
  <path d="M21.8607 20.9116H23.731C23.9575 20.9116 24.1411 20.728 24.1411 20.5015C24.1411 20.2749 23.9575 20.0913 23.731 20.0913H21.8607C21.6341 20.0913 21.4506 20.2749 21.4506 20.5015C21.4506 20.728 21.6341 20.9116 21.8607 20.9116Z" fill="#1D6531"></path>
</svg>
